{"glyphs":{"0":{"ha":917,"x_min":65,"x_max":851,"o":"m 568 478 q 567 636 568 599 q 556 718 564 694 q 526 748 546 742 q 458 754 506 754 q 407 751 438 754 l 407 965 q 432 967 415 967 l 458 967 q 683 942 604 967 q 800 863 763 918 q 843 728 835 811 q 851 478 851 644 q 845 250 851 328 q 814 119 839 172 q 728 31 786 61 q 568 -7 671 1 l 568 478 m 458 -11 q 234 13 314 -11 q 117 94 154 38 q 74 228 82 146 q 65 478 65 310 q 72 706 65 628 q 103 836 78 783 q 188 924 131 894 q 349 963 246 954 l 349 478 q 350 321 349 358 q 363 238 353 265 q 392 208 372 214 q 458 201 411 201 l 486 201 q 510 204 496 201 l 510 -10 q 485 -11 501 -11 l 458 -11 z "},"1":{"ha":558,"x_min":14,"x_max":468,"o":"m 190 676 l 14 610 l 14 826 l 283 956 l 468 956 l 468 0 l 190 0 l 190 676 z "},"2":{"ha":853,"x_min":65,"x_max":785,"o":"m 85 932 q 449 967 261 971 l 449 750 q 339 754 422 754 q 171 743 271 754 l 85 732 l 85 932 m 65 140 q 71 286 65 231 q 94 382 76 342 q 149 456 114 425 q 246 513 185 488 l 408 578 q 461 601 439 590 q 492 621 483 611 q 504 644 501 631 q 507 682 507 657 l 507 965 q 622 949 574 961 q 704 911 669 938 q 785 694 785 849 q 740 496 785 561 q 604 399 699 433 l 407 322 q 366 304 382 313 q 343 288 350 296 q 335 265 336 279 q 333 219 333 251 l 333 0 l 65 0 l 65 140 m 392 217 l 785 217 l 785 0 l 392 0 l 392 217 z "},"3":{"ha":847,"x_min":65,"x_max":782,"o":"m 71 933 q 385 967 235 967 q 432 965 417 967 l 432 750 q 342 754 399 754 q 243 751 307 754 l 71 735 l 71 933 m 499 288 q 494 335 499 318 q 476 363 489 353 q 383 376 456 376 l 231 376 l 231 589 l 383 589 q 440 592 419 589 q 472 603 461 594 q 487 626 483 611 q 490 671 490 640 l 490 961 q 707 885 640 946 q 774 715 774 825 q 734 563 774 614 q 608 490 694 511 l 608 485 q 738 419 699 464 q 782 256 782 367 q 726 79 782 139 q 499 -6 663 11 l 499 288 m 393 -11 q 218 -1 317 -11 q 65 22 119 10 l 65 221 q 365 201 233 201 q 440 204 396 201 l 440 -10 q 393 -11 426 -11 z "},"4":{"ha":908,"x_min":42,"x_max":874,"o":"m 42 374 l 353 956 l 656 956 l 224 185 l 42 185 l 42 374 m 485 185 l 290 185 l 410 397 l 486 397 l 590 588 l 757 588 l 757 397 l 874 397 l 874 185 l 757 185 l 757 0 l 485 0 l 485 185 z "},"5":{"ha":872,"x_min":90,"x_max":807,"o":"m 524 299 q 519 353 524 335 q 499 382 514 372 q 457 395 483 392 q 381 399 431 399 q 186 390 289 399 q 101 383 121 385 l 101 956 l 336 956 l 336 603 l 382 607 q 518 611 478 611 q 751 532 683 611 q 794 444 782 496 q 807 319 807 392 q 794 182 807 238 q 751 88 782 126 q 665 26 721 49 q 524 -6 608 3 l 524 299 m 394 956 l 736 956 l 736 740 l 394 740 l 394 956 m 399 -11 q 231 -1 314 -11 q 90 22 149 8 l 90 221 q 368 203 250 203 q 465 206 433 203 l 465 -10 q 399 -11 443 -11 z "},"6":{"ha":919,"x_min":65,"x_max":854,"o":"m 724 742 q 538 754 581 754 q 457 751 488 754 q 407 736 426 747 l 407 965 q 471 967 428 967 q 645 957 556 967 q 801 933 735 947 l 801 735 l 724 742 m 475 -11 q 323 -6 382 -11 q 222 15 264 0 q 145 65 175 32 q 99 151 115 99 q 65 478 65 253 q 78 698 65 611 q 121 839 90 785 q 206 922 151 894 q 349 960 260 950 l 349 308 q 355 247 349 268 q 375 215 361 226 q 406 203 388 206 q 464 201 425 201 l 499 201 q 526 204 510 201 l 526 -10 q 501 -11 518 -11 l 475 -11 m 585 299 q 579 353 585 333 q 561 383 574 374 q 527 396 549 393 q 464 399 506 399 q 407 394 431 399 l 407 582 q 554 611 468 611 q 688 602 635 611 q 776 565 740 593 q 835 476 815 535 q 854 325 854 418 q 842 181 854 239 q 801 83 829 122 q 718 22 771 44 q 585 -7 665 0 l 585 299 z "},"7":{"ha":800,"x_min":43,"x_max":758,"o":"m 43 956 l 758 956 l 758 760 l 750 740 l 43 740 l 43 956 m 436 685 l 725 685 l 428 0 l 124 0 l 436 685 z "},"8":{"ha":939,"x_min":65,"x_max":874,"o":"m 469 -11 q 144 60 236 -11 q 83 141 101 93 q 65 256 65 189 q 110 419 65 367 q 239 485 149 464 l 239 490 q 113 563 153 511 q 74 715 74 614 q 135 885 74 829 q 357 961 204 947 l 357 671 q 360 619 357 636 q 376 593 364 601 q 408 581 388 585 q 469 578 429 578 q 531 581 510 578 q 564 593 551 585 q 578 619 575 601 q 582 671 582 636 q 578 722 582 704 q 564 750 575 740 q 532 763 553 760 q 469 765 511 765 l 440 765 q 415 763 429 765 l 415 965 q 442 967 424 967 l 469 967 q 782 903 692 967 q 846 826 826 871 q 865 715 865 781 q 826 563 865 614 q 700 490 786 511 l 700 485 q 829 419 790 464 q 874 256 874 367 q 860 155 874 199 q 817 79 847 111 q 590 -6 750 10 l 590 288 q 585 342 590 322 q 567 372 579 363 q 533 385 554 382 q 469 388 511 388 q 406 385 428 388 q 372 372 385 382 q 354 342 360 363 q 349 288 349 322 q 353 235 349 254 q 372 207 358 217 q 407 194 385 197 q 469 190 429 190 l 504 190 q 532 193 515 190 l 532 -10 q 501 -11 522 -11 l 469 -11 z "},"9":{"ha":919,"x_min":65,"x_max":854,"o":"m 571 647 q 565 709 571 688 q 544 742 558 731 q 515 753 532 751 q 456 754 497 754 l 421 754 q 393 751 410 754 l 393 965 q 418 967 401 967 l 444 967 q 656 952 582 967 q 774 892 731 938 q 836 747 818 843 q 854 478 854 650 q 842 258 854 343 q 800 118 831 172 q 715 34 769 63 q 571 -4 660 6 l 571 647 m 365 344 q 232 354 285 344 q 144 392 179 364 q 85 480 106 422 q 65 631 65 538 q 78 776 65 717 q 119 874 90 835 q 200 934 149 913 q 335 963 251 956 l 335 657 q 340 603 335 622 q 358 574 346 583 q 393 560 371 564 q 456 557 415 557 q 513 561 490 557 l 513 374 q 365 344 451 344 m 513 -10 q 303 -2 408 -11 q 118 22 197 7 l 118 221 q 265 208 185 214 q 382 201 344 201 q 463 205 432 201 q 513 219 493 208 l 513 -10 z "},"\u0000":{"ha":0,"x_min":0,"x_max":0,"o":""},"\r":{"ha":361,"x_min":0,"x_max":0,"o":""}," ":{"ha":361,"x_min":0,"x_max":0,"o":""},"A":{"ha":954,"x_min":3,"x_max":951,"o":"m 307 956 l 331 956 l 440 575 l 281 0 l 3 0 l 307 956 m 619 169 l 388 169 l 446 383 l 557 383 l 393 956 l 647 956 l 951 0 l 668 0 l 619 169 z "},"Á":{"ha":954,"x_min":3,"x_max":951,"o":"m 307 956 l 331 956 l 440 575 l 281 0 l 3 0 l 307 956 m 619 169 l 388 169 l 446 383 l 557 383 l 393 956 l 647 956 l 951 0 l 668 0 l 619 169 z "},"Ă":{"ha":954,"x_min":3,"x_max":951,"o":"m 307 956 l 331 956 l 440 575 l 281 0 l 3 0 l 307 956 m 619 169 l 388 169 l 446 383 l 557 383 l 393 956 l 647 956 l 951 0 l 668 0 l 619 169 z "},"Ắ":{"ha":954,"x_min":3,"x_max":951,"o":"m 307 956 l 331 956 l 440 575 l 281 0 l 3 0 l 307 956 m 619 169 l 388 169 l 446 383 l 557 383 l 393 956 l 647 956 l 951 0 l 668 0 l 619 169 z "},"Ặ":{"ha":954,"x_min":3,"x_max":951,"o":"m 307 956 l 331 956 l 440 575 l 281 0 l 3 0 l 307 956 m 619 169 l 388 169 l 446 383 l 557 383 l 393 956 l 647 956 l 951 0 l 668 0 l 619 169 z "},"Ằ":{"ha":954,"x_min":3,"x_max":951,"o":"m 307 956 l 331 956 l 440 575 l 281 0 l 3 0 l 307 956 m 619 169 l 388 169 l 446 383 l 557 383 l 393 956 l 647 956 l 951 0 l 668 0 l 619 169 z "},"Ẳ":{"ha":954,"x_min":3,"x_max":951,"o":"m 307 956 l 331 956 l 440 575 l 281 0 l 3 0 l 307 956 m 619 169 l 388 169 l 446 383 l 557 383 l 393 956 l 647 956 l 951 0 l 668 0 l 619 169 z "},"Ẵ":{"ha":954,"x_min":3,"x_max":951,"o":"m 307 956 l 331 956 l 440 575 l 281 0 l 3 0 l 307 956 m 619 169 l 388 169 l 446 383 l 557 383 l 393 956 l 647 956 l 951 0 l 668 0 l 619 169 z "},"Ǎ":{"ha":954,"x_min":3,"x_max":951,"o":"m 307 956 l 331 956 l 440 575 l 281 0 l 3 0 l 307 956 m 619 169 l 388 169 l 446 383 l 557 383 l 393 956 l 647 956 l 951 0 l 668 0 l 619 169 z "},"Â":{"ha":954,"x_min":3,"x_max":951,"o":"m 307 956 l 331 956 l 440 575 l 281 0 l 3 0 l 307 956 m 619 169 l 388 169 l 446 383 l 557 383 l 393 956 l 647 956 l 951 0 l 668 0 l 619 169 z "},"Ấ":{"ha":954,"x_min":3,"x_max":951,"o":"m 307 956 l 331 956 l 440 575 l 281 0 l 3 0 l 307 956 m 619 169 l 388 169 l 446 383 l 557 383 l 393 956 l 647 956 l 951 0 l 668 0 l 619 169 z "},"Ậ":{"ha":954,"x_min":3,"x_max":951,"o":"m 307 956 l 331 956 l 440 575 l 281 0 l 3 0 l 307 956 m 619 169 l 388 169 l 446 383 l 557 383 l 393 956 l 647 956 l 951 0 l 668 0 l 619 169 z "},"Ầ":{"ha":954,"x_min":3,"x_max":951,"o":"m 307 956 l 331 956 l 440 575 l 281 0 l 3 0 l 307 956 m 619 169 l 388 169 l 446 383 l 557 383 l 393 956 l 647 956 l 951 0 l 668 0 l 619 169 z "},"Ẩ":{"ha":954,"x_min":3,"x_max":951,"o":"m 307 956 l 331 956 l 440 575 l 281 0 l 3 0 l 307 956 m 619 169 l 388 169 l 446 383 l 557 383 l 393 956 l 647 956 l 951 0 l 668 0 l 619 169 z "},"Ẫ":{"ha":954,"x_min":3,"x_max":951,"o":"m 307 956 l 331 956 l 440 575 l 281 0 l 3 0 l 307 956 m 619 169 l 388 169 l 446 383 l 557 383 l 393 956 l 647 956 l 951 0 l 668 0 l 619 169 z "},"Ȁ":{"ha":954,"x_min":3,"x_max":951,"o":"m 307 956 l 331 956 l 440 575 l 281 0 l 3 0 l 307 956 m 619 169 l 388 169 l 446 383 l 557 383 l 393 956 l 647 956 l 951 0 l 668 0 l 619 169 z "},"Ä":{"ha":954,"x_min":3,"x_max":951,"o":"m 307 956 l 331 956 l 440 575 l 281 0 l 3 0 l 307 956 m 619 169 l 388 169 l 446 383 l 557 383 l 393 956 l 647 956 l 951 0 l 668 0 l 619 169 z "},"Ạ":{"ha":954,"x_min":3,"x_max":951,"o":"m 307 956 l 331 956 l 440 575 l 281 0 l 3 0 l 307 956 m 619 169 l 388 169 l 446 383 l 557 383 l 393 956 l 647 956 l 951 0 l 668 0 l 619 169 z "},"À":{"ha":954,"x_min":3,"x_max":951,"o":"m 307 956 l 331 956 l 440 575 l 281 0 l 3 0 l 307 956 m 619 169 l 388 169 l 446 383 l 557 383 l 393 956 l 647 956 l 951 0 l 668 0 l 619 169 z "},"Ả":{"ha":954,"x_min":3,"x_max":951,"o":"m 307 956 l 331 956 l 440 575 l 281 0 l 3 0 l 307 956 m 619 169 l 388 169 l 446 383 l 557 383 l 393 956 l 647 956 l 951 0 l 668 0 l 619 169 z "},"Ȃ":{"ha":954,"x_min":3,"x_max":951,"o":"m 307 956 l 331 956 l 440 575 l 281 0 l 3 0 l 307 956 m 619 169 l 388 169 l 446 383 l 557 383 l 393 956 l 647 956 l 951 0 l 668 0 l 619 169 z "},"Ā":{"ha":954,"x_min":3,"x_max":951,"o":"m 307 956 l 331 956 l 440 575 l 281 0 l 3 0 l 307 956 m 619 169 l 388 169 l 446 383 l 557 383 l 393 956 l 647 956 l 951 0 l 668 0 l 619 169 z "},"Ą":{"ha":954,"x_min":3,"x_max":953,"o":"m 440 575 l 281 0 l 3 0 l 307 956 l 331 956 l 440 575 m 944 -150 q 953 -149 950 -150 l 953 -272 l 919 -275 q 849 -278 878 -278 q 703 -242 749 -278 q 664 -156 664 -211 q 685 -79 664 -122 q 740 0 707 -36 l 668 0 l 619 169 l 388 169 l 446 383 l 557 383 l 393 956 l 647 956 l 951 0 q 894 -44 919 -17 q 864 -103 864 -75 q 878 -137 864 -125 q 929 -150 892 -150 l 944 -150 z "},"Å":{"ha":954,"x_min":3,"x_max":951,"o":"m 307 956 l 331 956 l 440 575 l 281 0 l 3 0 l 307 956 m 619 169 l 388 169 l 446 383 l 557 383 l 393 956 l 647 956 l 951 0 l 668 0 l 619 169 z "},"Ǻ":{"ha":954,"x_min":3,"x_max":951,"o":"m 307 956 l 331 956 l 440 575 l 281 0 l 3 0 l 307 956 m 619 169 l 388 169 l 446 383 l 557 383 l 393 956 l 647 956 l 951 0 l 668 0 l 619 169 z "},"Ã":{"ha":954,"x_min":3,"x_max":951,"o":"m 307 956 l 331 956 l 440 575 l 281 0 l 3 0 l 307 956 m 619 169 l 388 169 l 446 383 l 557 383 l 393 956 l 647 956 l 951 0 l 668 0 l 619 169 z "},"Æ":{"ha":1360,"x_min":-28,"x_max":1283,"o":"m 411 956 l 790 956 l 908 0 l 638 0 l 619 169 l 383 169 l 472 383 l 597 383 l 563 731 l 556 731 l 249 0 l -28 0 l 411 956 m 850 956 l 1283 956 l 1283 743 l 876 743 l 850 956 m 896 589 l 1218 589 l 1218 376 l 922 376 l 896 589 m 942 213 l 1283 213 l 1283 0 l 968 0 l 942 213 z "},"Ǽ":{"ha":1360,"x_min":-28,"x_max":1283,"o":"m 411 956 l 790 956 l 908 0 l 638 0 l 619 169 l 383 169 l 472 383 l 597 383 l 563 731 l 556 731 l 249 0 l -28 0 l 411 956 m 850 956 l 1283 956 l 1283 743 l 876 743 l 850 956 m 896 589 l 1218 589 l 1218 376 l 922 376 l 896 589 m 942 213 l 1283 213 l 1283 0 l 968 0 l 942 213 z "},"B":{"ha":931,"x_min":90,"x_max":872,"o":"m 90 956 l 368 956 l 368 0 l 90 0 l 90 956 m 426 213 l 483 213 q 542 215 522 213 q 572 225 563 217 q 585 249 582 233 q 589 293 589 264 q 585 339 589 324 q 572 363 582 354 q 483 376 556 376 l 426 376 l 426 589 l 475 589 q 534 591 514 589 q 564 601 554 593 q 577 624 574 610 q 581 665 581 639 q 577 708 581 693 q 564 731 574 722 q 534 741 554 739 q 475 743 514 743 l 426 743 l 426 956 l 585 956 q 864 715 864 956 q 824 563 864 614 q 699 490 785 511 l 699 485 q 828 419 789 464 q 872 256 872 367 q 804 64 872 128 q 586 0 736 0 l 426 0 l 426 213 z "},"C":{"ha":789,"x_min":65,"x_max":736,"o":"m 407 965 q 442 967 418 967 l 478 967 q 660 953 571 967 q 731 939 706 946 l 731 740 q 661 747 710 742 q 547 754 596 754 q 460 751 493 754 q 407 739 428 747 l 407 965 m 478 -11 q 258 13 339 -11 q 135 94 176 38 q 80 238 94 149 q 65 478 65 328 q 76 692 65 610 q 114 829 86 774 q 199 917 143 886 q 349 960 256 949 l 349 478 q 351 328 349 400 q 373 244 354 272 q 432 210 392 217 q 547 201 471 201 q 682 208 626 201 q 736 215 704 210 l 736 14 q 582 -7 668 -1 q 478 -11 535 -11 z "},"Ć":{"ha":789,"x_min":65,"x_max":736,"o":"m 407 965 q 442 967 418 967 l 478 967 q 660 953 571 967 q 731 939 706 946 l 731 740 q 661 747 710 742 q 547 754 596 754 q 460 751 493 754 q 407 739 428 747 l 407 965 m 478 -11 q 258 13 339 -11 q 135 94 176 38 q 80 238 94 149 q 65 478 65 328 q 76 692 65 610 q 114 829 86 774 q 199 917 143 886 q 349 960 256 949 l 349 478 q 351 328 349 400 q 373 244 354 272 q 432 210 392 217 q 547 201 471 201 q 682 208 626 201 q 736 215 704 210 l 736 14 q 582 -7 668 -1 q 478 -11 535 -11 z "},"Č":{"ha":789,"x_min":65,"x_max":736,"o":"m 407 965 q 442 967 418 967 l 478 967 q 660 953 571 967 q 731 939 706 946 l 731 740 q 661 747 710 742 q 547 754 596 754 q 460 751 493 754 q 407 739 428 747 l 407 965 m 478 -11 q 258 13 339 -11 q 135 94 176 38 q 80 238 94 149 q 65 478 65 328 q 76 692 65 610 q 114 829 86 774 q 199 917 143 886 q 349 960 256 949 l 349 478 q 351 328 349 400 q 373 244 354 272 q 432 210 392 217 q 547 201 471 201 q 682 208 626 201 q 736 215 704 210 l 736 14 q 582 -7 668 -1 q 478 -11 535 -11 z "},"Ç":{"ha":789,"x_min":65,"x_max":736,"o":"m 661 747 q 547 754 596 754 q 460 751 493 754 q 407 739 428 747 l 407 965 q 442 967 418 967 l 478 967 q 660 953 571 967 q 731 939 706 946 l 731 740 q 661 747 710 742 m 682 208 q 736 215 704 210 l 736 14 q 582 -7 668 -1 l 567 -8 l 522 -262 l 282 -262 l 282 -256 l 386 -8 q 229 23 289 -1 q 135 94 169 47 q 80 238 94 149 q 65 478 65 328 q 76 692 65 610 q 114 829 86 774 q 199 917 143 886 q 349 960 256 949 l 349 478 q 351 328 349 400 q 373 244 354 272 q 432 210 392 217 q 547 201 471 201 q 682 208 626 201 z "},"Ĉ":{"ha":789,"x_min":65,"x_max":736,"o":"m 407 965 q 442 967 418 967 l 478 967 q 660 953 571 967 q 731 939 706 946 l 731 740 q 661 747 710 742 q 547 754 596 754 q 460 751 493 754 q 407 739 428 747 l 407 965 m 478 -11 q 258 13 339 -11 q 135 94 176 38 q 80 238 94 149 q 65 478 65 328 q 76 692 65 610 q 114 829 86 774 q 199 917 143 886 q 349 960 256 949 l 349 478 q 351 328 349 400 q 373 244 354 272 q 432 210 392 217 q 547 201 471 201 q 682 208 626 201 q 736 215 704 210 l 736 14 q 582 -7 668 -1 q 478 -11 535 -11 z "},"Ċ":{"ha":789,"x_min":65,"x_max":736,"o":"m 407 965 q 442 967 418 967 l 478 967 q 660 953 571 967 q 731 939 706 946 l 731 740 q 661 747 710 742 q 547 754 596 754 q 460 751 493 754 q 407 739 428 747 l 407 965 m 478 -11 q 258 13 339 -11 q 135 94 176 38 q 80 238 94 149 q 65 478 65 328 q 76 692 65 610 q 114 829 86 774 q 199 917 143 886 q 349 960 256 949 l 349 478 q 351 328 349 400 q 373 244 354 272 q 432 210 392 217 q 547 201 471 201 q 682 208 626 201 q 736 215 704 210 l 736 14 q 582 -7 668 -1 q 478 -11 535 -11 z "},"D":{"ha":944,"x_min":90,"x_max":879,"o":"m 90 956 l 368 956 l 368 0 l 90 0 l 90 956 m 426 213 l 438 213 q 534 219 506 213 q 576 249 563 225 q 593 328 592 274 q 596 478 596 397 q 593 629 596 557 q 576 708 590 683 q 529 739 561 733 q 438 743 497 743 l 426 743 l 426 956 l 438 956 q 623 946 549 956 q 746 915 697 936 q 821 858 793 894 q 861 768 849 822 q 876 653 872 719 q 879 478 879 588 q 876 301 879 367 q 861 188 872 236 q 821 97 849 133 q 746 40 793 61 q 623 10 697 19 q 438 0 549 0 l 426 0 l 426 213 z "},"Ǆ":{"ha":1803,"x_min":90,"x_max":1747,"o":"m 90 956 l 368 956 l 368 0 l 90 0 l 90 956 m 426 213 l 438 213 q 534 219 506 213 q 576 249 563 225 q 593 328 592 274 q 596 478 596 397 q 593 629 596 557 q 576 708 590 683 q 529 739 561 733 q 438 743 497 743 l 426 743 l 426 956 l 438 956 q 623 946 549 956 q 746 915 697 936 q 821 858 793 894 q 861 768 849 822 q 876 653 872 719 q 879 478 879 588 q 876 301 879 367 q 861 188 872 236 q 821 97 849 133 q 746 40 793 61 q 623 10 697 19 q 438 0 549 0 l 426 0 l 426 213 m 1015 956 l 1747 956 l 1747 758 l 1736 743 l 1015 743 l 1015 956 m 1000 204 l 1358 688 l 1694 688 l 1183 0 l 1000 0 l 1000 204 m 1414 213 l 1747 213 l 1747 0 l 1256 0 l 1414 213 z "},"Ð":{"ha":944,"x_min":-1,"x_max":879,"o":"m 368 379 l 368 0 l 90 0 l 90 379 l -1 379 l -1 586 l 90 586 l 90 956 l 368 956 l 368 586 l 500 586 l 500 379 l 368 379 m 861 768 q 876 653 872 719 q 879 478 879 588 q 876 301 879 367 q 861 188 872 236 q 821 97 849 133 q 746 40 793 61 q 623 10 697 19 q 438 0 549 0 l 426 0 l 426 213 l 438 213 q 534 219 506 213 q 576 249 563 225 q 593 328 592 274 q 596 478 596 397 q 593 629 596 557 q 576 708 590 683 q 529 739 561 733 q 438 743 497 743 l 426 743 l 426 956 l 438 956 q 623 946 549 956 q 746 915 697 936 q 821 858 793 894 q 861 768 849 822 z "},"Ď":{"ha":944,"x_min":90,"x_max":879,"o":"m 90 956 l 368 956 l 368 0 l 90 0 l 90 956 m 426 213 l 438 213 q 534 219 506 213 q 576 249 563 225 q 593 328 592 274 q 596 478 596 397 q 593 629 596 557 q 576 708 590 683 q 529 739 561 733 q 438 743 497 743 l 426 743 l 426 956 l 438 956 q 623 946 549 956 q 746 915 697 936 q 821 858 793 894 q 861 768 849 822 q 876 653 872 719 q 879 478 879 588 q 876 301 879 367 q 861 188 872 236 q 821 97 849 133 q 746 40 793 61 q 623 10 697 19 q 438 0 549 0 l 426 0 l 426 213 z "},"Đ":{"ha":944,"x_min":-1,"x_max":879,"o":"m 368 379 l 368 0 l 90 0 l 90 379 l -1 379 l -1 586 l 90 586 l 90 956 l 368 956 l 368 586 l 500 586 l 500 379 l 368 379 m 861 768 q 876 653 872 719 q 879 478 879 588 q 876 301 879 367 q 861 188 872 236 q 821 97 849 133 q 746 40 793 61 q 623 10 697 19 q 438 0 549 0 l 426 0 l 426 213 l 438 213 q 534 219 506 213 q 576 249 563 225 q 593 328 592 274 q 596 478 596 397 q 593 629 596 557 q 576 708 590 683 q 529 739 561 733 q 438 743 497 743 l 426 743 l 426 956 l 438 956 q 623 946 549 956 q 746 915 697 936 q 821 858 793 894 q 861 768 849 822 z "},"ǅ":{"ha":1686,"x_min":90,"x_max":1624,"o":"m 90 956 l 368 956 l 368 0 l 90 0 l 90 956 m 426 213 l 438 213 q 534 219 506 213 q 576 249 563 225 q 593 328 592 274 q 596 478 596 397 q 593 629 596 557 q 576 708 590 683 q 529 739 561 733 q 438 743 497 743 l 426 743 l 426 956 l 438 956 q 623 946 549 956 q 746 915 697 936 q 821 858 793 894 q 861 768 849 822 q 876 653 872 719 q 879 478 879 588 q 876 301 879 367 q 861 188 872 236 q 821 97 849 133 q 746 40 793 61 q 623 10 697 19 q 438 0 549 0 l 426 0 l 426 213 z "},"E":{"ha":856,"x_min":90,"x_max":779,"o":"m 90 956 l 368 956 l 368 0 l 90 0 l 90 956 m 426 956 l 779 956 l 779 743 l 426 743 l 426 956 m 426 589 l 714 589 l 714 376 l 426 376 l 426 589 m 426 213 l 779 213 l 779 0 l 426 0 l 426 213 z "},"É":{"ha":856,"x_min":90,"x_max":779,"o":"m 90 956 l 368 956 l 368 0 l 90 0 l 90 956 m 426 956 l 779 956 l 779 743 l 426 743 l 426 956 m 426 589 l 714 589 l 714 376 l 426 376 l 426 589 m 426 213 l 779 213 l 779 0 l 426 0 l 426 213 z "},"Ĕ":{"ha":856,"x_min":90,"x_max":779,"o":"m 90 956 l 368 956 l 368 0 l 90 0 l 90 956 m 426 956 l 779 956 l 779 743 l 426 743 l 426 956 m 426 589 l 714 589 l 714 376 l 426 376 l 426 589 m 426 213 l 779 213 l 779 0 l 426 0 l 426 213 z "},"Ě":{"ha":856,"x_min":90,"x_max":779,"o":"m 90 956 l 368 956 l 368 0 l 90 0 l 90 956 m 426 956 l 779 956 l 779 743 l 426 743 l 426 956 m 426 589 l 714 589 l 714 376 l 426 376 l 426 589 m 426 213 l 779 213 l 779 0 l 426 0 l 426 213 z "},"Ê":{"ha":856,"x_min":90,"x_max":779,"o":"m 90 956 l 368 956 l 368 0 l 90 0 l 90 956 m 426 956 l 779 956 l 779 743 l 426 743 l 426 956 m 426 589 l 714 589 l 714 376 l 426 376 l 426 589 m 426 213 l 779 213 l 779 0 l 426 0 l 426 213 z "},"Ế":{"ha":856,"x_min":90,"x_max":779,"o":"m 90 956 l 368 956 l 368 0 l 90 0 l 90 956 m 426 956 l 779 956 l 779 743 l 426 743 l 426 956 m 426 589 l 714 589 l 714 376 l 426 376 l 426 589 m 426 213 l 779 213 l 779 0 l 426 0 l 426 213 z "},"Ệ":{"ha":856,"x_min":90,"x_max":779,"o":"m 90 956 l 368 956 l 368 0 l 90 0 l 90 956 m 426 956 l 779 956 l 779 743 l 426 743 l 426 956 m 426 589 l 714 589 l 714 376 l 426 376 l 426 589 m 426 213 l 779 213 l 779 0 l 426 0 l 426 213 z "},"Ề":{"ha":856,"x_min":90,"x_max":779,"o":"m 90 956 l 368 956 l 368 0 l 90 0 l 90 956 m 426 956 l 779 956 l 779 743 l 426 743 l 426 956 m 426 589 l 714 589 l 714 376 l 426 376 l 426 589 m 426 213 l 779 213 l 779 0 l 426 0 l 426 213 z "},"Ể":{"ha":856,"x_min":90,"x_max":779,"o":"m 90 956 l 368 956 l 368 0 l 90 0 l 90 956 m 426 956 l 779 956 l 779 743 l 426 743 l 426 956 m 426 589 l 714 589 l 714 376 l 426 376 l 426 589 m 426 213 l 779 213 l 779 0 l 426 0 l 426 213 z "},"Ễ":{"ha":856,"x_min":90,"x_max":779,"o":"m 90 956 l 368 956 l 368 0 l 90 0 l 90 956 m 426 956 l 779 956 l 779 743 l 426 743 l 426 956 m 426 589 l 714 589 l 714 376 l 426 376 l 426 589 m 426 213 l 779 213 l 779 0 l 426 0 l 426 213 z "},"Ȅ":{"ha":856,"x_min":83,"x_max":779,"o":"m 90 956 l 368 956 l 368 0 l 90 0 l 90 956 m 426 956 l 779 956 l 779 743 l 426 743 l 426 956 m 426 589 l 714 589 l 714 376 l 426 376 l 426 589 m 426 213 l 779 213 l 779 0 l 426 0 l 426 213 z "},"Ë":{"ha":856,"x_min":90,"x_max":779,"o":"m 90 956 l 368 956 l 368 0 l 90 0 l 90 956 m 426 956 l 779 956 l 779 743 l 426 743 l 426 956 m 426 589 l 714 589 l 714 376 l 426 376 l 426 589 m 426 213 l 779 213 l 779 0 l 426 0 l 426 213 z "},"Ė":{"ha":856,"x_min":90,"x_max":779,"o":"m 90 956 l 368 956 l 368 0 l 90 0 l 90 956 m 426 956 l 779 956 l 779 743 l 426 743 l 426 956 m 426 589 l 714 589 l 714 376 l 426 376 l 426 589 m 426 213 l 779 213 l 779 0 l 426 0 l 426 213 z "},"Ẹ":{"ha":856,"x_min":90,"x_max":779,"o":"m 90 956 l 368 956 l 368 0 l 90 0 l 90 956 m 426 956 l 779 956 l 779 743 l 426 743 l 426 956 m 426 589 l 714 589 l 714 376 l 426 376 l 426 589 m 426 213 l 779 213 l 779 0 l 426 0 l 426 213 z "},"È":{"ha":856,"x_min":90,"x_max":779,"o":"m 90 956 l 368 956 l 368 0 l 90 0 l 90 956 m 426 956 l 779 956 l 779 743 l 426 743 l 426 956 m 426 589 l 714 589 l 714 376 l 426 376 l 426 589 m 426 213 l 779 213 l 779 0 l 426 0 l 426 213 z "},"Ẻ":{"ha":856,"x_min":90,"x_max":779,"o":"m 90 956 l 368 956 l 368 0 l 90 0 l 90 956 m 426 956 l 779 956 l 779 743 l 426 743 l 426 956 m 426 589 l 714 589 l 714 376 l 426 376 l 426 589 m 426 213 l 779 213 l 779 0 l 426 0 l 426 213 z "},"Ȇ":{"ha":856,"x_min":90,"x_max":779,"o":"m 90 956 l 368 956 l 368 0 l 90 0 l 90 956 m 426 956 l 779 956 l 779 743 l 426 743 l 426 956 m 426 589 l 714 589 l 714 376 l 426 376 l 426 589 m 426 213 l 779 213 l 779 0 l 426 0 l 426 213 z "},"Ē":{"ha":856,"x_min":90,"x_max":779,"o":"m 90 956 l 368 956 l 368 0 l 90 0 l 90 956 m 426 956 l 779 956 l 779 743 l 426 743 l 426 956 m 426 589 l 714 589 l 714 376 l 426 376 l 426 589 m 426 213 l 779 213 l 779 0 l 426 0 l 426 213 z "},"Ę":{"ha":856,"x_min":90,"x_max":781,"o":"m 90 956 l 368 956 l 368 0 l 90 0 l 90 956 m 779 743 l 426 743 l 426 956 l 779 956 l 779 743 m 714 376 l 426 376 l 426 589 l 714 589 l 714 376 m 772 -150 q 781 -149 778 -150 l 781 -272 l 747 -275 q 676 -278 706 -278 q 531 -242 576 -278 q 492 -156 492 -211 q 513 -79 492 -122 q 568 0 535 -36 l 426 0 l 426 213 l 779 213 l 779 0 q 722 -44 747 -17 q 692 -103 692 -75 q 706 -137 692 -125 q 757 -150 719 -150 l 772 -150 z "},"Ẽ":{"ha":856,"x_min":90,"x_max":779,"o":"m 90 956 l 368 956 l 368 0 l 90 0 l 90 956 m 426 956 l 779 956 l 779 743 l 426 743 l 426 956 m 426 589 l 714 589 l 714 376 l 426 376 l 426 589 m 426 213 l 779 213 l 779 0 l 426 0 l 426 213 z "},"F":{"ha":800,"x_min":90,"x_max":751,"o":"m 90 956 l 368 956 l 368 0 l 90 0 l 90 956 m 426 956 l 751 956 l 751 743 l 426 743 l 426 956 m 426 561 l 700 561 l 700 349 l 426 349 l 426 561 z "},"G":{"ha":917,"x_min":65,"x_max":833,"o":"m 407 964 q 499 967 463 967 q 728 950 624 967 q 829 933 781 944 l 829 735 q 742 744 771 740 q 665 751 718 746 q 596 754 613 754 q 472 751 511 754 q 407 733 432 747 l 407 964 m 499 -11 q 277 10 360 -11 q 149 83 194 31 q 84 229 103 136 q 65 478 65 322 q 78 694 65 610 q 121 833 90 779 q 207 918 153 889 q 349 958 261 947 l 349 478 q 354 327 349 379 q 375 247 360 275 q 423 207 392 218 q 513 196 454 196 l 513 -11 l 499 -11 m 571 367 l 472 367 l 472 568 l 833 568 l 833 24 q 671 0 768 8 q 571 -8 624 -7 l 571 367 z "},"Ğ":{"ha":917,"x_min":65,"x_max":833,"o":"m 407 964 q 499 967 463 967 q 728 950 624 967 q 829 933 781 944 l 829 735 q 742 744 771 740 q 665 751 718 746 q 596 754 613 754 q 472 751 511 754 q 407 733 432 747 l 407 964 m 499 -11 q 277 10 360 -11 q 149 83 194 31 q 84 229 103 136 q 65 478 65 322 q 78 694 65 610 q 121 833 90 779 q 207 918 153 889 q 349 958 261 947 l 349 478 q 354 327 349 379 q 375 247 360 275 q 423 207 392 218 q 513 196 454 196 l 513 -11 l 499 -11 m 571 367 l 472 367 l 472 568 l 833 568 l 833 24 q 671 0 768 8 q 571 -8 624 -7 l 571 367 z "},"Ǧ":{"ha":917,"x_min":65,"x_max":833,"o":"m 407 964 q 499 967 463 967 q 728 950 624 967 q 829 933 781 944 l 829 735 q 742 744 771 740 q 665 751 718 746 q 596 754 613 754 q 472 751 511 754 q 407 733 432 747 l 407 964 m 499 -11 q 277 10 360 -11 q 149 83 194 31 q 84 229 103 136 q 65 478 65 322 q 78 694 65 610 q 121 833 90 779 q 207 918 153 889 q 349 958 261 947 l 349 478 q 354 327 349 379 q 375 247 360 275 q 423 207 392 218 q 513 196 454 196 l 513 -11 l 499 -11 m 571 367 l 472 367 l 472 568 l 833 568 l 833 24 q 671 0 768 8 q 571 -8 624 -7 l 571 367 z "},"Ĝ":{"ha":917,"x_min":65,"x_max":833,"o":"m 407 964 q 499 967 463 967 q 728 950 624 967 q 829 933 781 944 l 829 735 q 742 744 771 740 q 665 751 718 746 q 596 754 613 754 q 472 751 511 754 q 407 733 432 747 l 407 964 m 499 -11 q 277 10 360 -11 q 149 83 194 31 q 84 229 103 136 q 65 478 65 322 q 78 694 65 610 q 121 833 90 779 q 207 918 153 889 q 349 958 261 947 l 349 478 q 354 327 349 379 q 375 247 360 275 q 423 207 392 218 q 513 196 454 196 l 513 -11 l 499 -11 m 571 367 l 472 367 l 472 568 l 833 568 l 833 24 q 671 0 768 8 q 571 -8 624 -7 l 571 367 z "},"Ģ":{"ha":917,"x_min":65,"x_max":833,"o":"m 407 964 q 499 967 463 967 q 728 950 624 967 q 829 933 781 944 l 829 735 q 742 744 771 740 q 665 751 718 746 q 596 754 613 754 q 472 751 511 754 q 407 733 432 747 l 407 964 m 499 -11 q 277 10 360 -11 q 149 83 194 31 q 84 229 103 136 q 65 478 65 322 q 78 694 65 610 q 121 833 90 779 q 207 918 153 889 q 349 958 261 947 l 349 478 q 354 327 349 379 q 375 247 360 275 q 423 207 392 218 q 513 196 454 196 l 513 -11 l 499 -11 m 571 367 l 472 367 l 472 568 l 833 568 l 833 24 q 671 0 768 8 q 571 -8 624 -7 l 571 367 z "},"Ġ":{"ha":917,"x_min":65,"x_max":833,"o":"m 407 964 q 499 967 463 967 q 728 950 624 967 q 829 933 781 944 l 829 735 q 742 744 771 740 q 665 751 718 746 q 596 754 613 754 q 472 751 511 754 q 407 733 432 747 l 407 964 m 499 -11 q 277 10 360 -11 q 149 83 194 31 q 84 229 103 136 q 65 478 65 322 q 78 694 65 610 q 121 833 90 779 q 207 918 153 889 q 349 958 261 947 l 349 478 q 354 327 349 379 q 375 247 360 275 q 423 207 392 218 q 513 196 454 196 l 513 -11 l 499 -11 m 571 367 l 472 367 l 472 568 l 833 568 l 833 24 q 671 0 768 8 q 571 -8 624 -7 l 571 367 z "},"H":{"ha":994,"x_min":90,"x_max":904,"o":"m 90 956 l 368 956 l 368 0 l 90 0 l 90 956 m 626 368 l 426 368 l 426 590 l 626 590 l 626 956 l 904 956 l 904 0 l 626 0 l 626 368 z "},"Ħ":{"ha":994,"x_min":40,"x_max":958,"o":"m 958 663 l 904 663 l 904 0 l 626 0 l 626 368 l 426 368 l 426 590 l 626 590 l 626 663 l 368 663 l 368 0 l 90 0 l 90 663 l 40 663 l 40 869 l 90 869 l 90 956 l 368 956 l 368 869 l 626 869 l 626 956 l 904 956 l 904 869 l 958 869 l 958 663 z "},"Ĥ":{"ha":994,"x_min":90,"x_max":904,"o":"m 90 956 l 368 956 l 368 0 l 90 0 l 90 956 m 626 368 l 426 368 l 426 590 l 626 590 l 626 956 l 904 956 l 904 0 l 626 0 l 626 368 z "},"Ḥ":{"ha":994,"x_min":90,"x_max":904,"o":"m 90 956 l 368 956 l 368 0 l 90 0 l 90 956 m 626 368 l 426 368 l 426 590 l 626 590 l 626 956 l 904 956 l 904 0 l 626 0 l 626 368 z "},"I":{"ha":458,"x_min":90,"x_max":368,"o":"m 90 956 l 368 956 l 368 0 l 90 0 l 90 956 z "},"Ĳ":{"ha":1049,"x_min":90,"x_max":963,"o":"m 90 956 l 368 956 l 368 0 l 90 0 l 90 956 m 486 201 q 601 206 561 201 q 660 227 642 210 q 682 278 679 244 q 685 369 685 322 l 685 956 l 963 956 l 963 464 q 958 260 963 331 q 940 142 954 189 q 895 62 925 90 q 813 19 865 33 q 691 3 764 7 q 486 0 618 0 l 486 201 z "},"Í":{"ha":458,"x_min":90,"x_max":507,"o":"m 90 956 l 368 956 l 368 0 l 90 0 l 90 956 z "},"Ĭ":{"ha":458,"x_min":8,"x_max":449,"o":"m 90 956 l 368 956 l 368 0 l 90 0 l 90 956 z "},"Ǐ":{"ha":458,"x_min":-19,"x_max":476,"o":"m 90 956 l 368 956 l 368 0 l 90 0 l 90 956 z "},"Î":{"ha":458,"x_min":-19,"x_max":476,"o":"m 90 956 l 368 956 l 368 0 l 90 0 l 90 956 z "},"Ȉ":{"ha":458,"x_min":-135,"x_max":435,"o":"m 90 956 l 368 956 l 368 0 l 90 0 l 90 956 z "},"Ï":{"ha":458,"x_min":-24,"x_max":478,"o":"m 90 956 l 368 956 l 368 0 l 90 0 l 90 956 z "},"İ":{"ha":458,"x_min":90,"x_max":368,"o":"m 90 956 l 368 956 l 368 0 l 90 0 l 90 956 z "},"Ị":{"ha":458,"x_min":90,"x_max":368,"o":"m 90 956 l 368 956 l 368 0 l 90 0 l 90 956 z "},"Ì":{"ha":458,"x_min":-51,"x_max":368,"o":"m 90 956 l 368 956 l 368 0 l 90 0 l 90 956 z "},"Ỉ":{"ha":458,"x_min":90,"x_max":404,"o":"m 90 956 l 368 956 l 368 0 l 90 0 l 90 956 z "},"Ȋ":{"ha":458,"x_min":8,"x_max":449,"o":"m 90 956 l 368 956 l 368 0 l 90 0 l 90 956 z "},"Ī":{"ha":458,"x_min":31,"x_max":426,"o":"m 90 956 l 368 956 l 368 0 l 90 0 l 90 956 z "},"Į":{"ha":458,"x_min":81,"x_max":369,"o":"m 361 -150 q 369 -149 367 -150 l 369 -272 l 336 -275 q 265 -278 294 -278 q 119 -242 164 -278 q 81 -156 81 -211 q 102 -79 81 -122 q 157 0 124 -36 l 90 0 l 90 956 l 368 956 l 368 0 q 311 -44 336 -17 q 281 -103 281 -75 q 294 -137 281 -125 q 346 -150 308 -150 l 361 -150 z "},"Ĩ":{"ha":458,"x_min":-53,"x_max":507,"o":"m 90 956 l 368 956 l 368 0 l 90 0 l 90 956 z "},"J":{"ha":590,"x_min":28,"x_max":504,"o":"m 28 201 q 143 206 103 201 q 202 227 183 210 q 224 278 221 244 q 226 369 226 322 l 226 956 l 504 956 l 504 464 q 500 260 504 331 q 482 142 496 189 q 437 62 467 90 q 354 19 407 33 q 233 3 306 7 q 28 0 160 0 l 28 201 z "},"Ĵ":{"ha":590,"x_min":28,"x_max":611,"o":"m 28 201 q 143 206 103 201 q 202 227 183 210 q 224 278 221 244 q 226 369 226 322 l 226 956 l 504 956 l 504 464 q 500 260 504 331 q 482 142 496 189 q 437 62 467 90 q 354 19 407 33 q 233 3 306 7 q 28 0 160 0 l 28 201 z "},"K":{"ha":949,"x_min":90,"x_max":953,"o":"m 90 956 l 368 956 l 368 0 l 90 0 l 90 956 m 426 335 l 426 633 l 646 956 l 949 956 l 619 506 l 953 0 l 642 0 l 426 335 z "},"Ķ":{"ha":949,"x_min":90,"x_max":953,"o":"m 90 956 l 368 956 l 368 0 l 90 0 l 90 956 m 426 335 l 426 633 l 646 956 l 949 956 l 619 506 l 953 0 l 642 0 l 426 335 z "},"L":{"ha":751,"x_min":90,"x_max":724,"o":"m 90 956 l 368 956 l 368 0 l 90 0 l 90 956 m 426 224 l 724 224 l 724 0 l 426 0 l 426 224 z "},"Ǉ":{"ha":1342,"x_min":90,"x_max":1256,"o":"m 90 956 l 368 956 l 368 0 l 90 0 l 90 956 m 426 224 l 724 224 l 724 0 l 426 0 l 426 224 m 779 201 q 894 206 854 201 q 953 227 935 210 q 975 278 972 244 q 978 369 978 322 l 978 956 l 1256 956 l 1256 464 q 1251 260 1256 331 q 1233 142 1247 189 q 1188 62 1218 90 q 1106 19 1158 33 q 984 3 1057 7 q 779 0 911 0 l 779 201 z "},"Ĺ":{"ha":751,"x_min":90,"x_max":724,"o":"m 90 956 l 368 956 l 368 0 l 90 0 l 90 956 m 426 224 l 724 224 l 724 0 l 426 0 l 426 224 z "},"Ľ":{"ha":751,"x_min":90,"x_max":726,"o":"m 90 956 l 368 956 l 368 0 l 90 0 l 90 956 m 426 224 l 724 224 l 724 0 l 426 0 l 426 224 m 483 656 q 529 660 513 656 q 556 674 546 664 q 567 697 564 683 q 569 739 569 711 l 569 757 l 483 757 l 483 954 l 726 954 l 726 806 q 719 686 726 729 q 688 618 711 643 q 614 578 661 590 q 483 567 567 567 l 483 656 z "},"Ļ":{"ha":751,"x_min":90,"x_max":724,"o":"m 90 956 l 368 956 l 368 0 l 90 0 l 90 956 m 426 224 l 724 224 l 724 0 l 426 0 l 426 224 z "},"Ŀ":{"ha":751,"x_min":90,"x_max":726,"o":"m 90 956 l 368 956 l 368 0 l 90 0 l 90 956 m 426 224 l 724 224 l 724 0 l 426 0 l 426 224 m 446 660 l 726 660 l 726 433 l 446 433 l 446 660 z "},"ǈ":{"ha":1167,"x_min":90,"x_max":1088,"o":"m 90 956 l 368 956 l 368 0 l 90 0 l 90 956 m 426 224 l 724 224 l 724 0 l 426 0 l 426 224 m 831 1032 l 1088 1032 l 1088 832 l 831 832 l 831 1032 m 717 -96 q 781 -92 757 -96 q 814 -79 803 -87 q 828 -57 825 -71 q 831 -25 831 -40 l 831 708 l 1088 708 l 1088 51 q 1073 -130 1088 -67 q 1019 -225 1058 -193 q 913 -267 981 -257 q 717 -276 844 -276 l 717 -96 z "},"Ł":{"ha":751,"x_min":-11,"x_max":724,"o":"m 368 497 l 368 0 l 90 0 l 90 343 l -11 288 l -11 494 l 90 550 l 90 956 l 368 956 l 368 704 l 490 772 l 490 565 l 368 497 m 724 224 l 724 0 l 426 0 l 426 224 l 724 224 z "},"M":{"ha":1229,"x_min":90,"x_max":1139,"o":"m 90 914 l 90 956 l 346 956 l 746 106 l 700 0 l 519 0 l 90 914 m 875 401 l 869 401 l 776 176 l 657 432 l 875 956 l 1139 956 l 1139 0 l 875 0 l 875 401 m 90 776 l 346 232 l 346 0 l 90 0 l 90 776 z "},"N":{"ha":994,"x_min":90,"x_max":904,"o":"m 90 917 l 90 956 l 368 956 l 904 40 l 904 0 l 628 0 l 90 917 m 640 607 l 640 956 l 904 956 l 904 156 l 640 607 m 90 801 l 354 350 l 354 0 l 90 0 l 90 801 z "},"Ǌ":{"ha":1585,"x_min":90,"x_max":1499,"o":"m 90 917 l 90 956 l 368 956 l 904 40 l 904 0 l 628 0 l 90 917 m 640 607 l 640 956 l 904 956 l 904 156 l 640 607 m 90 801 l 354 350 l 354 0 l 90 0 l 90 801 m 1022 201 q 1138 206 1097 201 q 1197 227 1178 210 q 1218 278 1215 244 q 1221 369 1221 322 l 1221 956 l 1499 956 l 1499 464 q 1494 260 1499 331 q 1476 142 1490 189 q 1431 62 1461 90 q 1349 19 1401 33 q 1227 3 1300 7 q 1022 0 1154 0 l 1022 201 z "},"Ń":{"ha":994,"x_min":90,"x_max":904,"o":"m 90 917 l 90 956 l 368 956 l 904 40 l 904 0 l 628 0 l 90 917 m 640 607 l 640 956 l 904 956 l 904 156 l 640 607 m 90 801 l 354 350 l 354 0 l 90 0 l 90 801 z "},"Ň":{"ha":994,"x_min":90,"x_max":904,"o":"m 90 917 l 90 956 l 368 956 l 904 40 l 904 0 l 628 0 l 90 917 m 640 607 l 640 956 l 904 956 l 904 156 l 640 607 m 90 801 l 354 350 l 354 0 l 90 0 l 90 801 z "},"Ņ":{"ha":994,"x_min":90,"x_max":904,"o":"m 90 917 l 90 956 l 368 956 l 904 40 l 904 0 l 628 0 l 90 917 m 640 607 l 640 956 l 904 956 l 904 156 l 640 607 m 90 801 l 354 350 l 354 0 l 90 0 l 90 801 z "},"Ŋ":{"ha":994,"x_min":90,"x_max":904,"o":"m 368 956 l 904 40 l 904 0 q 888 -140 903 -86 q 836 -225 872 -194 q 722 -266 797 -256 q 517 -276 647 -276 l 517 -96 q 578 -92 554 -96 q 611 -79 600 -87 q 625 -57 622 -71 q 628 -25 628 -40 l 628 0 l 90 917 l 90 956 l 368 956 m 904 956 l 904 156 l 640 607 l 640 956 l 904 956 m 90 801 l 354 350 l 354 0 l 90 0 l 90 801 z "},"Ɲ":{"ha":994,"x_min":-21,"x_max":904,"o":"m 90 917 l 90 956 l 368 956 l 904 40 l 904 0 l 628 0 l 90 917 m 640 607 l 640 956 l 904 956 l 904 156 l 640 607 m -21 -96 q 40 -92 17 -96 q 74 -79 63 -87 q 88 -57 85 -71 q 90 -25 90 -40 l 90 801 l 354 350 l 354 51 q 340 -130 354 -67 q 286 -225 325 -193 q 178 -266 247 -256 q -21 -276 108 -276 l -21 -96 z "},"ǋ":{"ha":1410,"x_min":90,"x_max":1331,"o":"m 90 917 l 90 956 l 368 956 l 904 40 l 904 0 l 628 0 l 90 917 m 640 607 l 640 956 l 904 956 l 904 156 l 640 607 m 90 801 l 354 350 l 354 0 l 90 0 l 90 801 m 1074 1032 l 1331 1032 l 1331 832 l 1074 832 l 1074 1032 m 960 -96 q 1024 -92 1000 -96 q 1057 -79 1046 -87 q 1071 -57 1068 -71 q 1074 -25 1074 -40 l 1074 708 l 1331 708 l 1331 51 q 1316 -130 1331 -67 q 1263 -225 1301 -193 q 1156 -267 1224 -257 q 960 -276 1088 -276 l 960 -96 z "},"Ñ":{"ha":994,"x_min":90,"x_max":904,"o":"m 90 917 l 90 956 l 368 956 l 904 40 l 904 0 l 628 0 l 90 917 m 640 607 l 640 956 l 904 956 l 904 156 l 640 607 m 90 801 l 354 350 l 354 0 l 90 0 l 90 801 z "},"O":{"ha":969,"x_min":65,"x_max":904,"o":"m 621 478 q 619 636 621 599 q 604 719 617 693 q 564 750 592 744 q 485 754 536 754 q 407 749 425 754 l 407 965 q 444 967 419 967 l 485 967 q 726 942 640 967 q 850 863 811 918 q 895 728 886 811 q 904 478 904 644 q 898 253 904 332 q 867 124 892 175 q 781 35 839 65 q 621 -6 724 4 l 621 478 m 485 -11 q 193 33 282 -11 q 121 93 147 56 q 82 186 94 131 q 68 298 71 235 q 65 478 65 361 q 72 701 65 624 q 103 832 78 779 q 188 919 131 889 q 349 961 244 950 l 349 478 q 351 321 349 396 q 366 238 354 264 q 406 207 378 211 q 485 201 429 201 q 563 206 542 201 l 563 -10 q 525 -11 550 -11 l 485 -11 z "},"Ó":{"ha":969,"x_min":65,"x_max":904,"o":"m 621 478 q 619 636 621 599 q 604 719 617 693 q 564 750 592 744 q 485 754 536 754 q 407 749 425 754 l 407 965 q 444 967 419 967 l 485 967 q 726 942 640 967 q 850 863 811 918 q 895 728 886 811 q 904 478 904 644 q 898 253 904 332 q 867 124 892 175 q 781 35 839 65 q 621 -6 724 4 l 621 478 m 485 -11 q 193 33 282 -11 q 121 93 147 56 q 82 186 94 131 q 68 298 71 235 q 65 478 65 361 q 72 701 65 624 q 103 832 78 779 q 188 919 131 889 q 349 961 244 950 l 349 478 q 351 321 349 396 q 366 238 354 264 q 406 207 378 211 q 485 201 429 201 q 563 206 542 201 l 563 -10 q 525 -11 550 -11 l 485 -11 z "},"Ŏ":{"ha":969,"x_min":65,"x_max":904,"o":"m 621 478 q 619 636 621 599 q 604 719 617 693 q 564 750 592 744 q 485 754 536 754 q 407 749 425 754 l 407 965 q 444 967 419 967 l 485 967 q 726 942 640 967 q 850 863 811 918 q 895 728 886 811 q 904 478 904 644 q 898 253 904 332 q 867 124 892 175 q 781 35 839 65 q 621 -6 724 4 l 621 478 m 485 -11 q 193 33 282 -11 q 121 93 147 56 q 82 186 94 131 q 68 298 71 235 q 65 478 65 361 q 72 701 65 624 q 103 832 78 779 q 188 919 131 889 q 349 961 244 950 l 349 478 q 351 321 349 396 q 366 238 354 264 q 406 207 378 211 q 485 201 429 201 q 563 206 542 201 l 563 -10 q 525 -11 550 -11 l 485 -11 z "},"Ǒ":{"ha":969,"x_min":65,"x_max":904,"o":"m 621 478 q 619 636 621 599 q 604 719 617 693 q 564 750 592 744 q 485 754 536 754 q 407 749 425 754 l 407 965 q 444 967 419 967 l 485 967 q 726 942 640 967 q 850 863 811 918 q 895 728 886 811 q 904 478 904 644 q 898 253 904 332 q 867 124 892 175 q 781 35 839 65 q 621 -6 724 4 l 621 478 m 485 -11 q 193 33 282 -11 q 121 93 147 56 q 82 186 94 131 q 68 298 71 235 q 65 478 65 361 q 72 701 65 624 q 103 832 78 779 q 188 919 131 889 q 349 961 244 950 l 349 478 q 351 321 349 396 q 366 238 354 264 q 406 207 378 211 q 485 201 429 201 q 563 206 542 201 l 563 -10 q 525 -11 550 -11 l 485 -11 z "},"Ô":{"ha":969,"x_min":65,"x_max":904,"o":"m 621 478 q 619 636 621 599 q 604 719 617 693 q 564 750 592 744 q 485 754 536 754 q 407 749 425 754 l 407 965 q 444 967 419 967 l 485 967 q 726 942 640 967 q 850 863 811 918 q 895 728 886 811 q 904 478 904 644 q 898 253 904 332 q 867 124 892 175 q 781 35 839 65 q 621 -6 724 4 l 621 478 m 485 -11 q 193 33 282 -11 q 121 93 147 56 q 82 186 94 131 q 68 298 71 235 q 65 478 65 361 q 72 701 65 624 q 103 832 78 779 q 188 919 131 889 q 349 961 244 950 l 349 478 q 351 321 349 396 q 366 238 354 264 q 406 207 378 211 q 485 201 429 201 q 563 206 542 201 l 563 -10 q 525 -11 550 -11 l 485 -11 z "},"Ố":{"ha":969,"x_min":65,"x_max":904,"o":"m 621 478 q 619 636 621 599 q 604 719 617 693 q 564 750 592 744 q 485 754 536 754 q 407 749 425 754 l 407 965 q 444 967 419 967 l 485 967 q 726 942 640 967 q 850 863 811 918 q 895 728 886 811 q 904 478 904 644 q 898 253 904 332 q 867 124 892 175 q 781 35 839 65 q 621 -6 724 4 l 621 478 m 485 -11 q 193 33 282 -11 q 121 93 147 56 q 82 186 94 131 q 68 298 71 235 q 65 478 65 361 q 72 701 65 624 q 103 832 78 779 q 188 919 131 889 q 349 961 244 950 l 349 478 q 351 321 349 396 q 366 238 354 264 q 406 207 378 211 q 485 201 429 201 q 563 206 542 201 l 563 -10 q 525 -11 550 -11 l 485 -11 z "},"Ộ":{"ha":969,"x_min":65,"x_max":904,"o":"m 621 478 q 619 636 621 599 q 604 719 617 693 q 564 750 592 744 q 485 754 536 754 q 407 749 425 754 l 407 965 q 444 967 419 967 l 485 967 q 726 942 640 967 q 850 863 811 918 q 895 728 886 811 q 904 478 904 644 q 898 253 904 332 q 867 124 892 175 q 781 35 839 65 q 621 -6 724 4 l 621 478 m 485 -11 q 193 33 282 -11 q 121 93 147 56 q 82 186 94 131 q 68 298 71 235 q 65 478 65 361 q 72 701 65 624 q 103 832 78 779 q 188 919 131 889 q 349 961 244 950 l 349 478 q 351 321 349 396 q 366 238 354 264 q 406 207 378 211 q 485 201 429 201 q 563 206 542 201 l 563 -10 q 525 -11 550 -11 l 485 -11 z "},"Ồ":{"ha":969,"x_min":65,"x_max":904,"o":"m 621 478 q 619 636 621 599 q 604 719 617 693 q 564 750 592 744 q 485 754 536 754 q 407 749 425 754 l 407 965 q 444 967 419 967 l 485 967 q 726 942 640 967 q 850 863 811 918 q 895 728 886 811 q 904 478 904 644 q 898 253 904 332 q 867 124 892 175 q 781 35 839 65 q 621 -6 724 4 l 621 478 m 485 -11 q 193 33 282 -11 q 121 93 147 56 q 82 186 94 131 q 68 298 71 235 q 65 478 65 361 q 72 701 65 624 q 103 832 78 779 q 188 919 131 889 q 349 961 244 950 l 349 478 q 351 321 349 396 q 366 238 354 264 q 406 207 378 211 q 485 201 429 201 q 563 206 542 201 l 563 -10 q 525 -11 550 -11 l 485 -11 z "},"Ổ":{"ha":969,"x_min":65,"x_max":904,"o":"m 621 478 q 619 636 621 599 q 604 719 617 693 q 564 750 592 744 q 485 754 536 754 q 407 749 425 754 l 407 965 q 444 967 419 967 l 485 967 q 726 942 640 967 q 850 863 811 918 q 895 728 886 811 q 904 478 904 644 q 898 253 904 332 q 867 124 892 175 q 781 35 839 65 q 621 -6 724 4 l 621 478 m 485 -11 q 193 33 282 -11 q 121 93 147 56 q 82 186 94 131 q 68 298 71 235 q 65 478 65 361 q 72 701 65 624 q 103 832 78 779 q 188 919 131 889 q 349 961 244 950 l 349 478 q 351 321 349 396 q 366 238 354 264 q 406 207 378 211 q 485 201 429 201 q 563 206 542 201 l 563 -10 q 525 -11 550 -11 l 485 -11 z "},"Ỗ":{"ha":969,"x_min":65,"x_max":904,"o":"m 621 478 q 619 636 621 599 q 604 719 617 693 q 564 750 592 744 q 485 754 536 754 q 407 749 425 754 l 407 965 q 444 967 419 967 l 485 967 q 726 942 640 967 q 850 863 811 918 q 895 728 886 811 q 904 478 904 644 q 898 253 904 332 q 867 124 892 175 q 781 35 839 65 q 621 -6 724 4 l 621 478 m 485 -11 q 193 33 282 -11 q 121 93 147 56 q 82 186 94 131 q 68 298 71 235 q 65 478 65 361 q 72 701 65 624 q 103 832 78 779 q 188 919 131 889 q 349 961 244 950 l 349 478 q 351 321 349 396 q 366 238 354 264 q 406 207 378 211 q 485 201 429 201 q 563 206 542 201 l 563 -10 q 525 -11 550 -11 l 485 -11 z "},"Ȍ":{"ha":969,"x_min":65,"x_max":904,"o":"m 621 478 q 619 636 621 599 q 604 719 617 693 q 564 750 592 744 q 485 754 536 754 q 407 749 425 754 l 407 965 q 444 967 419 967 l 485 967 q 726 942 640 967 q 850 863 811 918 q 895 728 886 811 q 904 478 904 644 q 898 253 904 332 q 867 124 892 175 q 781 35 839 65 q 621 -6 724 4 l 621 478 m 485 -11 q 193 33 282 -11 q 121 93 147 56 q 82 186 94 131 q 68 298 71 235 q 65 478 65 361 q 72 701 65 624 q 103 832 78 779 q 188 919 131 889 q 349 961 244 950 l 349 478 q 351 321 349 396 q 366 238 354 264 q 406 207 378 211 q 485 201 429 201 q 563 206 542 201 l 563 -10 q 525 -11 550 -11 l 485 -11 z "},"Ö":{"ha":969,"x_min":65,"x_max":904,"o":"m 621 478 q 619 636 621 599 q 604 719 617 693 q 564 750 592 744 q 485 754 536 754 q 407 749 425 754 l 407 965 q 444 967 419 967 l 485 967 q 726 942 640 967 q 850 863 811 918 q 895 728 886 811 q 904 478 904 644 q 898 253 904 332 q 867 124 892 175 q 781 35 839 65 q 621 -6 724 4 l 621 478 m 485 -11 q 193 33 282 -11 q 121 93 147 56 q 82 186 94 131 q 68 298 71 235 q 65 478 65 361 q 72 701 65 624 q 103 832 78 779 q 188 919 131 889 q 349 961 244 950 l 349 478 q 351 321 349 396 q 366 238 354 264 q 406 207 378 211 q 485 201 429 201 q 563 206 542 201 l 563 -10 q 525 -11 550 -11 l 485 -11 z "},"Ȫ":{"ha":969,"x_min":65,"x_max":904,"o":"m 621 478 q 619 636 621 599 q 604 719 617 693 q 564 750 592 744 q 485 754 536 754 q 407 749 425 754 l 407 965 q 444 967 419 967 l 485 967 q 726 942 640 967 q 850 863 811 918 q 895 728 886 811 q 904 478 904 644 q 898 253 904 332 q 867 124 892 175 q 781 35 839 65 q 621 -6 724 4 l 621 478 m 485 -11 q 193 33 282 -11 q 121 93 147 56 q 82 186 94 131 q 68 298 71 235 q 65 478 65 361 q 72 701 65 624 q 103 832 78 779 q 188 919 131 889 q 349 961 244 950 l 349 478 q 351 321 349 396 q 366 238 354 264 q 406 207 378 211 q 485 201 429 201 q 563 206 542 201 l 563 -10 q 525 -11 550 -11 l 485 -11 z "},"Ȱ":{"ha":969,"x_min":65,"x_max":904,"o":"m 621 478 q 619 636 621 599 q 604 719 617 693 q 564 750 592 744 q 485 754 536 754 q 407 749 425 754 l 407 965 q 444 967 419 967 l 485 967 q 726 942 640 967 q 850 863 811 918 q 895 728 886 811 q 904 478 904 644 q 898 253 904 332 q 867 124 892 175 q 781 35 839 65 q 621 -6 724 4 l 621 478 m 485 -11 q 193 33 282 -11 q 121 93 147 56 q 82 186 94 131 q 68 298 71 235 q 65 478 65 361 q 72 701 65 624 q 103 832 78 779 q 188 919 131 889 q 349 961 244 950 l 349 478 q 351 321 349 396 q 366 238 354 264 q 406 207 378 211 q 485 201 429 201 q 563 206 542 201 l 563 -10 q 525 -11 550 -11 l 485 -11 z "},"Ọ":{"ha":969,"x_min":65,"x_max":904,"o":"m 621 478 q 619 636 621 599 q 604 719 617 693 q 564 750 592 744 q 485 754 536 754 q 407 749 425 754 l 407 965 q 444 967 419 967 l 485 967 q 726 942 640 967 q 850 863 811 918 q 895 728 886 811 q 904 478 904 644 q 898 253 904 332 q 867 124 892 175 q 781 35 839 65 q 621 -6 724 4 l 621 478 m 485 -11 q 193 33 282 -11 q 121 93 147 56 q 82 186 94 131 q 68 298 71 235 q 65 478 65 361 q 72 701 65 624 q 103 832 78 779 q 188 919 131 889 q 349 961 244 950 l 349 478 q 351 321 349 396 q 366 238 354 264 q 406 207 378 211 q 485 201 429 201 q 563 206 542 201 l 563 -10 q 525 -11 550 -11 l 485 -11 z "},"Ò":{"ha":969,"x_min":65,"x_max":904,"o":"m 621 478 q 619 636 621 599 q 604 719 617 693 q 564 750 592 744 q 485 754 536 754 q 407 749 425 754 l 407 965 q 444 967 419 967 l 485 967 q 726 942 640 967 q 850 863 811 918 q 895 728 886 811 q 904 478 904 644 q 898 253 904 332 q 867 124 892 175 q 781 35 839 65 q 621 -6 724 4 l 621 478 m 485 -11 q 193 33 282 -11 q 121 93 147 56 q 82 186 94 131 q 68 298 71 235 q 65 478 65 361 q 72 701 65 624 q 103 832 78 779 q 188 919 131 889 q 349 961 244 950 l 349 478 q 351 321 349 396 q 366 238 354 264 q 406 207 378 211 q 485 201 429 201 q 563 206 542 201 l 563 -10 q 525 -11 550 -11 l 485 -11 z "},"Ỏ":{"ha":969,"x_min":65,"x_max":904,"o":"m 621 478 q 619 636 621 599 q 604 719 617 693 q 564 750 592 744 q 485 754 536 754 q 407 749 425 754 l 407 965 q 444 967 419 967 l 485 967 q 726 942 640 967 q 850 863 811 918 q 895 728 886 811 q 904 478 904 644 q 898 253 904 332 q 867 124 892 175 q 781 35 839 65 q 621 -6 724 4 l 621 478 m 485 -11 q 193 33 282 -11 q 121 93 147 56 q 82 186 94 131 q 68 298 71 235 q 65 478 65 361 q 72 701 65 624 q 103 832 78 779 q 188 919 131 889 q 349 961 244 950 l 349 478 q 351 321 349 396 q 366 238 354 264 q 406 207 378 211 q 485 201 429 201 q 563 206 542 201 l 563 -10 q 525 -11 550 -11 l 485 -11 z "},"Ơ":{"ha":969,"x_min":65,"x_max":968,"o":"m 968 1029 q 960 942 968 978 q 929 879 951 906 q 865 836 904 850 q 897 706 890 785 q 904 478 904 626 q 898 253 904 332 q 867 124 892 175 q 781 35 839 65 q 621 -6 724 4 l 621 478 q 619 636 621 599 q 604 719 617 693 q 564 750 592 744 q 485 754 536 754 q 407 749 425 754 l 407 965 q 444 967 419 967 l 485 967 q 664 956 586 967 l 747 956 q 815 976 797 956 q 824 997 822 985 q 825 1029 825 1008 l 968 1029 m 406 207 q 485 201 429 201 q 563 206 542 201 l 563 -10 q 525 -11 550 -11 l 485 -11 q 193 33 282 -11 q 121 93 147 56 q 82 186 94 131 q 68 298 71 235 q 65 478 65 361 q 72 701 65 624 q 103 832 78 779 q 188 919 131 889 q 349 961 244 950 l 349 478 q 351 321 349 396 q 366 238 354 264 q 406 207 378 211 z "},"Ớ":{"ha":969,"x_min":65,"x_max":968,"o":"m 968 1029 q 960 942 968 978 q 929 879 951 906 q 865 836 904 850 q 897 706 890 785 q 904 478 904 626 q 898 253 904 332 q 867 124 892 175 q 781 35 839 65 q 621 -6 724 4 l 621 478 q 619 636 621 599 q 604 719 617 693 q 564 750 592 744 q 485 754 536 754 q 407 749 425 754 l 407 965 q 444 967 419 967 l 485 967 q 664 956 586 967 l 747 956 q 815 976 797 956 q 824 997 822 985 q 825 1029 825 1008 l 968 1029 m 406 207 q 485 201 429 201 q 563 206 542 201 l 563 -10 q 525 -11 550 -11 l 485 -11 q 193 33 282 -11 q 121 93 147 56 q 82 186 94 131 q 68 298 71 235 q 65 478 65 361 q 72 701 65 624 q 103 832 78 779 q 188 919 131 889 q 349 961 244 950 l 349 478 q 351 321 349 396 q 366 238 354 264 q 406 207 378 211 z "},"Ợ":{"ha":969,"x_min":65,"x_max":968,"o":"m 968 1029 q 960 942 968 978 q 929 879 951 906 q 865 836 904 850 q 897 706 890 785 q 904 478 904 626 q 898 253 904 332 q 867 124 892 175 q 781 35 839 65 q 621 -6 724 4 l 621 478 q 619 636 621 599 q 604 719 617 693 q 564 750 592 744 q 485 754 536 754 q 407 749 425 754 l 407 965 q 444 967 419 967 l 485 967 q 664 956 586 967 l 747 956 q 815 976 797 956 q 824 997 822 985 q 825 1029 825 1008 l 968 1029 m 406 207 q 485 201 429 201 q 563 206 542 201 l 563 -10 q 525 -11 550 -11 l 485 -11 q 193 33 282 -11 q 121 93 147 56 q 82 186 94 131 q 68 298 71 235 q 65 478 65 361 q 72 701 65 624 q 103 832 78 779 q 188 919 131 889 q 349 961 244 950 l 349 478 q 351 321 349 396 q 366 238 354 264 q 406 207 378 211 z "},"Ờ":{"ha":969,"x_min":65,"x_max":968,"o":"m 968 1029 q 960 942 968 978 q 929 879 951 906 q 865 836 904 850 q 897 706 890 785 q 904 478 904 626 q 898 253 904 332 q 867 124 892 175 q 781 35 839 65 q 621 -6 724 4 l 621 478 q 619 636 621 599 q 604 719 617 693 q 564 750 592 744 q 485 754 536 754 q 407 749 425 754 l 407 965 q 444 967 419 967 l 485 967 q 664 956 586 967 l 747 956 q 815 976 797 956 q 824 997 822 985 q 825 1029 825 1008 l 968 1029 m 406 207 q 485 201 429 201 q 563 206 542 201 l 563 -10 q 525 -11 550 -11 l 485 -11 q 193 33 282 -11 q 121 93 147 56 q 82 186 94 131 q 68 298 71 235 q 65 478 65 361 q 72 701 65 624 q 103 832 78 779 q 188 919 131 889 q 349 961 244 950 l 349 478 q 351 321 349 396 q 366 238 354 264 q 406 207 378 211 z "},"Ở":{"ha":969,"x_min":65,"x_max":968,"o":"m 968 1029 q 960 942 968 978 q 929 879 951 906 q 865 836 904 850 q 897 706 890 785 q 904 478 904 626 q 898 253 904 332 q 867 124 892 175 q 781 35 839 65 q 621 -6 724 4 l 621 478 q 619 636 621 599 q 604 719 617 693 q 564 750 592 744 q 485 754 536 754 q 407 749 425 754 l 407 965 q 444 967 419 967 l 485 967 q 664 956 586 967 l 747 956 q 815 976 797 956 q 824 997 822 985 q 825 1029 825 1008 l 968 1029 m 406 207 q 485 201 429 201 q 563 206 542 201 l 563 -10 q 525 -11 550 -11 l 485 -11 q 193 33 282 -11 q 121 93 147 56 q 82 186 94 131 q 68 298 71 235 q 65 478 65 361 q 72 701 65 624 q 103 832 78 779 q 188 919 131 889 q 349 961 244 950 l 349 478 q 351 321 349 396 q 366 238 354 264 q 406 207 378 211 z "},"Ỡ":{"ha":969,"x_min":65,"x_max":968,"o":"m 968 1029 q 960 942 968 978 q 929 879 951 906 q 865 836 904 850 q 897 706 890 785 q 904 478 904 626 q 898 253 904 332 q 867 124 892 175 q 781 35 839 65 q 621 -6 724 4 l 621 478 q 619 636 621 599 q 604 719 617 693 q 564 750 592 744 q 485 754 536 754 q 407 749 425 754 l 407 965 q 444 967 419 967 l 485 967 q 664 956 586 967 l 747 956 q 815 976 797 956 q 824 997 822 985 q 825 1029 825 1008 l 968 1029 m 406 207 q 485 201 429 201 q 563 206 542 201 l 563 -10 q 525 -11 550 -11 l 485 -11 q 193 33 282 -11 q 121 93 147 56 q 82 186 94 131 q 68 298 71 235 q 65 478 65 361 q 72 701 65 624 q 103 832 78 779 q 188 919 131 889 q 349 961 244 950 l 349 478 q 351 321 349 396 q 366 238 354 264 q 406 207 378 211 z "},"Ő":{"ha":969,"x_min":65,"x_max":904,"o":"m 621 478 q 619 636 621 599 q 604 719 617 693 q 564 750 592 744 q 485 754 536 754 q 407 749 425 754 l 407 965 q 444 967 419 967 l 485 967 q 726 942 640 967 q 850 863 811 918 q 895 728 886 811 q 904 478 904 644 q 898 253 904 332 q 867 124 892 175 q 781 35 839 65 q 621 -6 724 4 l 621 478 m 485 -11 q 193 33 282 -11 q 121 93 147 56 q 82 186 94 131 q 68 298 71 235 q 65 478 65 361 q 72 701 65 624 q 103 832 78 779 q 188 919 131 889 q 349 961 244 950 l 349 478 q 351 321 349 396 q 366 238 354 264 q 406 207 378 211 q 485 201 429 201 q 563 206 542 201 l 563 -10 q 525 -11 550 -11 l 485 -11 z "},"Ȏ":{"ha":969,"x_min":65,"x_max":904,"o":"m 621 478 q 619 636 621 599 q 604 719 617 693 q 564 750 592 744 q 485 754 536 754 q 407 749 425 754 l 407 965 q 444 967 419 967 l 485 967 q 726 942 640 967 q 850 863 811 918 q 895 728 886 811 q 904 478 904 644 q 898 253 904 332 q 867 124 892 175 q 781 35 839 65 q 621 -6 724 4 l 621 478 m 485 -11 q 193 33 282 -11 q 121 93 147 56 q 82 186 94 131 q 68 298 71 235 q 65 478 65 361 q 72 701 65 624 q 103 832 78 779 q 188 919 131 889 q 349 961 244 950 l 349 478 q 351 321 349 396 q 366 238 354 264 q 406 207 378 211 q 485 201 429 201 q 563 206 542 201 l 563 -10 q 525 -11 550 -11 l 485 -11 z "},"Ō":{"ha":969,"x_min":65,"x_max":904,"o":"m 621 478 q 619 636 621 599 q 604 719 617 693 q 564 750 592 744 q 485 754 536 754 q 407 749 425 754 l 407 965 q 444 967 419 967 l 485 967 q 726 942 640 967 q 850 863 811 918 q 895 728 886 811 q 904 478 904 644 q 898 253 904 332 q 867 124 892 175 q 781 35 839 65 q 621 -6 724 4 l 621 478 m 485 -11 q 193 33 282 -11 q 121 93 147 56 q 82 186 94 131 q 68 298 71 235 q 65 478 65 361 q 72 701 65 624 q 103 832 78 779 q 188 919 131 889 q 349 961 244 950 l 349 478 q 351 321 349 396 q 366 238 354 264 q 406 207 378 211 q 485 201 429 201 q 563 206 542 201 l 563 -10 q 525 -11 550 -11 l 485 -11 z "},"Ǫ":{"ha":969,"x_min":65,"x_max":904,"o":"m 563 749 q 485 754 544 754 q 406 750 432 754 q 365 719 378 744 q 350 636 353 693 q 349 478 349 599 l 349 -6 q 188 35 246 4 q 103 124 131 65 q 72 253 78 175 q 65 478 65 332 q 74 728 65 644 q 119 863 83 811 q 244 942 158 918 q 485 967 329 967 l 525 967 q 563 965 550 967 l 563 749 m 867 832 q 898 701 892 779 q 904 478 904 624 q 901 298 904 361 q 888 186 899 235 q 849 93 875 131 q 776 33 822 56 q 732 15 757 24 q 648 -33 679 -3 q 617 -97 617 -64 q 631 -132 617 -119 q 682 -144 644 -144 l 697 -144 q 706 -143 703 -144 l 706 -267 l 672 -269 q 601 -272 631 -272 q 456 -236 501 -272 q 417 -150 417 -206 q 434 -82 417 -119 q 479 -11 451 -44 l 444 -11 q 407 -10 419 -11 l 407 206 q 485 201 428 201 q 564 207 540 201 q 603 238 592 211 q 618 321 615 264 q 621 478 621 396 l 621 961 q 782 919 725 950 q 867 832 839 889 z "},"Ø":{"ha":969,"x_min":65,"x_max":906,"o":"m 828 889 q 850 863 840 876 q 895 728 886 811 q 904 478 904 644 q 898 253 904 332 q 867 124 892 175 q 781 35 839 65 q 621 -6 724 4 l 621 478 q 619 636 621 599 q 604 719 617 693 q 564 750 592 744 q 485 754 536 754 q 407 749 425 754 l 407 965 q 444 967 419 967 l 485 967 q 643 958 576 967 l 682 1029 l 906 1029 l 828 889 m 406 207 q 485 201 429 201 q 563 206 542 201 l 563 -10 q 525 -11 550 -11 l 485 -11 q 333 -3 399 -11 l 289 -79 l 67 -79 l 147 64 q 82 186 101 106 q 68 298 71 235 q 65 478 65 361 q 72 701 65 624 q 103 832 78 779 q 188 919 131 889 q 349 961 244 950 l 349 478 q 351 321 349 396 q 366 238 354 264 q 406 207 378 211 z "},"Ǿ":{"ha":969,"x_min":65,"x_max":906,"o":"m 828 889 q 850 863 840 876 q 895 728 886 811 q 904 478 904 644 q 898 253 904 332 q 867 124 892 175 q 781 35 839 65 q 621 -6 724 4 l 621 478 q 619 636 621 599 q 604 719 617 693 q 564 750 592 744 q 485 754 536 754 q 407 749 425 754 l 407 965 q 444 967 419 967 l 485 967 q 643 958 576 967 l 682 1029 l 906 1029 l 828 889 m 406 207 q 485 201 429 201 q 563 206 542 201 l 563 -10 q 525 -11 550 -11 l 485 -11 q 333 -3 399 -11 l 289 -79 l 67 -79 l 147 64 q 82 186 101 106 q 68 298 71 235 q 65 478 65 361 q 72 701 65 624 q 103 832 78 779 q 188 919 131 889 q 349 961 244 950 l 349 478 q 351 321 349 396 q 366 238 354 264 q 406 207 378 211 z "},"Õ":{"ha":969,"x_min":65,"x_max":904,"o":"m 621 478 q 619 636 621 599 q 604 719 617 693 q 564 750 592 744 q 485 754 536 754 q 407 749 425 754 l 407 965 q 444 967 419 967 l 485 967 q 726 942 640 967 q 850 863 811 918 q 895 728 886 811 q 904 478 904 644 q 898 253 904 332 q 867 124 892 175 q 781 35 839 65 q 621 -6 724 4 l 621 478 m 485 -11 q 193 33 282 -11 q 121 93 147 56 q 82 186 94 131 q 68 298 71 235 q 65 478 65 361 q 72 701 65 624 q 103 832 78 779 q 188 919 131 889 q 349 961 244 950 l 349 478 q 351 321 349 396 q 366 238 354 264 q 406 207 378 211 q 485 201 429 201 q 563 206 542 201 l 563 -10 q 525 -11 550 -11 l 485 -11 z "},"Ȭ":{"ha":969,"x_min":65,"x_max":904,"o":"m 621 478 q 619 636 621 599 q 604 719 617 693 q 564 750 592 744 q 485 754 536 754 q 407 749 425 754 l 407 965 q 444 967 419 967 l 485 967 q 726 942 640 967 q 850 863 811 918 q 895 728 886 811 q 904 478 904 644 q 898 253 904 332 q 867 124 892 175 q 781 35 839 65 q 621 -6 724 4 l 621 478 m 485 -11 q 193 33 282 -11 q 121 93 147 56 q 82 186 94 131 q 68 298 71 235 q 65 478 65 361 q 72 701 65 624 q 103 832 78 779 q 188 919 131 889 q 349 961 244 950 l 349 478 q 351 321 349 396 q 366 238 354 264 q 406 207 378 211 q 485 201 429 201 q 563 206 542 201 l 563 -10 q 525 -11 550 -11 l 485 -11 z "},"Œ":{"ha":1432,"x_min":65,"x_max":1356,"o":"m 621 478 q 619 629 621 593 q 604 708 617 683 q 564 739 592 733 q 485 743 536 743 q 407 738 431 743 l 407 954 q 444 956 419 956 l 485 956 q 725 932 639 956 q 850 853 811 908 q 895 722 886 803 q 904 478 904 642 q 898 259 904 335 q 867 132 892 183 q 781 45 839 75 q 621 6 724 15 l 621 478 m 953 743 q 914 874 940 824 q 836 956 888 925 l 1356 956 l 1356 743 l 953 743 m 485 0 q 245 24 331 0 q 121 103 160 47 q 75 235 85 153 q 65 478 65 317 q 72 697 65 621 q 103 824 78 772 q 187 909 129 879 q 349 950 244 939 l 349 478 q 351 328 349 397 q 366 247 354 272 q 406 218 378 222 q 485 213 429 213 q 563 217 542 213 l 563 1 q 539 0 556 0 l 485 0 m 961 376 q 963 425 963 392 l 963 478 l 963 535 q 961 589 963 571 l 1290 589 l 1290 376 l 961 376 m 836 0 q 915 81 889 31 q 953 213 940 131 l 1356 213 l 1356 0 l 836 0 z "},"P":{"ha":896,"x_min":90,"x_max":861,"o":"m 90 956 l 368 956 l 368 0 l 90 0 l 90 956 m 426 510 l 460 510 q 526 513 504 510 q 560 529 547 517 q 576 562 572 540 q 579 626 579 583 q 576 691 579 669 q 560 725 572 713 q 525 740 547 736 q 460 743 503 743 l 426 743 l 426 956 l 542 956 q 709 935 644 956 q 807 874 774 915 q 850 776 839 835 q 861 626 861 717 q 851 483 861 540 q 810 388 840 426 q 710 320 775 343 q 542 297 646 297 l 426 297 l 426 510 z "},"Þ":{"ha":896,"x_min":90,"x_max":861,"o":"m 90 956 l 368 956 l 368 0 l 90 0 l 90 956 m 426 372 l 460 372 q 526 376 504 372 q 560 392 547 379 q 576 424 572 403 q 579 489 579 446 q 576 553 579 532 q 560 588 572 575 q 525 602 547 599 q 460 606 503 606 l 426 606 l 426 818 l 542 818 q 709 798 644 818 q 807 736 774 778 q 850 638 839 697 q 861 489 861 579 q 851 346 861 403 q 810 250 840 289 q 710 183 775 206 q 542 160 646 160 l 426 160 l 426 372 z "},"Q":{"ha":969,"x_min":65,"x_max":1022,"o":"m 621 -3 l 621 478 q 619 636 621 599 q 604 719 617 693 q 564 750 592 744 q 485 754 536 754 q 407 749 425 754 l 407 965 q 444 967 419 967 l 485 967 q 726 942 640 967 q 850 863 811 918 q 895 728 886 811 q 904 478 904 644 q 892 240 904 326 q 839 96 881 153 l 1022 -151 l 1022 -160 l 711 -160 l 621 -3 m 485 -11 q 193 33 282 -11 q 121 93 147 56 q 82 186 94 131 q 68 298 71 235 q 65 478 65 361 q 72 701 65 624 q 103 832 78 779 q 188 919 131 889 q 349 961 244 950 l 349 478 q 351 321 349 396 q 366 238 354 264 q 406 207 378 211 q 485 201 429 201 q 563 206 542 201 l 563 -8 q 485 -11 510 -11 z "},"R":{"ha":936,"x_min":90,"x_max":896,"o":"m 90 956 l 368 956 l 368 0 l 90 0 l 90 956 m 482 325 l 426 325 l 426 538 l 474 538 q 539 541 517 538 q 574 554 561 544 q 589 583 585 564 q 593 640 593 603 q 589 698 593 678 q 574 728 585 718 q 541 740 563 738 q 474 743 519 743 l 426 743 l 426 956 l 569 956 q 729 936 668 956 q 824 876 790 917 q 865 783 854 839 q 875 640 875 728 q 854 467 875 528 q 751 357 825 389 l 896 0 l 604 0 l 482 325 z "},"Ŕ":{"ha":936,"x_min":90,"x_max":896,"o":"m 90 956 l 368 956 l 368 0 l 90 0 l 90 956 m 482 325 l 426 325 l 426 538 l 474 538 q 539 541 517 538 q 574 554 561 544 q 589 583 585 564 q 593 640 593 603 q 589 698 593 678 q 574 728 585 718 q 541 740 563 738 q 474 743 519 743 l 426 743 l 426 956 l 569 956 q 729 936 668 956 q 824 876 790 917 q 865 783 854 839 q 875 640 875 728 q 854 467 875 528 q 751 357 825 389 l 896 0 l 604 0 l 482 325 z "},"Ř":{"ha":936,"x_min":90,"x_max":896,"o":"m 90 956 l 368 956 l 368 0 l 90 0 l 90 956 m 482 325 l 426 325 l 426 538 l 474 538 q 539 541 517 538 q 574 554 561 544 q 589 583 585 564 q 593 640 593 603 q 589 698 593 678 q 574 728 585 718 q 541 740 563 738 q 474 743 519 743 l 426 743 l 426 956 l 569 956 q 729 936 668 956 q 824 876 790 917 q 865 783 854 839 q 875 640 875 728 q 854 467 875 528 q 751 357 825 389 l 896 0 l 604 0 l 482 325 z "},"Ŗ":{"ha":936,"x_min":90,"x_max":896,"o":"m 90 956 l 368 956 l 368 0 l 90 0 l 90 956 m 482 325 l 426 325 l 426 538 l 474 538 q 539 541 517 538 q 574 554 561 544 q 589 583 585 564 q 593 640 593 603 q 589 698 593 678 q 574 728 585 718 q 541 740 563 738 q 474 743 519 743 l 426 743 l 426 956 l 569 956 q 729 936 668 956 q 824 876 790 917 q 865 783 854 839 q 875 640 875 728 q 854 467 875 528 q 751 357 825 389 l 896 0 l 604 0 l 482 325 z "},"Ȑ":{"ha":936,"x_min":90,"x_max":896,"o":"m 90 956 l 368 956 l 368 0 l 90 0 l 90 956 m 482 325 l 426 325 l 426 538 l 474 538 q 539 541 517 538 q 574 554 561 544 q 589 583 585 564 q 593 640 593 603 q 589 698 593 678 q 574 728 585 718 q 541 740 563 738 q 474 743 519 743 l 426 743 l 426 956 l 569 956 q 729 936 668 956 q 824 876 790 917 q 865 783 854 839 q 875 640 875 728 q 854 467 875 528 q 751 357 825 389 l 896 0 l 604 0 l 482 325 z "},"Ȓ":{"ha":936,"x_min":90,"x_max":896,"o":"m 90 956 l 368 956 l 368 0 l 90 0 l 90 956 m 482 325 l 426 325 l 426 538 l 474 538 q 539 541 517 538 q 574 554 561 544 q 589 583 585 564 q 593 640 593 603 q 589 698 593 678 q 574 728 585 718 q 541 740 563 738 q 474 743 519 743 l 426 743 l 426 956 l 569 956 q 729 936 668 956 q 824 876 790 917 q 865 783 854 839 q 875 640 875 728 q 854 467 875 528 q 751 357 825 389 l 896 0 l 604 0 l 482 325 z "},"S":{"ha":850,"x_min":53,"x_max":797,"o":"m 749 736 q 588 751 703 742 q 485 754 524 754 q 390 751 435 754 l 390 967 l 425 967 q 661 951 539 967 q 749 936 700 946 l 749 736 m 519 282 q 515 324 519 311 q 501 342 511 338 q 468 350 492 347 l 297 371 q 93 469 146 388 q 61 554 69 504 q 53 676 53 604 q 132 899 53 831 q 332 964 196 954 l 332 685 q 333 654 332 667 q 339 635 335 642 q 353 623 343 626 q 382 618 363 619 l 574 594 q 671 574 633 586 q 735 535 708 561 q 797 303 797 469 q 719 56 797 126 q 635 9 685 24 q 519 -10 586 -6 l 519 282 m 446 -11 q 188 1 307 -11 q 81 15 117 8 l 81 218 q 268 204 163 211 q 363 201 335 201 q 461 206 438 201 l 461 -11 l 446 -11 z "},"Ś":{"ha":850,"x_min":53,"x_max":797,"o":"m 749 736 q 588 751 703 742 q 485 754 524 754 q 390 751 435 754 l 390 967 l 425 967 q 661 951 539 967 q 749 936 700 946 l 749 736 m 519 282 q 515 324 519 311 q 501 342 511 338 q 468 350 492 347 l 297 371 q 93 469 146 388 q 61 554 69 504 q 53 676 53 604 q 132 899 53 831 q 332 964 196 954 l 332 685 q 333 654 332 667 q 339 635 335 642 q 353 623 343 626 q 382 618 363 619 l 574 594 q 671 574 633 586 q 735 535 708 561 q 797 303 797 469 q 719 56 797 126 q 635 9 685 24 q 519 -10 586 -6 l 519 282 m 446 -11 q 188 1 307 -11 q 81 15 117 8 l 81 218 q 268 204 163 211 q 363 201 335 201 q 461 206 438 201 l 461 -11 l 446 -11 z "},"Š":{"ha":850,"x_min":53,"x_max":797,"o":"m 749 736 q 588 751 703 742 q 485 754 524 754 q 390 751 435 754 l 390 967 l 425 967 q 661 951 539 967 q 749 936 700 946 l 749 736 m 519 282 q 515 324 519 311 q 501 342 511 338 q 468 350 492 347 l 297 371 q 93 469 146 388 q 61 554 69 504 q 53 676 53 604 q 132 899 53 831 q 332 964 196 954 l 332 685 q 333 654 332 667 q 339 635 335 642 q 353 623 343 626 q 382 618 363 619 l 574 594 q 671 574 633 586 q 735 535 708 561 q 797 303 797 469 q 719 56 797 126 q 635 9 685 24 q 519 -10 586 -6 l 519 282 m 446 -11 q 188 1 307 -11 q 81 15 117 8 l 81 218 q 268 204 163 211 q 363 201 335 201 q 461 206 438 201 l 461 -11 l 446 -11 z "},"Ş":{"ha":850,"x_min":53,"x_max":797,"o":"m 749 736 q 588 751 703 742 q 485 754 524 754 q 390 751 435 754 l 390 967 l 425 967 q 661 951 539 967 q 749 936 700 946 l 749 736 m 519 282 q 515 324 519 311 q 501 342 511 338 q 468 350 492 347 l 297 371 q 93 469 146 388 q 61 554 69 504 q 53 676 53 604 q 132 899 53 831 q 332 964 196 954 l 332 685 q 333 654 332 667 q 339 635 335 642 q 353 623 343 626 q 382 618 363 619 l 574 594 q 671 574 633 586 q 735 535 708 561 q 797 303 797 469 q 719 56 797 126 q 635 9 685 24 q 519 -10 586 -6 l 519 282 m 446 -11 q 188 1 307 -11 q 81 15 117 8 l 81 218 q 268 204 163 211 q 363 201 335 201 q 461 206 438 201 l 461 -11 l 446 -11 z "},"Ŝ":{"ha":850,"x_min":53,"x_max":797,"o":"m 749 736 q 588 751 703 742 q 485 754 524 754 q 390 751 435 754 l 390 967 l 425 967 q 661 951 539 967 q 749 936 700 946 l 749 736 m 519 282 q 515 324 519 311 q 501 342 511 338 q 468 350 492 347 l 297 371 q 93 469 146 388 q 61 554 69 504 q 53 676 53 604 q 132 899 53 831 q 332 964 196 954 l 332 685 q 333 654 332 667 q 339 635 335 642 q 353 623 343 626 q 382 618 363 619 l 574 594 q 671 574 633 586 q 735 535 708 561 q 797 303 797 469 q 719 56 797 126 q 635 9 685 24 q 519 -10 586 -6 l 519 282 m 446 -11 q 188 1 307 -11 q 81 15 117 8 l 81 218 q 268 204 163 211 q 363 201 335 201 q 461 206 438 201 l 461 -11 l 446 -11 z "},"Ș":{"ha":850,"x_min":53,"x_max":797,"o":"m 749 736 q 588 751 703 742 q 485 754 524 754 q 390 751 435 754 l 390 967 l 425 967 q 661 951 539 967 q 749 936 700 946 l 749 736 m 519 282 q 515 324 519 311 q 501 342 511 338 q 468 350 492 347 l 297 371 q 93 469 146 388 q 61 554 69 504 q 53 676 53 604 q 132 899 53 831 q 332 964 196 954 l 332 685 q 333 654 332 667 q 339 635 335 642 q 353 623 343 626 q 382 618 363 619 l 574 594 q 671 574 633 586 q 735 535 708 561 q 797 303 797 469 q 719 56 797 126 q 635 9 685 24 q 519 -10 586 -6 l 519 282 m 446 -11 q 188 1 307 -11 q 81 15 117 8 l 81 218 q 268 204 163 211 q 363 201 335 201 q 461 206 438 201 l 461 -11 l 446 -11 z "},"Ṣ":{"ha":850,"x_min":53,"x_max":797,"o":"m 749 736 q 588 751 703 742 q 485 754 524 754 q 390 751 435 754 l 390 967 l 425 967 q 661 951 539 967 q 749 936 700 946 l 749 736 m 519 282 q 515 324 519 311 q 501 342 511 338 q 468 350 492 347 l 297 371 q 93 469 146 388 q 61 554 69 504 q 53 676 53 604 q 132 899 53 831 q 332 964 196 954 l 332 685 q 333 654 332 667 q 339 635 335 642 q 353 623 343 626 q 382 618 363 619 l 574 594 q 671 574 633 586 q 735 535 708 561 q 797 303 797 469 q 719 56 797 126 q 635 9 685 24 q 519 -10 586 -6 l 519 282 m 446 -11 q 188 1 307 -11 q 81 15 117 8 l 81 218 q 268 204 163 211 q 363 201 335 201 q 461 206 438 201 l 461 -11 l 446 -11 z "},"ẞ":{"ha":1069,"x_min":82,"x_max":1008,"o":"m 82 456 q 110 777 82 674 q 226 924 139 881 q 499 967 313 967 q 750 950 613 967 l 575 753 l 549 753 q 420 734 456 753 q 376 660 385 715 q 367 456 367 604 l 367 0 l 82 0 l 82 456 m 722 286 q 713 347 722 328 q 681 372 704 365 q 611 378 658 378 l 483 378 l 483 560 l 821 942 l 961 918 l 961 738 l 771 524 q 906 488 854 515 q 983 404 957 460 q 1008 256 1008 349 q 945 69 1008 133 q 722 -8 882 4 l 722 286 m 646 -11 q 546 -2 601 -11 q 450 19 490 7 l 450 219 q 596 203 536 203 q 665 206 647 203 l 665 -11 l 646 -11 z "},"Ə":{"ha":969,"x_min":65,"x_max":904,"o":"m 850 863 q 895 728 886 811 q 904 478 904 644 q 898 253 904 332 q 867 124 892 175 q 781 35 839 65 q 621 -6 724 4 l 621 478 q 619 636 621 599 q 605 717 618 692 q 564 750 592 743 q 374 761 526 758 q 104 750 226 761 l 104 940 q 429 967 208 967 l 485 967 q 726 942 640 967 q 850 863 811 918 m 565 315 l 351 315 q 367 236 354 261 q 406 207 379 211 q 485 201 429 201 q 563 206 542 201 l 563 -10 q 525 -11 550 -11 l 485 -11 q 193 33 282 -11 q 121 93 147 56 q 82 186 94 131 q 68 303 71 235 q 65 492 65 372 l 565 492 l 565 315 z "},"T":{"ha":807,"x_min":13,"x_max":794,"o":"m 13 956 l 794 956 l 794 733 l 13 733 l 13 956 m 264 678 l 542 678 l 542 0 l 264 0 l 264 678 z "},"Ŧ":{"ha":807,"x_min":13,"x_max":794,"o":"m 794 956 l 794 733 l 13 733 l 13 956 l 794 956 m 542 510 l 653 510 l 653 303 l 542 303 l 542 0 l 264 0 l 264 303 l 151 303 l 151 510 l 264 510 l 264 678 l 542 678 l 542 510 z "},"Ť":{"ha":807,"x_min":13,"x_max":794,"o":"m 13 956 l 794 956 l 794 733 l 13 733 l 13 956 m 264 678 l 542 678 l 542 0 l 264 0 l 264 678 z "},"Ţ":{"ha":807,"x_min":13,"x_max":794,"o":"m 13 956 l 794 956 l 794 733 l 13 733 l 13 956 m 264 678 l 542 678 l 542 0 l 264 0 l 264 678 z "},"Ț":{"ha":807,"x_min":13,"x_max":794,"o":"m 13 956 l 794 956 l 794 733 l 13 733 l 13 956 m 264 678 l 542 678 l 542 0 l 264 0 l 264 678 z "},"Ṭ":{"ha":807,"x_min":13,"x_max":794,"o":"m 13 956 l 794 956 l 794 733 l 13 733 l 13 956 m 264 678 l 542 678 l 542 0 l 264 0 l 264 678 z "},"U":{"ha":958,"x_min":86,"x_max":872,"o":"m 479 -11 q 254 13 333 -11 q 138 89 175 36 q 94 213 103 138 q 86 436 86 288 l 86 956 l 364 956 l 364 381 q 367 282 364 329 q 379 228 369 244 q 413 207 389 211 q 479 201 433 201 l 511 201 q 536 204 522 201 l 536 -10 q 508 -11 526 -11 l 479 -11 m 594 956 l 872 956 l 872 436 q 867 231 872 300 q 836 114 861 161 q 751 31 808 60 q 594 -7 694 1 l 594 956 z "},"Ú":{"ha":958,"x_min":86,"x_max":872,"o":"m 479 -11 q 254 13 333 -11 q 138 89 175 36 q 94 213 103 138 q 86 436 86 288 l 86 956 l 364 956 l 364 381 q 367 282 364 329 q 379 228 369 244 q 413 207 389 211 q 479 201 433 201 l 511 201 q 536 204 522 201 l 536 -10 q 508 -11 526 -11 l 479 -11 m 594 956 l 872 956 l 872 436 q 867 231 872 300 q 836 114 861 161 q 751 31 808 60 q 594 -7 694 1 l 594 956 z "},"Ŭ":{"ha":958,"x_min":86,"x_max":872,"o":"m 479 -11 q 254 13 333 -11 q 138 89 175 36 q 94 213 103 138 q 86 436 86 288 l 86 956 l 364 956 l 364 381 q 367 282 364 329 q 379 228 369 244 q 413 207 389 211 q 479 201 433 201 l 511 201 q 536 204 522 201 l 536 -10 q 508 -11 526 -11 l 479 -11 m 594 956 l 872 956 l 872 436 q 867 231 872 300 q 836 114 861 161 q 751 31 808 60 q 594 -7 694 1 l 594 956 z "},"Ǔ":{"ha":958,"x_min":86,"x_max":872,"o":"m 479 -11 q 254 13 333 -11 q 138 89 175 36 q 94 213 103 138 q 86 436 86 288 l 86 956 l 364 956 l 364 381 q 367 282 364 329 q 379 228 369 244 q 413 207 389 211 q 479 201 433 201 l 511 201 q 536 204 522 201 l 536 -10 q 508 -11 526 -11 l 479 -11 m 594 956 l 872 956 l 872 436 q 867 231 872 300 q 836 114 861 161 q 751 31 808 60 q 594 -7 694 1 l 594 956 z "},"Û":{"ha":958,"x_min":86,"x_max":872,"o":"m 479 -11 q 254 13 333 -11 q 138 89 175 36 q 94 213 103 138 q 86 436 86 288 l 86 956 l 364 956 l 364 381 q 367 282 364 329 q 379 228 369 244 q 413 207 389 211 q 479 201 433 201 l 511 201 q 536 204 522 201 l 536 -10 q 508 -11 526 -11 l 479 -11 m 594 956 l 872 956 l 872 436 q 867 231 872 300 q 836 114 861 161 q 751 31 808 60 q 594 -7 694 1 l 594 956 z "},"Ȕ":{"ha":958,"x_min":86,"x_max":872,"o":"m 479 -11 q 254 13 333 -11 q 138 89 175 36 q 94 213 103 138 q 86 436 86 288 l 86 956 l 364 956 l 364 381 q 367 282 364 329 q 379 228 369 244 q 413 207 389 211 q 479 201 433 201 l 511 201 q 536 204 522 201 l 536 -10 q 508 -11 526 -11 l 479 -11 m 594 956 l 872 956 l 872 436 q 867 231 872 300 q 836 114 861 161 q 751 31 808 60 q 594 -7 694 1 l 594 956 z "},"Ü":{"ha":958,"x_min":86,"x_max":872,"o":"m 479 -11 q 254 13 333 -11 q 138 89 175 36 q 94 213 103 138 q 86 436 86 288 l 86 956 l 364 956 l 364 381 q 367 282 364 329 q 379 228 369 244 q 413 207 389 211 q 479 201 433 201 l 511 201 q 536 204 522 201 l 536 -10 q 508 -11 526 -11 l 479 -11 m 594 956 l 872 956 l 872 436 q 867 231 872 300 q 836 114 861 161 q 751 31 808 60 q 594 -7 694 1 l 594 956 z "},"Ǘ":{"ha":958,"x_min":86,"x_max":872,"o":"m 479 -11 q 254 13 333 -11 q 138 89 175 36 q 94 213 103 138 q 86 436 86 288 l 86 956 l 364 956 l 364 381 q 367 282 364 329 q 379 228 369 244 q 413 207 389 211 q 479 201 433 201 l 511 201 q 536 204 522 201 l 536 -10 q 508 -11 526 -11 l 479 -11 m 594 956 l 872 956 l 872 436 q 867 231 872 300 q 836 114 861 161 q 751 31 808 60 q 594 -7 694 1 l 594 956 z "},"Ǚ":{"ha":958,"x_min":86,"x_max":872,"o":"m 479 -11 q 254 13 333 -11 q 138 89 175 36 q 94 213 103 138 q 86 436 86 288 l 86 956 l 364 956 l 364 381 q 367 282 364 329 q 379 228 369 244 q 413 207 389 211 q 479 201 433 201 l 511 201 q 536 204 522 201 l 536 -10 q 508 -11 526 -11 l 479 -11 m 594 956 l 872 956 l 872 436 q 867 231 872 300 q 836 114 861 161 q 751 31 808 60 q 594 -7 694 1 l 594 956 z "},"Ǜ":{"ha":958,"x_min":86,"x_max":872,"o":"m 479 -11 q 254 13 333 -11 q 138 89 175 36 q 94 213 103 138 q 86 436 86 288 l 86 956 l 364 956 l 364 381 q 367 282 364 329 q 379 228 369 244 q 413 207 389 211 q 479 201 433 201 l 511 201 q 536 204 522 201 l 536 -10 q 508 -11 526 -11 l 479 -11 m 594 956 l 872 956 l 872 436 q 867 231 872 300 q 836 114 861 161 q 751 31 808 60 q 594 -7 694 1 l 594 956 z "},"Ǖ":{"ha":958,"x_min":86,"x_max":872,"o":"m 479 -11 q 254 13 333 -11 q 138 89 175 36 q 94 213 103 138 q 86 436 86 288 l 86 956 l 364 956 l 364 381 q 367 282 364 329 q 379 228 369 244 q 413 207 389 211 q 479 201 433 201 l 511 201 q 536 204 522 201 l 536 -10 q 508 -11 526 -11 l 479 -11 m 594 956 l 872 956 l 872 436 q 867 231 872 300 q 836 114 861 161 q 751 31 808 60 q 594 -7 694 1 l 594 956 z "},"Ụ":{"ha":958,"x_min":86,"x_max":872,"o":"m 479 -11 q 254 13 333 -11 q 138 89 175 36 q 94 213 103 138 q 86 436 86 288 l 86 956 l 364 956 l 364 381 q 367 282 364 329 q 379 228 369 244 q 413 207 389 211 q 479 201 433 201 l 511 201 q 536 204 522 201 l 536 -10 q 508 -11 526 -11 l 479 -11 m 594 956 l 872 956 l 872 436 q 867 231 872 300 q 836 114 861 161 q 751 31 808 60 q 594 -7 694 1 l 594 956 z "},"Ù":{"ha":958,"x_min":86,"x_max":872,"o":"m 479 -11 q 254 13 333 -11 q 138 89 175 36 q 94 213 103 138 q 86 436 86 288 l 86 956 l 364 956 l 364 381 q 367 282 364 329 q 379 228 369 244 q 413 207 389 211 q 479 201 433 201 l 511 201 q 536 204 522 201 l 536 -10 q 508 -11 526 -11 l 479 -11 m 594 956 l 872 956 l 872 436 q 867 231 872 300 q 836 114 861 161 q 751 31 808 60 q 594 -7 694 1 l 594 956 z "},"Ủ":{"ha":958,"x_min":86,"x_max":872,"o":"m 479 -11 q 254 13 333 -11 q 138 89 175 36 q 94 213 103 138 q 86 436 86 288 l 86 956 l 364 956 l 364 381 q 367 282 364 329 q 379 228 369 244 q 413 207 389 211 q 479 201 433 201 l 511 201 q 536 204 522 201 l 536 -10 q 508 -11 526 -11 l 479 -11 m 594 956 l 872 956 l 872 436 q 867 231 872 300 q 836 114 861 161 q 751 31 808 60 q 594 -7 694 1 l 594 956 z "},"Ư":{"ha":958,"x_min":86,"x_max":1089,"o":"m 1089 1029 q 1081 942 1089 978 q 1050 879 1072 906 q 981 834 1024 849 q 872 819 939 819 l 872 436 q 867 231 872 300 q 836 114 861 161 q 751 31 808 60 q 594 -7 694 1 l 594 956 l 868 956 q 936 976 918 956 q 944 997 943 985 q 946 1029 946 1008 l 1089 1029 m 511 201 q 536 204 522 201 l 536 -10 q 508 -11 526 -11 l 479 -11 q 254 13 333 -11 q 138 89 175 36 q 94 213 103 138 q 86 436 86 288 l 86 956 l 364 956 l 364 381 q 367 282 364 329 q 379 228 369 244 q 413 207 389 211 q 479 201 433 201 l 511 201 z "},"Ứ":{"ha":958,"x_min":86,"x_max":1089,"o":"m 1089 1029 q 1081 942 1089 978 q 1050 879 1072 906 q 981 834 1024 849 q 872 819 939 819 l 872 436 q 867 231 872 300 q 836 114 861 161 q 751 31 808 60 q 594 -7 694 1 l 594 956 l 868 956 q 936 976 918 956 q 944 997 943 985 q 946 1029 946 1008 l 1089 1029 m 511 201 q 536 204 522 201 l 536 -10 q 508 -11 526 -11 l 479 -11 q 254 13 333 -11 q 138 89 175 36 q 94 213 103 138 q 86 436 86 288 l 86 956 l 364 956 l 364 381 q 367 282 364 329 q 379 228 369 244 q 413 207 389 211 q 479 201 433 201 l 511 201 z "},"Ự":{"ha":958,"x_min":86,"x_max":1089,"o":"m 1089 1029 q 1081 942 1089 978 q 1050 879 1072 906 q 981 834 1024 849 q 872 819 939 819 l 872 436 q 867 231 872 300 q 836 114 861 161 q 751 31 808 60 q 594 -7 694 1 l 594 956 l 868 956 q 936 976 918 956 q 944 997 943 985 q 946 1029 946 1008 l 1089 1029 m 511 201 q 536 204 522 201 l 536 -10 q 508 -11 526 -11 l 479 -11 q 254 13 333 -11 q 138 89 175 36 q 94 213 103 138 q 86 436 86 288 l 86 956 l 364 956 l 364 381 q 367 282 364 329 q 379 228 369 244 q 413 207 389 211 q 479 201 433 201 l 511 201 z "},"Ừ":{"ha":958,"x_min":86,"x_max":1089,"o":"m 1089 1029 q 1081 942 1089 978 q 1050 879 1072 906 q 981 834 1024 849 q 872 819 939 819 l 872 436 q 867 231 872 300 q 836 114 861 161 q 751 31 808 60 q 594 -7 694 1 l 594 956 l 868 956 q 936 976 918 956 q 944 997 943 985 q 946 1029 946 1008 l 1089 1029 m 511 201 q 536 204 522 201 l 536 -10 q 508 -11 526 -11 l 479 -11 q 254 13 333 -11 q 138 89 175 36 q 94 213 103 138 q 86 436 86 288 l 86 956 l 364 956 l 364 381 q 367 282 364 329 q 379 228 369 244 q 413 207 389 211 q 479 201 433 201 l 511 201 z "},"Ử":{"ha":958,"x_min":86,"x_max":1089,"o":"m 1089 1029 q 1081 942 1089 978 q 1050 879 1072 906 q 981 834 1024 849 q 872 819 939 819 l 872 436 q 867 231 872 300 q 836 114 861 161 q 751 31 808 60 q 594 -7 694 1 l 594 956 l 868 956 q 936 976 918 956 q 944 997 943 985 q 946 1029 946 1008 l 1089 1029 m 511 201 q 536 204 522 201 l 536 -10 q 508 -11 526 -11 l 479 -11 q 254 13 333 -11 q 138 89 175 36 q 94 213 103 138 q 86 436 86 288 l 86 956 l 364 956 l 364 381 q 367 282 364 329 q 379 228 369 244 q 413 207 389 211 q 479 201 433 201 l 511 201 z "},"Ữ":{"ha":958,"x_min":86,"x_max":1089,"o":"m 1089 1029 q 1081 942 1089 978 q 1050 879 1072 906 q 981 834 1024 849 q 872 819 939 819 l 872 436 q 867 231 872 300 q 836 114 861 161 q 751 31 808 60 q 594 -7 694 1 l 594 956 l 868 956 q 936 976 918 956 q 944 997 943 985 q 946 1029 946 1008 l 1089 1029 m 511 201 q 536 204 522 201 l 536 -10 q 508 -11 526 -11 l 479 -11 q 254 13 333 -11 q 138 89 175 36 q 94 213 103 138 q 86 436 86 288 l 86 956 l 364 956 l 364 381 q 367 282 364 329 q 379 228 369 244 q 413 207 389 211 q 479 201 433 201 l 511 201 z "},"Ű":{"ha":958,"x_min":86,"x_max":872,"o":"m 479 -11 q 254 13 333 -11 q 138 89 175 36 q 94 213 103 138 q 86 436 86 288 l 86 956 l 364 956 l 364 381 q 367 282 364 329 q 379 228 369 244 q 413 207 389 211 q 479 201 433 201 l 511 201 q 536 204 522 201 l 536 -10 q 508 -11 526 -11 l 479 -11 m 594 956 l 872 956 l 872 436 q 867 231 872 300 q 836 114 861 161 q 751 31 808 60 q 594 -7 694 1 l 594 956 z "},"Ȗ":{"ha":958,"x_min":86,"x_max":872,"o":"m 479 -11 q 254 13 333 -11 q 138 89 175 36 q 94 213 103 138 q 86 436 86 288 l 86 956 l 364 956 l 364 381 q 367 282 364 329 q 379 228 369 244 q 413 207 389 211 q 479 201 433 201 l 511 201 q 536 204 522 201 l 536 -10 q 508 -11 526 -11 l 479 -11 m 594 956 l 872 956 l 872 436 q 867 231 872 300 q 836 114 861 161 q 751 31 808 60 q 594 -7 694 1 l 594 956 z "},"Ū":{"ha":958,"x_min":86,"x_max":872,"o":"m 479 -11 q 254 13 333 -11 q 138 89 175 36 q 94 213 103 138 q 86 436 86 288 l 86 956 l 364 956 l 364 381 q 367 282 364 329 q 379 228 369 244 q 413 207 389 211 q 479 201 433 201 l 511 201 q 536 204 522 201 l 536 -10 q 508 -11 526 -11 l 479 -11 m 594 956 l 872 956 l 872 436 q 867 231 872 300 q 836 114 861 161 q 751 31 808 60 q 594 -7 694 1 l 594 956 z "},"Ų":{"ha":958,"x_min":86,"x_max":872,"o":"m 86 956 l 364 956 l 364 -7 q 207 31 264 1 q 122 114 150 60 q 92 231 97 161 q 86 436 86 300 l 86 956 m 872 956 l 872 436 q 864 213 872 288 q 821 89 856 138 q 733 22 789 44 q 649 -29 682 4 q 617 -97 617 -62 q 631 -132 617 -119 q 682 -144 644 -144 l 697 -144 q 706 -143 703 -144 l 706 -267 l 672 -269 q 601 -272 631 -272 q 456 -236 501 -272 q 417 -150 417 -206 q 434 -82 417 -119 q 479 -11 451 -44 l 450 -11 q 422 -10 432 -11 l 422 204 q 447 201 436 201 l 479 201 q 546 207 525 201 q 579 228 569 211 q 592 282 589 244 q 594 381 594 329 l 594 956 l 872 956 z "},"Ů":{"ha":958,"x_min":86,"x_max":872,"o":"m 479 -11 q 254 13 333 -11 q 138 89 175 36 q 94 213 103 138 q 86 436 86 288 l 86 956 l 364 956 l 364 381 q 367 282 364 329 q 379 228 369 244 q 413 207 389 211 q 479 201 433 201 l 511 201 q 536 204 522 201 l 536 -10 q 508 -11 526 -11 l 479 -11 m 594 956 l 872 956 l 872 436 q 867 231 872 300 q 836 114 861 161 q 751 31 808 60 q 594 -7 694 1 l 594 956 z "},"Ũ":{"ha":958,"x_min":86,"x_max":872,"o":"m 479 -11 q 254 13 333 -11 q 138 89 175 36 q 94 213 103 138 q 86 436 86 288 l 86 956 l 364 956 l 364 381 q 367 282 364 329 q 379 228 369 244 q 413 207 389 211 q 479 201 433 201 l 511 201 q 536 204 522 201 l 536 -10 q 508 -11 526 -11 l 479 -11 m 594 956 l 872 956 l 872 436 q 867 231 872 300 q 836 114 861 161 q 751 31 808 60 q 594 -7 694 1 l 594 956 z "},"V":{"ha":921,"x_min":7,"x_max":914,"o":"m 278 40 q 246 149 260 96 l 201 301 q 167 414 179 376 q 149 476 156 456 l 7 956 l 290 956 l 550 0 l 290 0 l 278 40 m 496 424 l 636 956 l 914 956 l 772 476 l 721 301 q 675 149 696 221 q 643 40 661 96 l 631 0 l 611 0 l 496 424 z "},"W":{"ha":1383,"x_min":14,"x_max":1369,"o":"m 231 40 q 206 149 221 79 l 168 301 l 126 476 l 14 956 l 290 956 l 488 0 l 240 0 l 231 40 m 449 478 l 553 956 l 838 956 l 1065 0 l 828 0 l 817 46 l 788 167 l 746 343 q 696 553 719 450 l 688 553 l 640 343 l 625 272 q 612 217 618 243 q 600 167 606 190 l 572 46 l 561 0 l 546 0 l 449 478 m 1010 486 l 1093 956 l 1369 956 l 1256 476 l 1214 301 q 1178 149 1188 194 l 1151 40 l 1142 0 l 1125 0 l 1010 486 z "},"Ẃ":{"ha":1383,"x_min":14,"x_max":1369,"o":"m 231 40 q 206 149 221 79 l 168 301 l 126 476 l 14 956 l 290 956 l 488 0 l 240 0 l 231 40 m 449 478 l 553 956 l 838 956 l 1065 0 l 828 0 l 817 46 l 788 167 l 746 343 q 696 553 719 450 l 688 553 l 640 343 l 625 272 q 612 217 618 243 q 600 167 606 190 l 572 46 l 561 0 l 546 0 l 449 478 m 1010 486 l 1093 956 l 1369 956 l 1256 476 l 1214 301 q 1178 149 1188 194 l 1151 40 l 1142 0 l 1125 0 l 1010 486 z "},"Ŵ":{"ha":1383,"x_min":14,"x_max":1369,"o":"m 231 40 q 206 149 221 79 l 168 301 l 126 476 l 14 956 l 290 956 l 488 0 l 240 0 l 231 40 m 449 478 l 553 956 l 838 956 l 1065 0 l 828 0 l 817 46 l 788 167 l 746 343 q 696 553 719 450 l 688 553 l 640 343 l 625 272 q 612 217 618 243 q 600 167 606 190 l 572 46 l 561 0 l 546 0 l 449 478 m 1010 486 l 1093 956 l 1369 956 l 1256 476 l 1214 301 q 1178 149 1188 194 l 1151 40 l 1142 0 l 1125 0 l 1010 486 z "},"Ẅ":{"ha":1383,"x_min":14,"x_max":1369,"o":"m 231 40 q 206 149 221 79 l 168 301 l 126 476 l 14 956 l 290 956 l 488 0 l 240 0 l 231 40 m 449 478 l 553 956 l 838 956 l 1065 0 l 828 0 l 817 46 l 788 167 l 746 343 q 696 553 719 450 l 688 553 l 640 343 l 625 272 q 612 217 618 243 q 600 167 606 190 l 572 46 l 561 0 l 546 0 l 449 478 m 1010 486 l 1093 956 l 1369 956 l 1256 476 l 1214 301 q 1178 149 1188 194 l 1151 40 l 1142 0 l 1125 0 l 1010 486 z "},"Ẁ":{"ha":1383,"x_min":14,"x_max":1369,"o":"m 231 40 q 206 149 221 79 l 168 301 l 126 476 l 14 956 l 290 956 l 488 0 l 240 0 l 231 40 m 449 478 l 553 956 l 838 956 l 1065 0 l 828 0 l 817 46 l 788 167 l 746 343 q 696 553 719 450 l 688 553 l 640 343 l 625 272 q 612 217 618 243 q 600 167 606 190 l 572 46 l 561 0 l 546 0 l 449 478 m 1010 486 l 1093 956 l 1369 956 l 1256 476 l 1214 301 q 1178 149 1188 194 l 1151 40 l 1142 0 l 1125 0 l 1010 486 z "},"X":{"ha":942,"x_min":7,"x_max":935,"o":"m 13 956 l 328 956 l 935 0 l 618 0 l 13 956 m 521 761 l 626 956 l 931 956 l 667 531 l 521 761 m 274 433 l 418 204 l 311 0 l 7 0 l 274 433 z "},"Y":{"ha":879,"x_min":-7,"x_max":886,"o":"m 300 315 l 288 343 l 251 414 l 217 488 q 203 517 211 497 l 146 635 l -7 956 l 276 956 l 578 314 l 578 0 l 300 0 l 300 315 m 479 660 l 608 956 l 886 956 l 778 731 l 732 636 l 644 454 l 610 382 l 479 660 z "},"Ý":{"ha":879,"x_min":-7,"x_max":886,"o":"m 300 315 l 288 343 l 251 414 l 217 488 q 203 517 211 497 l 146 635 l -7 956 l 276 956 l 578 314 l 578 0 l 300 0 l 300 315 m 479 660 l 608 956 l 886 956 l 778 731 l 732 636 l 644 454 l 610 382 l 479 660 z "},"Ŷ":{"ha":879,"x_min":-7,"x_max":886,"o":"m 300 315 l 288 343 l 251 414 l 217 488 q 203 517 211 497 l 146 635 l -7 956 l 276 956 l 578 314 l 578 0 l 300 0 l 300 315 m 479 660 l 608 956 l 886 956 l 778 731 l 732 636 l 644 454 l 610 382 l 479 660 z "},"Ÿ":{"ha":879,"x_min":-7,"x_max":886,"o":"m 300 315 l 288 343 l 251 414 l 217 488 q 203 517 211 497 l 146 635 l -7 956 l 276 956 l 578 314 l 578 0 l 300 0 l 300 315 m 479 660 l 608 956 l 886 956 l 778 731 l 732 636 l 644 454 l 610 382 l 479 660 z "},"Ỵ":{"ha":879,"x_min":-7,"x_max":886,"o":"m 300 315 l 288 343 l 251 414 l 217 488 q 203 517 211 497 l 146 635 l -7 956 l 276 956 l 578 314 l 578 0 l 300 0 l 300 315 m 479 660 l 608 956 l 886 956 l 778 731 l 732 636 l 644 454 l 610 382 l 479 660 z "},"Ỳ":{"ha":879,"x_min":-7,"x_max":886,"o":"m 300 315 l 288 343 l 251 414 l 217 488 q 203 517 211 497 l 146 635 l -7 956 l 276 956 l 578 314 l 578 0 l 300 0 l 300 315 m 479 660 l 608 956 l 886 956 l 778 731 l 732 636 l 644 454 l 610 382 l 479 660 z "},"Ỷ":{"ha":879,"x_min":-7,"x_max":886,"o":"m 300 315 l 288 343 l 251 414 l 217 488 q 203 517 211 497 l 146 635 l -7 956 l 276 956 l 578 314 l 578 0 l 300 0 l 300 315 m 479 660 l 608 956 l 886 956 l 778 731 l 732 636 l 644 454 l 610 382 l 479 660 z "},"Ȳ":{"ha":879,"x_min":-7,"x_max":886,"o":"m 300 315 l 288 343 l 251 414 l 217 488 q 203 517 211 497 l 146 635 l -7 956 l 276 956 l 578 314 l 578 0 l 300 0 l 300 315 m 479 660 l 608 956 l 886 956 l 778 731 l 732 636 l 644 454 l 610 382 l 479 660 z "},"Ỹ":{"ha":879,"x_min":-7,"x_max":886,"o":"m 300 315 l 288 343 l 251 414 l 217 488 q 203 517 211 497 l 146 635 l -7 956 l 276 956 l 578 314 l 578 0 l 300 0 l 300 315 m 479 660 l 608 956 l 886 956 l 778 731 l 732 636 l 644 454 l 610 382 l 479 660 z "},"Z":{"ha":858,"x_min":56,"x_max":803,"o":"m 71 956 l 803 956 l 803 758 l 792 743 l 71 743 l 71 956 m 56 204 l 414 688 l 750 688 l 239 0 l 56 0 l 56 204 m 469 213 l 803 213 l 803 0 l 311 0 l 469 213 z "},"Ź":{"ha":858,"x_min":56,"x_max":803,"o":"m 71 956 l 803 956 l 803 758 l 792 743 l 71 743 l 71 956 m 56 204 l 414 688 l 750 688 l 239 0 l 56 0 l 56 204 m 469 213 l 803 213 l 803 0 l 311 0 l 469 213 z "},"Ž":{"ha":858,"x_min":56,"x_max":803,"o":"m 71 956 l 803 956 l 803 758 l 792 743 l 71 743 l 71 956 m 56 204 l 414 688 l 750 688 l 239 0 l 56 0 l 56 204 m 469 213 l 803 213 l 803 0 l 311 0 l 469 213 z "},"Ż":{"ha":858,"x_min":56,"x_max":803,"o":"m 71 956 l 803 956 l 803 758 l 792 743 l 71 743 l 71 956 m 56 204 l 414 688 l 750 688 l 239 0 l 56 0 l 56 204 m 469 213 l 803 213 l 803 0 l 311 0 l 469 213 z "},"a":{"ha":775,"x_min":49,"x_max":699,"o":"m 442 439 q 439 490 442 475 q 422 513 436 506 q 375 522 410 519 q 285 524 354 524 q 161 518 218 524 l 88 514 l 88 694 q 369 719 218 719 q 552 703 486 719 q 651 650 618 686 q 690 565 681 617 q 699 422 699 514 l 699 0 l 442 0 l 442 439 m 236 -10 q 94 44 140 -10 q 49 206 49 97 q 58 313 49 272 q 92 378 68 354 q 157 413 115 403 q 267 424 199 424 l 383 421 l 383 297 l 369 297 q 328 296 338 297 q 299 269 300 294 q 297 235 297 261 q 299 203 297 214 q 307 185 301 192 q 328 174 314 175 q 369 171 347 171 l 383 171 l 383 29 q 319 -2 353 6 q 236 -10 285 -10 z "},"á":{"ha":775,"x_min":49,"x_max":699,"o":"m 442 439 q 439 490 442 475 q 422 513 436 506 q 375 522 410 519 q 285 524 354 524 q 161 518 218 524 l 88 514 l 88 694 q 369 719 218 719 q 552 703 486 719 q 651 650 618 686 q 690 565 681 617 q 699 422 699 514 l 699 0 l 442 0 l 442 439 m 236 -10 q 94 44 140 -10 q 49 206 49 97 q 58 313 49 272 q 92 378 68 354 q 157 413 115 403 q 267 424 199 424 l 383 421 l 383 297 l 369 297 q 328 296 338 297 q 299 269 300 294 q 297 235 297 261 q 299 203 297 214 q 307 185 301 192 q 328 174 314 175 q 369 171 347 171 l 383 171 l 383 29 q 319 -2 353 6 q 236 -10 285 -10 z "},"ă":{"ha":775,"x_min":49,"x_max":699,"o":"m 442 439 q 439 490 442 475 q 422 513 436 506 q 375 522 410 519 q 285 524 354 524 q 161 518 218 524 l 88 514 l 88 694 q 369 719 218 719 q 552 703 486 719 q 651 650 618 686 q 690 565 681 617 q 699 422 699 514 l 699 0 l 442 0 l 442 439 m 236 -10 q 94 44 140 -10 q 49 206 49 97 q 58 313 49 272 q 92 378 68 354 q 157 413 115 403 q 267 424 199 424 l 383 421 l 383 297 l 369 297 q 328 296 338 297 q 299 269 300 294 q 297 235 297 261 q 299 203 297 214 q 307 185 301 192 q 328 174 314 175 q 369 171 347 171 l 383 171 l 383 29 q 319 -2 353 6 q 236 -10 285 -10 z "},"ắ":{"ha":775,"x_min":49,"x_max":699,"o":"m 442 439 q 439 490 442 475 q 422 513 436 506 q 375 522 410 519 q 285 524 354 524 q 161 518 218 524 l 88 514 l 88 694 q 369 719 218 719 q 552 703 486 719 q 651 650 618 686 q 690 565 681 617 q 699 422 699 514 l 699 0 l 442 0 l 442 439 m 236 -10 q 94 44 140 -10 q 49 206 49 97 q 58 313 49 272 q 92 378 68 354 q 157 413 115 403 q 267 424 199 424 l 383 421 l 383 297 l 369 297 q 328 296 338 297 q 299 269 300 294 q 297 235 297 261 q 299 203 297 214 q 307 185 301 192 q 328 174 314 175 q 369 171 347 171 l 383 171 l 383 29 q 319 -2 353 6 q 236 -10 285 -10 z "},"ặ":{"ha":775,"x_min":49,"x_max":699,"o":"m 442 439 q 439 490 442 475 q 422 513 436 506 q 375 522 410 519 q 285 524 354 524 q 161 518 218 524 l 88 514 l 88 694 q 369 719 218 719 q 552 703 486 719 q 651 650 618 686 q 690 565 681 617 q 699 422 699 514 l 699 0 l 442 0 l 442 439 m 236 -10 q 94 44 140 -10 q 49 206 49 97 q 58 313 49 272 q 92 378 68 354 q 157 413 115 403 q 267 424 199 424 l 383 421 l 383 297 l 369 297 q 328 296 338 297 q 299 269 300 294 q 297 235 297 261 q 299 203 297 214 q 307 185 301 192 q 328 174 314 175 q 369 171 347 171 l 383 171 l 383 29 q 319 -2 353 6 q 236 -10 285 -10 z "},"ằ":{"ha":775,"x_min":49,"x_max":699,"o":"m 442 439 q 439 490 442 475 q 422 513 436 506 q 375 522 410 519 q 285 524 354 524 q 161 518 218 524 l 88 514 l 88 694 q 369 719 218 719 q 552 703 486 719 q 651 650 618 686 q 690 565 681 617 q 699 422 699 514 l 699 0 l 442 0 l 442 439 m 236 -10 q 94 44 140 -10 q 49 206 49 97 q 58 313 49 272 q 92 378 68 354 q 157 413 115 403 q 267 424 199 424 l 383 421 l 383 297 l 369 297 q 328 296 338 297 q 299 269 300 294 q 297 235 297 261 q 299 203 297 214 q 307 185 301 192 q 328 174 314 175 q 369 171 347 171 l 383 171 l 383 29 q 319 -2 353 6 q 236 -10 285 -10 z "},"ẳ":{"ha":775,"x_min":49,"x_max":699,"o":"m 442 439 q 439 490 442 475 q 422 513 436 506 q 375 522 410 519 q 285 524 354 524 q 161 518 218 524 l 88 514 l 88 694 q 369 719 218 719 q 552 703 486 719 q 651 650 618 686 q 690 565 681 617 q 699 422 699 514 l 699 0 l 442 0 l 442 439 m 236 -10 q 94 44 140 -10 q 49 206 49 97 q 58 313 49 272 q 92 378 68 354 q 157 413 115 403 q 267 424 199 424 l 383 421 l 383 297 l 369 297 q 328 296 338 297 q 299 269 300 294 q 297 235 297 261 q 299 203 297 214 q 307 185 301 192 q 328 174 314 175 q 369 171 347 171 l 383 171 l 383 29 q 319 -2 353 6 q 236 -10 285 -10 z "},"ẵ":{"ha":775,"x_min":49,"x_max":699,"o":"m 442 439 q 439 490 442 475 q 422 513 436 506 q 375 522 410 519 q 285 524 354 524 q 161 518 218 524 l 88 514 l 88 694 q 369 719 218 719 q 552 703 486 719 q 651 650 618 686 q 690 565 681 617 q 699 422 699 514 l 699 0 l 442 0 l 442 439 m 236 -10 q 94 44 140 -10 q 49 206 49 97 q 58 313 49 272 q 92 378 68 354 q 157 413 115 403 q 267 424 199 424 l 383 421 l 383 297 l 369 297 q 328 296 338 297 q 299 269 300 294 q 297 235 297 261 q 299 203 297 214 q 307 185 301 192 q 328 174 314 175 q 369 171 347 171 l 383 171 l 383 29 q 319 -2 353 6 q 236 -10 285 -10 z "},"ǎ":{"ha":775,"x_min":49,"x_max":699,"o":"m 442 439 q 439 490 442 475 q 422 513 436 506 q 375 522 410 519 q 285 524 354 524 q 161 518 218 524 l 88 514 l 88 694 q 369 719 218 719 q 552 703 486 719 q 651 650 618 686 q 690 565 681 617 q 699 422 699 514 l 699 0 l 442 0 l 442 439 m 236 -10 q 94 44 140 -10 q 49 206 49 97 q 58 313 49 272 q 92 378 68 354 q 157 413 115 403 q 267 424 199 424 l 383 421 l 383 297 l 369 297 q 328 296 338 297 q 299 269 300 294 q 297 235 297 261 q 299 203 297 214 q 307 185 301 192 q 328 174 314 175 q 369 171 347 171 l 383 171 l 383 29 q 319 -2 353 6 q 236 -10 285 -10 z "},"â":{"ha":775,"x_min":49,"x_max":699,"o":"m 442 439 q 439 490 442 475 q 422 513 436 506 q 375 522 410 519 q 285 524 354 524 q 161 518 218 524 l 88 514 l 88 694 q 369 719 218 719 q 552 703 486 719 q 651 650 618 686 q 690 565 681 617 q 699 422 699 514 l 699 0 l 442 0 l 442 439 m 236 -10 q 94 44 140 -10 q 49 206 49 97 q 58 313 49 272 q 92 378 68 354 q 157 413 115 403 q 267 424 199 424 l 383 421 l 383 297 l 369 297 q 328 296 338 297 q 299 269 300 294 q 297 235 297 261 q 299 203 297 214 q 307 185 301 192 q 328 174 314 175 q 369 171 347 171 l 383 171 l 383 29 q 319 -2 353 6 q 236 -10 285 -10 z "},"ấ":{"ha":775,"x_min":49,"x_max":699,"o":"m 442 439 q 439 490 442 475 q 422 513 436 506 q 375 522 410 519 q 285 524 354 524 q 161 518 218 524 l 88 514 l 88 694 q 369 719 218 719 q 552 703 486 719 q 651 650 618 686 q 690 565 681 617 q 699 422 699 514 l 699 0 l 442 0 l 442 439 m 236 -10 q 94 44 140 -10 q 49 206 49 97 q 58 313 49 272 q 92 378 68 354 q 157 413 115 403 q 267 424 199 424 l 383 421 l 383 297 l 369 297 q 328 296 338 297 q 299 269 300 294 q 297 235 297 261 q 299 203 297 214 q 307 185 301 192 q 328 174 314 175 q 369 171 347 171 l 383 171 l 383 29 q 319 -2 353 6 q 236 -10 285 -10 z "},"ậ":{"ha":775,"x_min":49,"x_max":699,"o":"m 442 439 q 439 490 442 475 q 422 513 436 506 q 375 522 410 519 q 285 524 354 524 q 161 518 218 524 l 88 514 l 88 694 q 369 719 218 719 q 552 703 486 719 q 651 650 618 686 q 690 565 681 617 q 699 422 699 514 l 699 0 l 442 0 l 442 439 m 236 -10 q 94 44 140 -10 q 49 206 49 97 q 58 313 49 272 q 92 378 68 354 q 157 413 115 403 q 267 424 199 424 l 383 421 l 383 297 l 369 297 q 328 296 338 297 q 299 269 300 294 q 297 235 297 261 q 299 203 297 214 q 307 185 301 192 q 328 174 314 175 q 369 171 347 171 l 383 171 l 383 29 q 319 -2 353 6 q 236 -10 285 -10 z "},"ầ":{"ha":775,"x_min":49,"x_max":699,"o":"m 442 439 q 439 490 442 475 q 422 513 436 506 q 375 522 410 519 q 285 524 354 524 q 161 518 218 524 l 88 514 l 88 694 q 369 719 218 719 q 552 703 486 719 q 651 650 618 686 q 690 565 681 617 q 699 422 699 514 l 699 0 l 442 0 l 442 439 m 236 -10 q 94 44 140 -10 q 49 206 49 97 q 58 313 49 272 q 92 378 68 354 q 157 413 115 403 q 267 424 199 424 l 383 421 l 383 297 l 369 297 q 328 296 338 297 q 299 269 300 294 q 297 235 297 261 q 299 203 297 214 q 307 185 301 192 q 328 174 314 175 q 369 171 347 171 l 383 171 l 383 29 q 319 -2 353 6 q 236 -10 285 -10 z "},"ẩ":{"ha":775,"x_min":49,"x_max":699,"o":"m 442 439 q 439 490 442 475 q 422 513 436 506 q 375 522 410 519 q 285 524 354 524 q 161 518 218 524 l 88 514 l 88 694 q 369 719 218 719 q 552 703 486 719 q 651 650 618 686 q 690 565 681 617 q 699 422 699 514 l 699 0 l 442 0 l 442 439 m 236 -10 q 94 44 140 -10 q 49 206 49 97 q 58 313 49 272 q 92 378 68 354 q 157 413 115 403 q 267 424 199 424 l 383 421 l 383 297 l 369 297 q 328 296 338 297 q 299 269 300 294 q 297 235 297 261 q 299 203 297 214 q 307 185 301 192 q 328 174 314 175 q 369 171 347 171 l 383 171 l 383 29 q 319 -2 353 6 q 236 -10 285 -10 z "},"ẫ":{"ha":775,"x_min":49,"x_max":699,"o":"m 442 439 q 439 490 442 475 q 422 513 436 506 q 375 522 410 519 q 285 524 354 524 q 161 518 218 524 l 88 514 l 88 694 q 369 719 218 719 q 552 703 486 719 q 651 650 618 686 q 690 565 681 617 q 699 422 699 514 l 699 0 l 442 0 l 442 439 m 236 -10 q 94 44 140 -10 q 49 206 49 97 q 58 313 49 272 q 92 378 68 354 q 157 413 115 403 q 267 424 199 424 l 383 421 l 383 297 l 369 297 q 328 296 338 297 q 299 269 300 294 q 297 235 297 261 q 299 203 297 214 q 307 185 301 192 q 328 174 314 175 q 369 171 347 171 l 383 171 l 383 29 q 319 -2 353 6 q 236 -10 285 -10 z "},"ȁ":{"ha":775,"x_min":32,"x_max":699,"o":"m 442 439 q 439 490 442 475 q 422 513 436 506 q 375 522 410 519 q 285 524 354 524 q 161 518 218 524 l 88 514 l 88 694 q 369 719 218 719 q 552 703 486 719 q 651 650 618 686 q 690 565 681 617 q 699 422 699 514 l 699 0 l 442 0 l 442 439 m 236 -10 q 94 44 140 -10 q 49 206 49 97 q 58 313 49 272 q 92 378 68 354 q 157 413 115 403 q 267 424 199 424 l 383 421 l 383 297 l 369 297 q 328 296 338 297 q 299 269 300 294 q 297 235 297 261 q 299 203 297 214 q 307 185 301 192 q 328 174 314 175 q 369 171 347 171 l 383 171 l 383 29 q 319 -2 353 6 q 236 -10 285 -10 z "},"ä":{"ha":775,"x_min":49,"x_max":699,"o":"m 442 439 q 439 490 442 475 q 422 513 436 506 q 375 522 410 519 q 285 524 354 524 q 161 518 218 524 l 88 514 l 88 694 q 369 719 218 719 q 552 703 486 719 q 651 650 618 686 q 690 565 681 617 q 699 422 699 514 l 699 0 l 442 0 l 442 439 m 236 -10 q 94 44 140 -10 q 49 206 49 97 q 58 313 49 272 q 92 378 68 354 q 157 413 115 403 q 267 424 199 424 l 383 421 l 383 297 l 369 297 q 328 296 338 297 q 299 269 300 294 q 297 235 297 261 q 299 203 297 214 q 307 185 301 192 q 328 174 314 175 q 369 171 347 171 l 383 171 l 383 29 q 319 -2 353 6 q 236 -10 285 -10 z "},"ạ":{"ha":775,"x_min":49,"x_max":699,"o":"m 442 439 q 439 490 442 475 q 422 513 436 506 q 375 522 410 519 q 285 524 354 524 q 161 518 218 524 l 88 514 l 88 694 q 369 719 218 719 q 552 703 486 719 q 651 650 618 686 q 690 565 681 617 q 699 422 699 514 l 699 0 l 442 0 l 442 439 m 236 -10 q 94 44 140 -10 q 49 206 49 97 q 58 313 49 272 q 92 378 68 354 q 157 413 115 403 q 267 424 199 424 l 383 421 l 383 297 l 369 297 q 328 296 338 297 q 299 269 300 294 q 297 235 297 261 q 299 203 297 214 q 307 185 301 192 q 328 174 314 175 q 369 171 347 171 l 383 171 l 383 29 q 319 -2 353 6 q 236 -10 285 -10 z "},"à":{"ha":775,"x_min":49,"x_max":699,"o":"m 442 439 q 439 490 442 475 q 422 513 436 506 q 375 522 410 519 q 285 524 354 524 q 161 518 218 524 l 88 514 l 88 694 q 369 719 218 719 q 552 703 486 719 q 651 650 618 686 q 690 565 681 617 q 699 422 699 514 l 699 0 l 442 0 l 442 439 m 236 -10 q 94 44 140 -10 q 49 206 49 97 q 58 313 49 272 q 92 378 68 354 q 157 413 115 403 q 267 424 199 424 l 383 421 l 383 297 l 369 297 q 328 296 338 297 q 299 269 300 294 q 297 235 297 261 q 299 203 297 214 q 307 185 301 192 q 328 174 314 175 q 369 171 347 171 l 383 171 l 383 29 q 319 -2 353 6 q 236 -10 285 -10 z "},"ả":{"ha":775,"x_min":49,"x_max":699,"o":"m 442 439 q 439 490 442 475 q 422 513 436 506 q 375 522 410 519 q 285 524 354 524 q 161 518 218 524 l 88 514 l 88 694 q 369 719 218 719 q 552 703 486 719 q 651 650 618 686 q 690 565 681 617 q 699 422 699 514 l 699 0 l 442 0 l 442 439 m 236 -10 q 94 44 140 -10 q 49 206 49 97 q 58 313 49 272 q 92 378 68 354 q 157 413 115 403 q 267 424 199 424 l 383 421 l 383 297 l 369 297 q 328 296 338 297 q 299 269 300 294 q 297 235 297 261 q 299 203 297 214 q 307 185 301 192 q 328 174 314 175 q 369 171 347 171 l 383 171 l 383 29 q 319 -2 353 6 q 236 -10 285 -10 z "},"ȃ":{"ha":775,"x_min":49,"x_max":699,"o":"m 442 439 q 439 490 442 475 q 422 513 436 506 q 375 522 410 519 q 285 524 354 524 q 161 518 218 524 l 88 514 l 88 694 q 369 719 218 719 q 552 703 486 719 q 651 650 618 686 q 690 565 681 617 q 699 422 699 514 l 699 0 l 442 0 l 442 439 m 236 -10 q 94 44 140 -10 q 49 206 49 97 q 58 313 49 272 q 92 378 68 354 q 157 413 115 403 q 267 424 199 424 l 383 421 l 383 297 l 369 297 q 328 296 338 297 q 299 269 300 294 q 297 235 297 261 q 299 203 297 214 q 307 185 301 192 q 328 174 314 175 q 369 171 347 171 l 383 171 l 383 29 q 319 -2 353 6 q 236 -10 285 -10 z "},"ā":{"ha":775,"x_min":49,"x_max":699,"o":"m 442 439 q 439 490 442 475 q 422 513 436 506 q 375 522 410 519 q 285 524 354 524 q 161 518 218 524 l 88 514 l 88 694 q 369 719 218 719 q 552 703 486 719 q 651 650 618 686 q 690 565 681 617 q 699 422 699 514 l 699 0 l 442 0 l 442 439 m 236 -10 q 94 44 140 -10 q 49 206 49 97 q 58 313 49 272 q 92 378 68 354 q 157 413 115 403 q 267 424 199 424 l 383 421 l 383 297 l 369 297 q 328 296 338 297 q 299 269 300 294 q 297 235 297 261 q 299 203 297 214 q 307 185 301 192 q 328 174 314 175 q 369 171 347 171 l 383 171 l 383 29 q 319 -2 353 6 q 236 -10 285 -10 z "},"ą":{"ha":775,"x_min":49,"x_max":700,"o":"m 692 -150 q 700 -149 697 -150 l 700 -272 l 667 -275 q 596 -278 625 -278 q 450 -242 494 -278 q 411 -156 411 -211 q 433 -79 411 -122 q 488 0 454 -36 l 442 0 l 442 439 q 439 490 442 475 q 422 513 436 506 q 375 522 410 519 q 285 524 354 524 q 161 518 218 524 l 88 514 l 88 694 q 369 719 218 719 q 552 703 486 719 q 651 650 618 686 q 690 565 681 617 q 699 422 699 514 l 699 0 q 642 -44 667 -17 q 611 -103 611 -75 q 625 -137 611 -125 q 676 -150 639 -150 l 692 -150 m 92 378 q 157 413 115 403 q 267 424 199 424 l 383 421 l 383 297 l 369 297 q 328 296 338 297 q 299 269 300 294 q 297 235 297 261 q 299 203 297 214 q 307 185 301 192 q 328 174 314 175 q 369 171 347 171 l 383 171 l 383 29 q 319 -2 353 6 q 236 -10 285 -10 q 94 44 140 -10 q 49 206 49 97 q 58 313 49 272 q 92 378 68 354 z "},"å":{"ha":775,"x_min":49,"x_max":699,"o":"m 442 439 q 439 490 442 475 q 422 513 436 506 q 375 522 410 519 q 285 524 354 524 q 161 518 218 524 l 88 514 l 88 694 q 369 719 218 719 q 552 703 486 719 q 651 650 618 686 q 690 565 681 617 q 699 422 699 514 l 699 0 l 442 0 l 442 439 m 236 -10 q 94 44 140 -10 q 49 206 49 97 q 58 313 49 272 q 92 378 68 354 q 157 413 115 403 q 267 424 199 424 l 383 421 l 383 297 l 369 297 q 328 296 338 297 q 299 269 300 294 q 297 235 297 261 q 299 203 297 214 q 307 185 301 192 q 328 174 314 175 q 369 171 347 171 l 383 171 l 383 29 q 319 -2 353 6 q 236 -10 285 -10 z "},"ǻ":{"ha":775,"x_min":49,"x_max":699,"o":"m 442 439 q 439 490 442 475 q 422 513 436 506 q 375 522 410 519 q 285 524 354 524 q 161 518 218 524 l 88 514 l 88 694 q 369 719 218 719 q 552 703 486 719 q 651 650 618 686 q 690 565 681 617 q 699 422 699 514 l 699 0 l 442 0 l 442 439 m 236 -10 q 94 44 140 -10 q 49 206 49 97 q 58 313 49 272 q 92 378 68 354 q 157 413 115 403 q 267 424 199 424 l 383 421 l 383 297 l 369 297 q 328 296 338 297 q 299 269 300 294 q 297 235 297 261 q 299 203 297 214 q 307 185 301 192 q 328 174 314 175 q 369 171 347 171 l 383 171 l 383 29 q 319 -2 353 6 q 236 -10 285 -10 z "},"ã":{"ha":775,"x_min":49,"x_max":699,"o":"m 442 439 q 439 490 442 475 q 422 513 436 506 q 375 522 410 519 q 285 524 354 524 q 161 518 218 524 l 88 514 l 88 694 q 369 719 218 719 q 552 703 486 719 q 651 650 618 686 q 690 565 681 617 q 699 422 699 514 l 699 0 l 442 0 l 442 439 m 236 -10 q 94 44 140 -10 q 49 206 49 97 q 58 313 49 272 q 92 378 68 354 q 157 413 115 403 q 267 424 199 424 l 383 421 l 383 297 l 369 297 q 328 296 338 297 q 299 269 300 294 q 297 235 297 261 q 299 203 297 214 q 307 185 301 192 q 328 174 314 175 q 369 171 347 171 l 383 171 l 383 29 q 319 -2 353 6 q 236 -10 285 -10 z "},"æ":{"ha":1158,"x_min":49,"x_max":1096,"o":"m 804 -11 q 642 1 707 -11 q 536 39 578 14 q 442 0 492 10 l 442 439 q 439 490 442 475 q 422 513 436 506 q 375 522 410 519 q 285 524 354 524 q 161 518 218 524 l 88 514 l 88 694 q 369 719 218 719 q 579 679 510 719 q 699 715 624 704 l 699 297 q 703 230 699 250 q 722 200 707 210 q 774 188 739 189 q 868 185 818 185 q 997 189 957 185 l 1068 194 l 1068 15 q 915 -7 1013 -1 q 804 -11 868 -11 m 757 424 l 854 424 q 839 524 854 501 q 817 540 831 536 q 776 543 803 543 l 757 543 l 757 719 l 776 719 q 960 700 896 719 q 1056 636 1025 681 q 1090 536 1083 597 q 1096 353 1096 475 l 1096 297 l 757 297 l 757 424 m 319 -11 q 185 1 238 -11 q 103 39 133 13 q 61 104 74 64 q 49 206 49 144 q 58 313 49 272 q 92 378 68 354 q 157 413 115 403 q 267 424 199 424 l 383 421 l 383 297 l 369 297 q 328 296 338 297 q 299 269 300 294 q 297 235 297 261 q 299 203 297 214 q 307 185 301 192 q 328 174 314 175 q 369 171 347 171 l 383 171 l 383 -8 q 319 -11 342 -11 z "},"ǽ":{"ha":1158,"x_min":49,"x_max":1096,"o":"m 804 -11 q 642 1 707 -11 q 536 39 578 14 q 442 0 492 10 l 442 439 q 439 490 442 475 q 422 513 436 506 q 375 522 410 519 q 285 524 354 524 q 161 518 218 524 l 88 514 l 88 694 q 369 719 218 719 q 579 679 510 719 q 699 715 624 704 l 699 297 q 703 230 699 250 q 722 200 707 210 q 774 188 739 189 q 868 185 818 185 q 997 189 957 185 l 1068 194 l 1068 15 q 915 -7 1013 -1 q 804 -11 868 -11 m 757 424 l 854 424 q 839 524 854 501 q 817 540 831 536 q 776 543 803 543 l 757 543 l 757 719 l 776 719 q 960 700 896 719 q 1056 636 1025 681 q 1090 536 1083 597 q 1096 353 1096 475 l 1096 297 l 757 297 l 757 424 m 319 -11 q 185 1 238 -11 q 103 39 133 13 q 61 104 74 64 q 49 206 49 144 q 58 313 49 272 q 92 378 68 354 q 157 413 115 403 q 267 424 199 424 l 383 421 l 383 297 l 369 297 q 328 296 338 297 q 299 269 300 294 q 297 235 297 261 q 299 203 297 214 q 307 185 301 192 q 328 174 314 175 q 369 171 347 171 l 383 171 l 383 -8 q 319 -11 342 -11 z "},"b":{"ha":803,"x_min":79,"x_max":744,"o":"m 79 1032 l 336 1032 l 336 0 l 79 0 l 79 1032 m 536 -10 q 456 -1 490 -10 q 394 28 422 7 l 394 204 l 410 204 q 453 208 440 204 q 474 224 467 211 q 482 268 481 239 q 483 354 483 289 q 482 440 483 419 q 474 485 481 471 q 453 501 468 499 q 410 504 433 504 l 394 504 l 394 681 q 454 710 422 703 q 536 718 486 718 q 696 638 647 718 q 744 351 744 554 q 696 67 744 147 q 631 8 671 26 q 536 -10 592 -10 z "},"c":{"ha":646,"x_min":58,"x_max":588,"o":"m 539 518 q 439 524 504 524 q 378 518 396 524 l 378 719 q 582 694 476 718 l 582 514 l 539 518 m 368 -11 q 196 15 260 -11 q 101 93 132 42 q 66 197 74 138 q 58 353 58 257 q 65 499 58 440 q 94 601 72 557 q 174 681 121 653 q 319 717 228 710 l 319 354 q 323 263 319 293 q 338 215 326 232 q 373 192 350 199 q 439 185 396 185 q 540 189 513 185 l 588 194 l 588 14 q 368 -11 485 -11 z "},"ć":{"ha":646,"x_min":58,"x_max":619,"o":"m 539 518 q 439 524 504 524 q 378 518 396 524 l 378 719 q 582 694 476 718 l 582 514 l 539 518 m 368 -11 q 196 15 260 -11 q 101 93 132 42 q 66 197 74 138 q 58 353 58 257 q 65 499 58 440 q 94 601 72 557 q 174 681 121 653 q 319 717 228 710 l 319 354 q 323 263 319 293 q 338 215 326 232 q 373 192 350 199 q 439 185 396 185 q 540 189 513 185 l 588 194 l 588 14 q 368 -11 485 -11 z "},"č":{"ha":646,"x_min":58,"x_max":600,"o":"m 539 518 q 439 524 504 524 q 378 518 396 524 l 378 719 q 582 694 476 718 l 582 514 l 539 518 m 368 -11 q 196 15 260 -11 q 101 93 132 42 q 66 197 74 138 q 58 353 58 257 q 65 499 58 440 q 94 601 72 557 q 174 681 121 653 q 319 717 228 710 l 319 354 q 323 263 319 293 q 338 215 326 232 q 373 192 350 199 q 439 185 396 185 q 540 189 513 185 l 588 194 l 588 14 q 368 -11 485 -11 z "},"ç":{"ha":646,"x_min":58,"x_max":588,"o":"m 539 518 q 439 524 504 524 q 378 518 396 524 l 378 719 q 582 694 476 718 l 582 514 l 539 518 m 588 14 q 442 -8 508 -4 l 397 -262 l 157 -262 l 157 -256 l 264 -3 q 101 93 147 17 q 66 197 74 138 q 58 353 58 257 q 65 499 58 440 q 94 601 72 557 q 174 681 121 653 q 319 717 228 710 l 319 354 q 323 263 319 293 q 338 215 326 232 q 373 192 350 199 q 439 185 396 185 q 540 189 513 185 l 588 194 l 588 14 z "},"ĉ":{"ha":646,"x_min":58,"x_max":600,"o":"m 539 518 q 439 524 504 524 q 378 518 396 524 l 378 719 q 582 694 476 718 l 582 514 l 539 518 m 368 -11 q 196 15 260 -11 q 101 93 132 42 q 66 197 74 138 q 58 353 58 257 q 65 499 58 440 q 94 601 72 557 q 174 681 121 653 q 319 717 228 710 l 319 354 q 323 263 319 293 q 338 215 326 232 q 373 192 350 199 q 439 185 396 185 q 540 189 513 185 l 588 194 l 588 14 q 368 -11 485 -11 z "},"ċ":{"ha":646,"x_min":58,"x_max":588,"o":"m 539 518 q 439 524 504 524 q 378 518 396 524 l 378 719 q 582 694 476 718 l 582 514 l 539 518 m 368 -11 q 196 15 260 -11 q 101 93 132 42 q 66 197 74 138 q 58 353 58 257 q 65 499 58 440 q 94 601 72 557 q 174 681 121 653 q 319 717 228 710 l 319 354 q 323 263 319 293 q 338 215 326 232 q 373 192 350 199 q 439 185 396 185 q 540 189 513 185 l 588 194 l 588 14 q 368 -11 485 -11 z "},"d":{"ha":803,"x_min":58,"x_max":724,"o":"m 467 1032 l 724 1032 l 724 0 l 467 0 l 467 1032 m 267 -10 q 172 8 211 -10 q 108 67 132 26 q 70 178 82 108 q 58 351 58 247 q 108 638 58 556 q 267 718 156 718 q 349 710 317 718 q 408 681 381 703 l 408 504 l 393 504 q 349 501 363 504 q 329 485 336 497 q 321 440 322 469 q 319 354 319 419 q 321 268 319 289 q 329 224 322 239 q 351 207 336 210 q 393 204 371 204 l 408 204 l 408 28 q 347 -1 381 7 q 267 -10 313 -10 z "},"ð":{"ha":806,"x_min":58,"x_max":736,"o":"m 475 353 q 474 447 475 424 q 465 498 472 481 q 443 519 458 515 q 397 524 426 524 l 378 524 l 378 714 q 432 706 408 711 l 435 710 q 393 803 414 764 l 210 778 l 210 922 l 301 935 q 208 1026 263 979 l 208 1032 l 479 1032 q 544 969 506 1011 l 724 994 l 724 850 l 639 838 q 711 632 686 750 q 736 353 736 514 q 730 183 736 243 q 700 83 724 122 q 621 19 674 40 q 475 -8 568 -3 l 475 353 m 397 -11 q 208 7 276 -11 q 107 68 140 25 q 67 171 76 107 q 58 353 58 235 q 66 519 58 456 q 97 626 74 583 q 170 697 122 674 q 300 719 218 719 l 319 719 l 319 353 q 321 260 319 282 q 329 210 322 226 q 353 189 336 193 q 397 185 367 185 l 417 185 l 417 -11 l 397 -11 z "},"ď":{"ha":958,"x_min":58,"x_max":1026,"o":"m 467 1032 l 724 1032 l 724 0 l 467 0 l 467 1032 m 267 -10 q 172 8 211 -10 q 108 67 132 26 q 70 178 82 108 q 58 351 58 247 q 108 638 58 556 q 267 718 156 718 q 349 710 317 718 q 408 681 381 703 l 408 504 l 393 504 q 349 501 363 504 q 329 485 336 497 q 321 440 322 469 q 319 354 319 419 q 321 268 319 289 q 329 224 322 239 q 351 207 336 210 q 393 204 371 204 l 408 204 l 408 28 q 347 -1 381 7 q 267 -10 313 -10 m 783 732 q 829 736 813 732 q 856 750 846 740 q 867 774 864 760 q 869 815 869 788 l 869 833 l 783 833 l 783 1031 l 1026 1031 l 1026 882 q 1019 763 1026 806 q 988 694 1011 719 q 914 655 961 667 q 783 643 867 643 l 783 732 z "},"đ":{"ha":803,"x_min":58,"x_max":800,"o":"m 800 747 l 724 747 l 724 0 l 467 0 l 467 747 l 299 747 l 299 954 l 467 954 l 467 1032 l 724 1032 l 724 954 l 800 954 l 800 747 m 108 638 q 267 718 156 718 q 349 710 317 718 q 408 681 381 703 l 408 504 l 393 504 q 349 501 363 504 q 329 485 336 497 q 321 440 322 469 q 319 354 319 419 q 321 268 319 289 q 329 224 322 239 q 351 207 336 210 q 393 204 371 204 l 408 204 l 408 28 q 347 -1 381 7 q 267 -10 313 -10 q 172 8 211 -10 q 108 67 132 26 q 70 178 82 108 q 58 351 58 247 q 108 638 58 556 z "},"ǆ":{"ha":1544,"x_min":58,"x_max":1482,"o":"m 467 1032 l 724 1032 l 724 0 l 467 0 l 467 1032 m 267 -10 q 172 8 211 -10 q 108 67 132 26 q 70 178 82 108 q 58 351 58 247 q 108 638 58 556 q 267 718 156 718 q 349 710 317 718 q 408 681 381 703 l 408 504 l 393 504 q 349 501 363 504 q 329 485 336 497 q 321 440 322 469 q 319 354 319 419 q 321 268 319 289 q 329 224 322 239 q 351 207 336 210 q 393 204 371 204 l 408 204 l 408 28 q 347 -1 381 7 q 267 -10 313 -10 z "},"e":{"ha":774,"x_min":58,"x_max":711,"o":"m 372 424 l 469 424 q 454 524 469 501 q 432 540 446 536 q 392 543 418 543 l 372 543 l 372 719 l 392 719 q 576 700 511 719 q 671 636 640 681 q 705 536 699 597 q 711 353 711 475 l 711 297 l 372 297 l 372 424 m 419 -11 q 219 10 292 -11 q 110 79 146 32 q 68 183 78 121 q 58 353 58 244 q 65 512 58 453 q 94 613 72 571 q 172 684 119 658 q 314 717 224 710 l 314 297 q 318 230 314 250 q 338 200 322 210 q 389 188 354 189 q 483 185 433 185 q 613 189 572 185 l 683 194 l 683 15 q 531 -7 628 -1 q 419 -11 483 -11 z "},"é":{"ha":774,"x_min":58,"x_max":711,"o":"m 372 424 l 469 424 q 454 524 469 501 q 432 540 446 536 q 392 543 418 543 l 372 543 l 372 719 l 392 719 q 576 700 511 719 q 671 636 640 681 q 705 536 699 597 q 711 353 711 475 l 711 297 l 372 297 l 372 424 m 419 -11 q 219 10 292 -11 q 110 79 146 32 q 68 183 78 121 q 58 353 58 244 q 65 512 58 453 q 94 613 72 571 q 172 684 119 658 q 314 717 224 710 l 314 297 q 318 230 314 250 q 338 200 322 210 q 389 188 354 189 q 483 185 433 185 q 613 189 572 185 l 683 194 l 683 15 q 531 -7 628 -1 q 419 -11 483 -11 z "},"ĕ":{"ha":774,"x_min":58,"x_max":711,"o":"m 372 424 l 469 424 q 454 524 469 501 q 432 540 446 536 q 392 543 418 543 l 372 543 l 372 719 l 392 719 q 576 700 511 719 q 671 636 640 681 q 705 536 699 597 q 711 353 711 475 l 711 297 l 372 297 l 372 424 m 419 -11 q 219 10 292 -11 q 110 79 146 32 q 68 183 78 121 q 58 353 58 244 q 65 512 58 453 q 94 613 72 571 q 172 684 119 658 q 314 717 224 710 l 314 297 q 318 230 314 250 q 338 200 322 210 q 389 188 354 189 q 483 185 433 185 q 613 189 572 185 l 683 194 l 683 15 q 531 -7 628 -1 q 419 -11 483 -11 z "},"ě":{"ha":774,"x_min":58,"x_max":711,"o":"m 372 424 l 469 424 q 454 524 469 501 q 432 540 446 536 q 392 543 418 543 l 372 543 l 372 719 l 392 719 q 576 700 511 719 q 671 636 640 681 q 705 536 699 597 q 711 353 711 475 l 711 297 l 372 297 l 372 424 m 419 -11 q 219 10 292 -11 q 110 79 146 32 q 68 183 78 121 q 58 353 58 244 q 65 512 58 453 q 94 613 72 571 q 172 684 119 658 q 314 717 224 710 l 314 297 q 318 230 314 250 q 338 200 322 210 q 389 188 354 189 q 483 185 433 185 q 613 189 572 185 l 683 194 l 683 15 q 531 -7 628 -1 q 419 -11 483 -11 z "},"ê":{"ha":774,"x_min":58,"x_max":711,"o":"m 372 424 l 469 424 q 454 524 469 501 q 432 540 446 536 q 392 543 418 543 l 372 543 l 372 719 l 392 719 q 576 700 511 719 q 671 636 640 681 q 705 536 699 597 q 711 353 711 475 l 711 297 l 372 297 l 372 424 m 419 -11 q 219 10 292 -11 q 110 79 146 32 q 68 183 78 121 q 58 353 58 244 q 65 512 58 453 q 94 613 72 571 q 172 684 119 658 q 314 717 224 710 l 314 297 q 318 230 314 250 q 338 200 322 210 q 389 188 354 189 q 483 185 433 185 q 613 189 572 185 l 683 194 l 683 15 q 531 -7 628 -1 q 419 -11 483 -11 z "},"ế":{"ha":774,"x_min":58,"x_max":711,"o":"m 372 424 l 469 424 q 454 524 469 501 q 432 540 446 536 q 392 543 418 543 l 372 543 l 372 719 l 392 719 q 576 700 511 719 q 671 636 640 681 q 705 536 699 597 q 711 353 711 475 l 711 297 l 372 297 l 372 424 m 419 -11 q 219 10 292 -11 q 110 79 146 32 q 68 183 78 121 q 58 353 58 244 q 65 512 58 453 q 94 613 72 571 q 172 684 119 658 q 314 717 224 710 l 314 297 q 318 230 314 250 q 338 200 322 210 q 389 188 354 189 q 483 185 433 185 q 613 189 572 185 l 683 194 l 683 15 q 531 -7 628 -1 q 419 -11 483 -11 z "},"ệ":{"ha":774,"x_min":58,"x_max":711,"o":"m 372 424 l 469 424 q 454 524 469 501 q 432 540 446 536 q 392 543 418 543 l 372 543 l 372 719 l 392 719 q 576 700 511 719 q 671 636 640 681 q 705 536 699 597 q 711 353 711 475 l 711 297 l 372 297 l 372 424 m 419 -11 q 219 10 292 -11 q 110 79 146 32 q 68 183 78 121 q 58 353 58 244 q 65 512 58 453 q 94 613 72 571 q 172 684 119 658 q 314 717 224 710 l 314 297 q 318 230 314 250 q 338 200 322 210 q 389 188 354 189 q 483 185 433 185 q 613 189 572 185 l 683 194 l 683 15 q 531 -7 628 -1 q 419 -11 483 -11 z "},"ề":{"ha":774,"x_min":58,"x_max":711,"o":"m 372 424 l 469 424 q 454 524 469 501 q 432 540 446 536 q 392 543 418 543 l 372 543 l 372 719 l 392 719 q 576 700 511 719 q 671 636 640 681 q 705 536 699 597 q 711 353 711 475 l 711 297 l 372 297 l 372 424 m 419 -11 q 219 10 292 -11 q 110 79 146 32 q 68 183 78 121 q 58 353 58 244 q 65 512 58 453 q 94 613 72 571 q 172 684 119 658 q 314 717 224 710 l 314 297 q 318 230 314 250 q 338 200 322 210 q 389 188 354 189 q 483 185 433 185 q 613 189 572 185 l 683 194 l 683 15 q 531 -7 628 -1 q 419 -11 483 -11 z "},"ể":{"ha":774,"x_min":58,"x_max":711,"o":"m 372 424 l 469 424 q 454 524 469 501 q 432 540 446 536 q 392 543 418 543 l 372 543 l 372 719 l 392 719 q 576 700 511 719 q 671 636 640 681 q 705 536 699 597 q 711 353 711 475 l 711 297 l 372 297 l 372 424 m 419 -11 q 219 10 292 -11 q 110 79 146 32 q 68 183 78 121 q 58 353 58 244 q 65 512 58 453 q 94 613 72 571 q 172 684 119 658 q 314 717 224 710 l 314 297 q 318 230 314 250 q 338 200 322 210 q 389 188 354 189 q 483 185 433 185 q 613 189 572 185 l 683 194 l 683 15 q 531 -7 628 -1 q 419 -11 483 -11 z "},"ễ":{"ha":774,"x_min":58,"x_max":711,"o":"m 372 424 l 469 424 q 454 524 469 501 q 432 540 446 536 q 392 543 418 543 l 372 543 l 372 719 l 392 719 q 576 700 511 719 q 671 636 640 681 q 705 536 699 597 q 711 353 711 475 l 711 297 l 372 297 l 372 424 m 419 -11 q 219 10 292 -11 q 110 79 146 32 q 68 183 78 121 q 58 353 58 244 q 65 512 58 453 q 94 613 72 571 q 172 684 119 658 q 314 717 224 710 l 314 297 q 318 230 314 250 q 338 200 322 210 q 389 188 354 189 q 483 185 433 185 q 613 189 572 185 l 683 194 l 683 15 q 531 -7 628 -1 q 419 -11 483 -11 z "},"ȅ":{"ha":774,"x_min":40,"x_max":711,"o":"m 372 424 l 469 424 q 454 524 469 501 q 432 540 446 536 q 392 543 418 543 l 372 543 l 372 719 l 392 719 q 576 700 511 719 q 671 636 640 681 q 705 536 699 597 q 711 353 711 475 l 711 297 l 372 297 l 372 424 m 419 -11 q 219 10 292 -11 q 110 79 146 32 q 68 183 78 121 q 58 353 58 244 q 65 512 58 453 q 94 613 72 571 q 172 684 119 658 q 314 717 224 710 l 314 297 q 318 230 314 250 q 338 200 322 210 q 389 188 354 189 q 483 185 433 185 q 613 189 572 185 l 683 194 l 683 15 q 531 -7 628 -1 q 419 -11 483 -11 z "},"ë":{"ha":774,"x_min":58,"x_max":711,"o":"m 372 424 l 469 424 q 454 524 469 501 q 432 540 446 536 q 392 543 418 543 l 372 543 l 372 719 l 392 719 q 576 700 511 719 q 671 636 640 681 q 705 536 699 597 q 711 353 711 475 l 711 297 l 372 297 l 372 424 m 419 -11 q 219 10 292 -11 q 110 79 146 32 q 68 183 78 121 q 58 353 58 244 q 65 512 58 453 q 94 613 72 571 q 172 684 119 658 q 314 717 224 710 l 314 297 q 318 230 314 250 q 338 200 322 210 q 389 188 354 189 q 483 185 433 185 q 613 189 572 185 l 683 194 l 683 15 q 531 -7 628 -1 q 419 -11 483 -11 z "},"ė":{"ha":774,"x_min":58,"x_max":711,"o":"m 372 424 l 469 424 q 454 524 469 501 q 432 540 446 536 q 392 543 418 543 l 372 543 l 372 719 l 392 719 q 576 700 511 719 q 671 636 640 681 q 705 536 699 597 q 711 353 711 475 l 711 297 l 372 297 l 372 424 m 419 -11 q 219 10 292 -11 q 110 79 146 32 q 68 183 78 121 q 58 353 58 244 q 65 512 58 453 q 94 613 72 571 q 172 684 119 658 q 314 717 224 710 l 314 297 q 318 230 314 250 q 338 200 322 210 q 389 188 354 189 q 483 185 433 185 q 613 189 572 185 l 683 194 l 683 15 q 531 -7 628 -1 q 419 -11 483 -11 z "},"ẹ":{"ha":774,"x_min":58,"x_max":711,"o":"m 372 424 l 469 424 q 454 524 469 501 q 432 540 446 536 q 392 543 418 543 l 372 543 l 372 719 l 392 719 q 576 700 511 719 q 671 636 640 681 q 705 536 699 597 q 711 353 711 475 l 711 297 l 372 297 l 372 424 m 419 -11 q 219 10 292 -11 q 110 79 146 32 q 68 183 78 121 q 58 353 58 244 q 65 512 58 453 q 94 613 72 571 q 172 684 119 658 q 314 717 224 710 l 314 297 q 318 230 314 250 q 338 200 322 210 q 389 188 354 189 q 483 185 433 185 q 613 189 572 185 l 683 194 l 683 15 q 531 -7 628 -1 q 419 -11 483 -11 z "},"è":{"ha":774,"x_min":58,"x_max":711,"o":"m 372 424 l 469 424 q 454 524 469 501 q 432 540 446 536 q 392 543 418 543 l 372 543 l 372 719 l 392 719 q 576 700 511 719 q 671 636 640 681 q 705 536 699 597 q 711 353 711 475 l 711 297 l 372 297 l 372 424 m 419 -11 q 219 10 292 -11 q 110 79 146 32 q 68 183 78 121 q 58 353 58 244 q 65 512 58 453 q 94 613 72 571 q 172 684 119 658 q 314 717 224 710 l 314 297 q 318 230 314 250 q 338 200 322 210 q 389 188 354 189 q 483 185 433 185 q 613 189 572 185 l 683 194 l 683 15 q 531 -7 628 -1 q 419 -11 483 -11 z "},"ẻ":{"ha":774,"x_min":58,"x_max":711,"o":"m 372 424 l 469 424 q 454 524 469 501 q 432 540 446 536 q 392 543 418 543 l 372 543 l 372 719 l 392 719 q 576 700 511 719 q 671 636 640 681 q 705 536 699 597 q 711 353 711 475 l 711 297 l 372 297 l 372 424 m 419 -11 q 219 10 292 -11 q 110 79 146 32 q 68 183 78 121 q 58 353 58 244 q 65 512 58 453 q 94 613 72 571 q 172 684 119 658 q 314 717 224 710 l 314 297 q 318 230 314 250 q 338 200 322 210 q 389 188 354 189 q 483 185 433 185 q 613 189 572 185 l 683 194 l 683 15 q 531 -7 628 -1 q 419 -11 483 -11 z "},"ȇ":{"ha":774,"x_min":58,"x_max":711,"o":"m 372 424 l 469 424 q 454 524 469 501 q 432 540 446 536 q 392 543 418 543 l 372 543 l 372 719 l 392 719 q 576 700 511 719 q 671 636 640 681 q 705 536 699 597 q 711 353 711 475 l 711 297 l 372 297 l 372 424 m 419 -11 q 219 10 292 -11 q 110 79 146 32 q 68 183 78 121 q 58 353 58 244 q 65 512 58 453 q 94 613 72 571 q 172 684 119 658 q 314 717 224 710 l 314 297 q 318 230 314 250 q 338 200 322 210 q 389 188 354 189 q 483 185 433 185 q 613 189 572 185 l 683 194 l 683 15 q 531 -7 628 -1 q 419 -11 483 -11 z "},"ē":{"ha":774,"x_min":58,"x_max":711,"o":"m 372 424 l 469 424 q 454 524 469 501 q 432 540 446 536 q 392 543 418 543 l 372 543 l 372 719 l 392 719 q 576 700 511 719 q 671 636 640 681 q 705 536 699 597 q 711 353 711 475 l 711 297 l 372 297 l 372 424 m 419 -11 q 219 10 292 -11 q 110 79 146 32 q 68 183 78 121 q 58 353 58 244 q 65 512 58 453 q 94 613 72 571 q 172 684 119 658 q 314 717 224 710 l 314 297 q 318 230 314 250 q 338 200 322 210 q 389 188 354 189 q 483 185 433 185 q 613 189 572 185 l 683 194 l 683 15 q 531 -7 628 -1 q 419 -11 483 -11 z "},"ę":{"ha":774,"x_min":58,"x_max":711,"o":"m 671 636 q 705 536 699 597 q 711 353 711 475 l 711 297 l 372 297 l 372 424 l 469 424 q 454 524 469 501 q 432 540 446 536 q 392 543 418 543 l 372 543 l 372 719 l 392 719 q 576 700 511 719 q 671 636 640 681 m 676 -135 q 685 -133 682 -135 l 685 -257 l 651 -260 q 581 -262 610 -262 q 435 -226 479 -262 q 396 -140 396 -196 q 410 -78 396 -112 q 450 -11 425 -44 l 419 -11 q 219 10 292 -11 q 110 79 146 32 q 68 183 78 121 q 58 353 58 244 q 65 512 58 453 q 94 613 72 571 q 172 684 119 658 q 314 717 224 710 l 314 297 q 318 230 314 250 q 338 200 322 210 q 389 188 354 189 q 483 185 433 185 q 613 189 572 185 l 683 194 l 683 15 q 626 -29 651 -1 q 596 -87 596 -60 q 610 -122 596 -110 q 661 -135 624 -135 l 676 -135 z "},"ẽ":{"ha":774,"x_min":58,"x_max":711,"o":"m 372 424 l 469 424 q 454 524 469 501 q 432 540 446 536 q 392 543 418 543 l 372 543 l 372 719 l 392 719 q 576 700 511 719 q 671 636 640 681 q 705 536 699 597 q 711 353 711 475 l 711 297 l 372 297 l 372 424 m 419 -11 q 219 10 292 -11 q 110 79 146 32 q 68 183 78 121 q 58 353 58 244 q 65 512 58 453 q 94 613 72 571 q 172 684 119 658 q 314 717 224 710 l 314 297 q 318 230 314 250 q 338 200 322 210 q 389 188 354 189 q 483 185 433 185 q 613 189 572 185 l 683 194 l 683 15 q 531 -7 628 -1 q 419 -11 483 -11 z "},"ə":{"ha":774,"x_min":63,"x_max":715,"o":"m 354 719 q 555 698 482 719 q 664 629 628 676 q 706 526 696 588 q 715 356 715 464 q 708 197 715 256 q 679 96 701 138 q 602 24 654 50 q 460 -8 550 -1 l 460 411 q 456 478 460 458 q 436 508 451 499 q 385 521 419 519 q 290 524 340 524 q 161 519 201 524 l 90 514 l 90 693 q 243 715 146 710 q 354 719 290 719 m 401 285 l 304 285 q 319 185 304 208 q 342 169 328 172 q 382 165 356 165 l 401 165 l 401 -11 l 382 -11 q 198 8 263 -11 q 103 72 133 28 q 69 172 75 111 q 63 356 63 233 l 63 411 l 401 411 l 401 285 z "},"f":{"ha":607,"x_min":25,"x_max":582,"o":"m 25 708 l 156 708 l 156 724 q 172 903 156 842 q 233 992 189 964 q 349 1025 275 1018 q 582 1032 422 1032 l 582 854 q 488 853 510 854 q 437 843 454 851 q 417 818 419 835 q 413 771 413 801 l 413 708 l 582 708 l 582 513 l 25 513 l 25 708 m 156 457 l 413 457 l 413 0 l 156 0 l 156 457 z "},"g":{"ha":803,"x_min":58,"x_max":724,"o":"m 267 4 q 172 23 211 4 q 108 83 133 42 q 58 364 58 164 q 108 643 58 565 q 172 700 133 682 q 267 718 211 718 q 347 710 314 718 q 408 679 381 701 l 408 504 l 393 504 q 349 501 363 504 q 329 486 336 497 q 321 443 322 471 q 319 361 319 424 q 321 279 319 299 q 329 237 322 250 q 351 221 336 224 q 393 218 371 218 l 408 218 l 408 42 q 349 12 381 19 q 267 4 317 4 m 360 -286 q 193 -278 290 -286 l 110 -269 l 110 -90 l 296 -90 q 393 -87 346 -90 q 444 -74 428 -85 q 464 -39 460 -64 q 467 32 467 -6 l 467 708 l 724 708 l 724 78 q 714 -92 724 -31 q 672 -196 704 -154 q 562 -264 636 -242 q 360 -286 488 -286 z "},"ğ":{"ha":803,"x_min":58,"x_max":724,"o":"m 267 4 q 172 23 211 4 q 108 83 133 42 q 58 364 58 164 q 108 643 58 565 q 172 700 133 682 q 267 718 211 718 q 347 710 314 718 q 408 679 381 701 l 408 504 l 393 504 q 349 501 363 504 q 329 486 336 497 q 321 443 322 471 q 319 361 319 424 q 321 279 319 299 q 329 237 322 250 q 351 221 336 224 q 393 218 371 218 l 408 218 l 408 42 q 349 12 381 19 q 267 4 317 4 m 360 -286 q 193 -278 290 -286 l 110 -269 l 110 -90 l 296 -90 q 393 -87 346 -90 q 444 -74 428 -85 q 464 -39 460 -64 q 467 32 467 -6 l 467 708 l 724 708 l 724 78 q 714 -92 724 -31 q 672 -196 704 -154 q 562 -264 636 -242 q 360 -286 488 -286 z "},"ǧ":{"ha":803,"x_min":58,"x_max":724,"o":"m 267 4 q 172 23 211 4 q 108 83 133 42 q 58 364 58 164 q 108 643 58 565 q 172 700 133 682 q 267 718 211 718 q 347 710 314 718 q 408 679 381 701 l 408 504 l 393 504 q 349 501 363 504 q 329 486 336 497 q 321 443 322 471 q 319 361 319 424 q 321 279 319 299 q 329 237 322 250 q 351 221 336 224 q 393 218 371 218 l 408 218 l 408 42 q 349 12 381 19 q 267 4 317 4 m 360 -286 q 193 -278 290 -286 l 110 -269 l 110 -90 l 296 -90 q 393 -87 346 -90 q 444 -74 428 -85 q 464 -39 460 -64 q 467 32 467 -6 l 467 708 l 724 708 l 724 78 q 714 -92 724 -31 q 672 -196 704 -154 q 562 -264 636 -242 q 360 -286 488 -286 z "},"ĝ":{"ha":803,"x_min":58,"x_max":724,"o":"m 267 4 q 172 23 211 4 q 108 83 133 42 q 58 364 58 164 q 108 643 58 565 q 172 700 133 682 q 267 718 211 718 q 347 710 314 718 q 408 679 381 701 l 408 504 l 393 504 q 349 501 363 504 q 329 486 336 497 q 321 443 322 471 q 319 361 319 424 q 321 279 319 299 q 329 237 322 250 q 351 221 336 224 q 393 218 371 218 l 408 218 l 408 42 q 349 12 381 19 q 267 4 317 4 m 360 -286 q 193 -278 290 -286 l 110 -269 l 110 -90 l 296 -90 q 393 -87 346 -90 q 444 -74 428 -85 q 464 -39 460 -64 q 467 32 467 -6 l 467 708 l 724 708 l 724 78 q 714 -92 724 -31 q 672 -196 704 -154 q 562 -264 636 -242 q 360 -286 488 -286 z "},"ģ":{"ha":803,"x_min":58,"x_max":724,"o":"m 267 4 q 172 23 211 4 q 108 83 133 42 q 58 364 58 164 q 108 643 58 565 q 172 700 133 682 q 267 718 211 718 q 347 710 314 718 q 408 679 381 701 l 408 504 l 393 504 q 349 501 363 504 q 329 486 336 497 q 321 443 322 471 q 319 361 319 424 q 321 279 319 299 q 329 237 322 250 q 351 221 336 224 q 393 218 371 218 l 408 218 l 408 42 q 349 12 381 19 q 267 4 317 4 m 360 -286 q 193 -278 290 -286 l 110 -269 l 110 -90 l 296 -90 q 393 -87 346 -90 q 444 -74 428 -85 q 464 -39 460 -64 q 467 32 467 -6 l 467 708 l 724 708 l 724 78 q 714 -92 724 -31 q 672 -196 704 -154 q 562 -264 636 -242 q 360 -286 488 -286 z "},"ġ":{"ha":803,"x_min":58,"x_max":724,"o":"m 267 4 q 172 23 211 4 q 108 83 133 42 q 58 364 58 164 q 108 643 58 565 q 172 700 133 682 q 267 718 211 718 q 347 710 314 718 q 408 679 381 701 l 408 504 l 393 504 q 349 501 363 504 q 329 486 336 497 q 321 443 322 471 q 319 361 319 424 q 321 279 319 299 q 329 237 322 250 q 351 221 336 224 q 393 218 371 218 l 408 218 l 408 42 q 349 12 381 19 q 267 4 317 4 m 360 -286 q 193 -278 290 -286 l 110 -269 l 110 -90 l 296 -90 q 393 -87 346 -90 q 444 -74 428 -85 q 464 -39 460 -64 q 467 32 467 -6 l 467 708 l 724 708 l 724 78 q 714 -92 724 -31 q 672 -196 704 -154 q 562 -264 636 -242 q 360 -286 488 -286 z "},"h":{"ha":817,"x_min":79,"x_max":738,"o":"m 79 1032 l 336 1032 l 336 0 l 79 0 l 79 1032 m 481 335 q 479 432 481 408 q 472 483 476 471 q 453 501 467 497 q 408 504 439 504 l 394 504 l 394 674 q 536 718 450 718 q 704 642 661 718 q 731 560 724 608 q 738 443 738 513 l 738 0 l 481 0 l 481 335 z "},"ħ":{"ha":817,"x_min":-6,"x_max":738,"o":"m 336 754 l 336 0 l 79 0 l 79 754 l -6 754 l -6 961 l 79 961 l 79 1032 l 336 1032 l 336 961 l 496 961 l 496 754 l 336 754 m 704 642 q 731 560 724 608 q 738 443 738 513 l 738 0 l 481 0 l 481 335 q 479 432 481 408 q 472 483 476 471 q 453 501 467 497 q 408 504 439 504 l 394 504 l 394 674 q 536 718 450 718 q 704 642 661 718 z "},"ĥ":{"ha":817,"x_min":-49,"x_max":738,"o":"m 79 1032 l 336 1032 l 336 0 l 79 0 l 79 1032 m 481 335 q 479 432 481 408 q 472 483 476 471 q 453 501 467 497 q 408 504 439 504 l 394 504 l 394 674 q 536 718 450 718 q 704 642 661 718 q 731 560 724 608 q 738 443 738 513 l 738 0 l 481 0 l 481 335 z "},"ḥ":{"ha":817,"x_min":79,"x_max":738,"o":"m 79 1032 l 336 1032 l 336 0 l 79 0 l 79 1032 m 481 335 q 479 432 481 408 q 472 483 476 471 q 453 501 467 497 q 408 504 439 504 l 394 504 l 394 674 q 536 718 450 718 q 704 642 661 718 q 731 560 724 608 q 738 443 738 513 l 738 0 l 481 0 l 481 335 z "},"i":{"ha":415,"x_min":79,"x_max":336,"o":"m 79 1032 l 336 1032 l 336 832 l 79 832 l 79 1032 m 79 708 l 336 708 l 336 0 l 79 0 l 79 708 z "},"ı":{"ha":415,"x_min":79,"x_max":336,"o":"m 79 708 l 336 708 l 336 0 l 79 0 l 79 708 z "},"í":{"ha":415,"x_min":79,"x_max":474,"o":"m 79 708 l 336 708 l 336 0 l 79 0 l 79 708 z "},"ĭ":{"ha":415,"x_min":-12,"x_max":428,"o":"m 79 708 l 336 708 l 336 0 l 79 0 l 79 708 z "},"ǐ":{"ha":415,"x_min":-42,"x_max":454,"o":"m 79 708 l 336 708 l 336 0 l 79 0 l 79 708 z "},"î":{"ha":415,"x_min":-42,"x_max":454,"o":"m 79 708 l 336 708 l 336 0 l 79 0 l 79 708 z "},"ȉ":{"ha":415,"x_min":-156,"x_max":414,"o":"m 79 708 l 336 708 l 336 0 l 79 0 l 79 708 z "},"ï":{"ha":415,"x_min":-44,"x_max":457,"o":"m 79 708 l 336 708 l 336 0 l 79 0 l 79 708 z "},"ị":{"ha":415,"x_min":79,"x_max":336,"o":"m 79 1032 l 336 1032 l 336 832 l 79 832 l 79 1032 m 79 708 l 336 708 l 336 0 l 79 0 l 79 708 z "},"ì":{"ha":415,"x_min":-60,"x_max":336,"o":"m 79 708 l 336 708 l 336 0 l 79 0 l 79 708 z "},"ỉ":{"ha":415,"x_min":79,"x_max":383,"o":"m 79 708 l 336 708 l 336 0 l 79 0 l 79 708 z "},"ȋ":{"ha":415,"x_min":-12,"x_max":428,"o":"m 79 708 l 336 708 l 336 0 l 79 0 l 79 708 z "},"ĳ":{"ha":831,"x_min":79,"x_max":751,"o":"m 79 1032 l 336 1032 l 336 832 l 79 832 l 79 1032 m 79 708 l 336 708 l 336 0 l 79 0 l 79 708 m 494 1032 l 751 1032 l 751 832 l 494 832 l 494 1032 m 381 -96 q 444 -92 421 -96 q 478 -79 467 -87 q 492 -57 489 -71 q 494 -25 494 -40 l 494 708 l 751 708 l 751 51 q 737 -130 751 -67 q 683 -225 722 -193 q 576 -267 644 -257 q 381 -276 508 -276 l 381 -96 z "},"ī":{"ha":415,"x_min":10,"x_max":406,"o":"m 79 708 l 336 708 l 336 0 l 79 0 l 79 708 z "},"į":{"ha":415,"x_min":49,"x_max":338,"o":"m 336 832 l 79 832 l 79 1032 l 336 1032 l 336 832 m 329 -150 q 338 -149 335 -150 l 338 -272 l 304 -275 q 233 -278 263 -278 q 88 -242 133 -278 q 49 -156 49 -211 q 70 -79 49 -122 q 125 0 92 -36 l 79 0 l 79 708 l 336 708 l 336 0 q 279 -44 304 -17 q 249 -103 249 -75 q 263 -137 249 -125 q 314 -150 276 -150 l 329 -150 z "},"ĩ":{"ha":415,"x_min":-72,"x_max":488,"o":"m 79 708 l 336 708 l 336 0 l 79 0 l 79 708 z "},"j":{"ha":415,"x_min":-35,"x_max":336,"o":"m 79 1032 l 336 1032 l 336 832 l 79 832 l 79 1032 m -35 -96 q 29 -92 6 -96 q 63 -79 51 -87 q 76 -57 74 -71 q 79 -25 79 -40 l 79 708 l 336 708 l 336 51 q 322 -130 336 -67 q 268 -225 307 -193 q 161 -267 229 -257 q -35 -276 93 -276 l -35 -96 z "},"ȷ":{"ha":415,"x_min":-35,"x_max":336,"o":"m -35 -96 q 29 -92 6 -96 q 63 -79 51 -87 q 76 -57 74 -71 q 79 -25 79 -40 l 79 708 l 336 708 l 336 51 q 322 -130 336 -67 q 268 -225 307 -193 q 161 -267 229 -257 q -35 -276 93 -276 l -35 -96 z "},"ĵ":{"ha":415,"x_min":-46,"x_max":450,"o":"m -35 -96 q 29 -92 6 -96 q 63 -79 51 -87 q 76 -57 74 -71 q 79 -25 79 -40 l 79 708 l 336 708 l 336 51 q 322 -130 336 -67 q 268 -225 307 -193 q 161 -267 229 -257 q -35 -276 93 -276 l -35 -96 z "},"k":{"ha":800,"x_min":79,"x_max":790,"o":"m 79 1032 l 336 1032 l 336 0 l 79 0 l 79 1032 m 394 203 l 394 497 l 515 708 l 786 708 l 578 372 l 790 0 l 510 0 l 394 203 z "},"ķ":{"ha":800,"x_min":79,"x_max":790,"o":"m 79 1032 l 336 1032 l 336 0 l 79 0 l 79 1032 m 394 203 l 394 497 l 515 708 l 786 708 l 578 372 l 790 0 l 510 0 l 394 203 z "},"ĸ":{"ha":800,"x_min":79,"x_max":790,"o":"m 79 708 l 336 708 l 336 0 l 79 0 l 79 708 m 394 203 l 394 497 l 515 708 l 786 708 l 578 372 l 790 0 l 510 0 l 394 203 z "},"l":{"ha":415,"x_min":79,"x_max":336,"o":"m 79 1032 l 336 1032 l 336 0 l 79 0 l 79 1032 z "},"ĺ":{"ha":415,"x_min":79,"x_max":486,"o":"m 79 1032 l 336 1032 l 336 0 l 79 0 l 79 1032 z "},"ľ":{"ha":569,"x_min":79,"x_max":614,"o":"m 79 1032 l 336 1032 l 336 0 l 79 0 l 79 1032 m 371 735 q 417 739 400 735 q 443 753 433 743 q 454 776 451 763 q 457 818 457 790 l 457 836 l 371 836 l 371 1033 l 614 1033 l 614 885 q 606 765 614 808 q 575 697 599 722 q 501 658 549 669 q 371 646 454 646 l 371 735 z "},"ļ":{"ha":415,"x_min":79,"x_max":336,"o":"m 79 1032 l 336 1032 l 336 0 l 79 0 l 79 1032 z "},"ŀ":{"ha":624,"x_min":79,"x_max":658,"o":"m 79 1032 l 336 1032 l 336 0 l 79 0 l 79 1032 m 378 608 l 658 608 l 658 382 l 378 382 l 378 608 z "},"ǉ":{"ha":831,"x_min":79,"x_max":751,"o":"m 79 1032 l 336 1032 l 336 0 l 79 0 l 79 1032 m 494 1032 l 751 1032 l 751 832 l 494 832 l 494 1032 m 381 -96 q 444 -92 421 -96 q 478 -79 467 -87 q 492 -57 489 -71 q 494 -25 494 -40 l 494 708 l 751 708 l 751 51 q 737 -130 751 -67 q 683 -225 722 -193 q 576 -267 644 -257 q 381 -276 508 -276 l 381 -96 z "},"ł":{"ha":415,"x_min":-46,"x_max":456,"o":"m 456 547 l 336 481 l 336 0 l 79 0 l 79 339 l -46 269 l -46 476 l 79 546 l 79 1032 l 336 1032 l 336 688 l 456 754 l 456 547 z "},"m":{"ha":1190,"x_min":79,"x_max":1111,"o":"m 467 432 q 460 483 467 465 q 442 501 454 497 q 401 504 431 504 l 394 504 l 394 678 q 544 718 449 718 q 619 708 588 718 q 674 671 651 697 q 724 443 724 610 l 724 0 l 467 0 l 467 432 m 854 432 q 847 483 854 465 q 830 501 842 497 q 789 504 818 504 l 782 504 q 774 579 779 540 q 750 660 763 635 q 917 718 808 718 q 1078 642 1035 718 q 1104 560 1097 608 q 1111 443 1111 513 l 1111 0 l 854 0 l 854 432 m 79 708 l 336 708 l 336 0 l 79 0 l 79 708 z "},"n":{"ha":817,"x_min":79,"x_max":738,"o":"m 481 335 q 479 432 481 408 q 472 483 476 471 q 453 501 467 497 q 408 504 439 504 l 394 504 l 394 678 q 536 718 449 718 q 704 642 661 718 q 731 560 724 608 q 738 443 738 513 l 738 0 l 481 0 l 481 335 m 79 708 l 336 708 l 336 0 l 79 0 l 79 708 z "},"ń":{"ha":817,"x_min":79,"x_max":738,"o":"m 481 335 q 479 432 481 408 q 472 483 476 471 q 453 501 467 497 q 408 504 439 504 l 394 504 l 394 678 q 536 718 449 718 q 704 642 661 718 q 731 560 724 608 q 738 443 738 513 l 738 0 l 481 0 l 481 335 m 79 708 l 336 708 l 336 0 l 79 0 l 79 708 z "},"ŉ":{"ha":833,"x_min":32,"x_max":738,"o":"m 32 839 q 108 858 90 839 q 120 883 117 868 q 124 926 124 899 l 124 944 l 32 944 l 32 1150 l 288 1150 l 288 996 q 279 872 288 918 q 246 800 271 826 q 169 759 219 771 q 32 747 119 747 l 32 839 m 481 335 q 479 432 481 408 q 472 483 476 471 q 453 501 467 497 q 408 504 439 504 l 394 504 l 394 678 q 536 718 449 718 q 704 642 661 718 q 731 560 724 608 q 738 443 738 513 l 738 0 l 481 0 l 481 335 m 79 708 l 336 708 l 336 0 l 79 0 l 79 708 z "},"ň":{"ha":817,"x_min":79,"x_max":738,"o":"m 481 335 q 479 432 481 408 q 472 483 476 471 q 453 501 467 497 q 408 504 439 504 l 394 504 l 394 678 q 536 718 449 718 q 704 642 661 718 q 731 560 724 608 q 738 443 738 513 l 738 0 l 481 0 l 481 335 m 79 708 l 336 708 l 336 0 l 79 0 l 79 708 z "},"ņ":{"ha":817,"x_min":79,"x_max":738,"o":"m 481 335 q 479 432 481 408 q 472 483 476 471 q 453 501 467 497 q 408 504 439 504 l 394 504 l 394 678 q 536 718 449 718 q 704 642 661 718 q 731 560 724 608 q 738 443 738 513 l 738 0 l 481 0 l 481 335 m 79 708 l 336 708 l 336 0 l 79 0 l 79 708 z "},"ŋ":{"ha":817,"x_min":79,"x_max":738,"o":"m 367 -96 q 431 -92 408 -96 q 464 -79 453 -87 q 478 -57 475 -71 q 481 -25 481 -40 l 481 335 q 479 432 481 408 q 472 483 476 471 q 453 501 467 497 q 408 504 439 504 l 394 504 l 394 678 q 536 718 449 718 q 704 642 661 718 q 731 560 724 608 q 738 443 738 513 l 738 0 q 719 -144 735 -92 q 669 -225 704 -197 q 563 -267 631 -257 q 367 -276 494 -276 l 367 -96 m 79 708 l 336 708 l 336 0 l 79 0 l 79 708 z "},"ɲ":{"ha":817,"x_min":-35,"x_max":738,"o":"m 481 335 q 479 432 481 408 q 472 483 476 471 q 453 501 467 497 q 408 504 439 504 l 394 504 l 394 678 q 536 718 449 718 q 704 642 661 718 q 731 560 724 608 q 738 443 738 513 l 738 0 l 481 0 l 481 335 m -35 -96 q 29 -92 6 -96 q 63 -79 51 -87 q 76 -57 74 -71 q 79 -25 79 -40 l 79 708 l 336 708 l 336 51 q 322 -130 336 -67 q 268 -225 307 -193 q 161 -267 229 -257 q -35 -276 93 -276 l -35 -96 z "},"ǌ":{"ha":1232,"x_min":79,"x_max":1153,"o":"m 481 335 q 479 432 481 408 q 472 483 476 471 q 453 501 467 497 q 408 504 439 504 l 394 504 l 394 678 q 536 718 449 718 q 704 642 661 718 q 731 560 724 608 q 738 443 738 513 l 738 0 l 481 0 l 481 335 m 79 708 l 336 708 l 336 0 l 79 0 l 79 708 m 896 1032 l 1153 1032 l 1153 832 l 896 832 l 896 1032 m 782 -96 q 846 -92 822 -96 q 879 -79 868 -87 q 893 -57 890 -71 q 896 -25 896 -40 l 896 708 l 1153 708 l 1153 51 q 1138 -130 1153 -67 q 1085 -225 1124 -193 q 978 -267 1046 -257 q 782 -276 910 -276 l 782 -96 z "},"ñ":{"ha":817,"x_min":79,"x_max":738,"o":"m 481 335 q 479 432 481 408 q 472 483 476 471 q 453 501 467 497 q 408 504 439 504 l 394 504 l 394 678 q 536 718 449 718 q 704 642 661 718 q 731 560 724 608 q 738 443 738 513 l 738 0 l 481 0 l 481 335 m 79 708 l 336 708 l 336 0 l 79 0 l 79 708 z "},"o":{"ha":794,"x_min":58,"x_max":736,"o":"m 475 353 q 474 447 475 424 q 465 498 472 481 q 443 519 458 515 q 397 524 426 524 l 378 524 l 378 719 l 397 719 q 586 701 518 719 q 688 639 654 682 q 727 535 718 600 q 736 353 736 471 q 730 183 736 243 q 700 83 724 122 q 621 19 674 40 q 475 -8 568 -3 l 475 353 m 397 -11 q 208 7 276 -11 q 107 68 140 25 q 67 171 76 107 q 58 353 58 235 q 65 522 58 461 q 96 624 72 583 q 174 690 121 668 q 319 717 226 711 l 319 353 q 321 260 319 282 q 329 210 322 226 q 353 189 336 193 q 397 185 367 185 l 417 185 l 417 -11 l 397 -11 z "},"ó":{"ha":794,"x_min":58,"x_max":736,"o":"m 475 353 q 474 447 475 424 q 465 498 472 481 q 443 519 458 515 q 397 524 426 524 l 378 524 l 378 719 l 397 719 q 586 701 518 719 q 688 639 654 682 q 727 535 718 600 q 736 353 736 471 q 730 183 736 243 q 700 83 724 122 q 621 19 674 40 q 475 -8 568 -3 l 475 353 m 397 -11 q 208 7 276 -11 q 107 68 140 25 q 67 171 76 107 q 58 353 58 235 q 65 522 58 461 q 96 624 72 583 q 174 690 121 668 q 319 717 226 711 l 319 353 q 321 260 319 282 q 329 210 322 226 q 353 189 336 193 q 397 185 367 185 l 417 185 l 417 -11 l 397 -11 z "},"ŏ":{"ha":794,"x_min":58,"x_max":736,"o":"m 475 353 q 474 447 475 424 q 465 498 472 481 q 443 519 458 515 q 397 524 426 524 l 378 524 l 378 719 l 397 719 q 586 701 518 719 q 688 639 654 682 q 727 535 718 600 q 736 353 736 471 q 730 183 736 243 q 700 83 724 122 q 621 19 674 40 q 475 -8 568 -3 l 475 353 m 397 -11 q 208 7 276 -11 q 107 68 140 25 q 67 171 76 107 q 58 353 58 235 q 65 522 58 461 q 96 624 72 583 q 174 690 121 668 q 319 717 226 711 l 319 353 q 321 260 319 282 q 329 210 322 226 q 353 189 336 193 q 397 185 367 185 l 417 185 l 417 -11 l 397 -11 z "},"ǒ":{"ha":794,"x_min":58,"x_max":736,"o":"m 475 353 q 474 447 475 424 q 465 498 472 481 q 443 519 458 515 q 397 524 426 524 l 378 524 l 378 719 l 397 719 q 586 701 518 719 q 688 639 654 682 q 727 535 718 600 q 736 353 736 471 q 730 183 736 243 q 700 83 724 122 q 621 19 674 40 q 475 -8 568 -3 l 475 353 m 397 -11 q 208 7 276 -11 q 107 68 140 25 q 67 171 76 107 q 58 353 58 235 q 65 522 58 461 q 96 624 72 583 q 174 690 121 668 q 319 717 226 711 l 319 353 q 321 260 319 282 q 329 210 322 226 q 353 189 336 193 q 397 185 367 185 l 417 185 l 417 -11 l 397 -11 z "},"ô":{"ha":794,"x_min":58,"x_max":736,"o":"m 475 353 q 474 447 475 424 q 465 498 472 481 q 443 519 458 515 q 397 524 426 524 l 378 524 l 378 719 l 397 719 q 586 701 518 719 q 688 639 654 682 q 727 535 718 600 q 736 353 736 471 q 730 183 736 243 q 700 83 724 122 q 621 19 674 40 q 475 -8 568 -3 l 475 353 m 397 -11 q 208 7 276 -11 q 107 68 140 25 q 67 171 76 107 q 58 353 58 235 q 65 522 58 461 q 96 624 72 583 q 174 690 121 668 q 319 717 226 711 l 319 353 q 321 260 319 282 q 329 210 322 226 q 353 189 336 193 q 397 185 367 185 l 417 185 l 417 -11 l 397 -11 z "},"ố":{"ha":794,"x_min":58,"x_max":736,"o":"m 475 353 q 474 447 475 424 q 465 498 472 481 q 443 519 458 515 q 397 524 426 524 l 378 524 l 378 719 l 397 719 q 586 701 518 719 q 688 639 654 682 q 727 535 718 600 q 736 353 736 471 q 730 183 736 243 q 700 83 724 122 q 621 19 674 40 q 475 -8 568 -3 l 475 353 m 397 -11 q 208 7 276 -11 q 107 68 140 25 q 67 171 76 107 q 58 353 58 235 q 65 522 58 461 q 96 624 72 583 q 174 690 121 668 q 319 717 226 711 l 319 353 q 321 260 319 282 q 329 210 322 226 q 353 189 336 193 q 397 185 367 185 l 417 185 l 417 -11 l 397 -11 z "},"ộ":{"ha":794,"x_min":58,"x_max":736,"o":"m 475 353 q 474 447 475 424 q 465 498 472 481 q 443 519 458 515 q 397 524 426 524 l 378 524 l 378 719 l 397 719 q 586 701 518 719 q 688 639 654 682 q 727 535 718 600 q 736 353 736 471 q 730 183 736 243 q 700 83 724 122 q 621 19 674 40 q 475 -8 568 -3 l 475 353 m 397 -11 q 208 7 276 -11 q 107 68 140 25 q 67 171 76 107 q 58 353 58 235 q 65 522 58 461 q 96 624 72 583 q 174 690 121 668 q 319 717 226 711 l 319 353 q 321 260 319 282 q 329 210 322 226 q 353 189 336 193 q 397 185 367 185 l 417 185 l 417 -11 l 397 -11 z "},"ồ":{"ha":794,"x_min":58,"x_max":736,"o":"m 475 353 q 474 447 475 424 q 465 498 472 481 q 443 519 458 515 q 397 524 426 524 l 378 524 l 378 719 l 397 719 q 586 701 518 719 q 688 639 654 682 q 727 535 718 600 q 736 353 736 471 q 730 183 736 243 q 700 83 724 122 q 621 19 674 40 q 475 -8 568 -3 l 475 353 m 397 -11 q 208 7 276 -11 q 107 68 140 25 q 67 171 76 107 q 58 353 58 235 q 65 522 58 461 q 96 624 72 583 q 174 690 121 668 q 319 717 226 711 l 319 353 q 321 260 319 282 q 329 210 322 226 q 353 189 336 193 q 397 185 367 185 l 417 185 l 417 -11 l 397 -11 z "},"ổ":{"ha":794,"x_min":58,"x_max":736,"o":"m 475 353 q 474 447 475 424 q 465 498 472 481 q 443 519 458 515 q 397 524 426 524 l 378 524 l 378 719 l 397 719 q 586 701 518 719 q 688 639 654 682 q 727 535 718 600 q 736 353 736 471 q 730 183 736 243 q 700 83 724 122 q 621 19 674 40 q 475 -8 568 -3 l 475 353 m 397 -11 q 208 7 276 -11 q 107 68 140 25 q 67 171 76 107 q 58 353 58 235 q 65 522 58 461 q 96 624 72 583 q 174 690 121 668 q 319 717 226 711 l 319 353 q 321 260 319 282 q 329 210 322 226 q 353 189 336 193 q 397 185 367 185 l 417 185 l 417 -11 l 397 -11 z "},"ỗ":{"ha":794,"x_min":58,"x_max":736,"o":"m 475 353 q 474 447 475 424 q 465 498 472 481 q 443 519 458 515 q 397 524 426 524 l 378 524 l 378 719 l 397 719 q 586 701 518 719 q 688 639 654 682 q 727 535 718 600 q 736 353 736 471 q 730 183 736 243 q 700 83 724 122 q 621 19 674 40 q 475 -8 568 -3 l 475 353 m 397 -11 q 208 7 276 -11 q 107 68 140 25 q 67 171 76 107 q 58 353 58 235 q 65 522 58 461 q 96 624 72 583 q 174 690 121 668 q 319 717 226 711 l 319 353 q 321 260 319 282 q 329 210 322 226 q 353 189 336 193 q 397 185 367 185 l 417 185 l 417 -11 l 397 -11 z "},"ȍ":{"ha":794,"x_min":40,"x_max":736,"o":"m 475 353 q 474 447 475 424 q 465 498 472 481 q 443 519 458 515 q 397 524 426 524 l 378 524 l 378 719 l 397 719 q 586 701 518 719 q 688 639 654 682 q 727 535 718 600 q 736 353 736 471 q 730 183 736 243 q 700 83 724 122 q 621 19 674 40 q 475 -8 568 -3 l 475 353 m 397 -11 q 208 7 276 -11 q 107 68 140 25 q 67 171 76 107 q 58 353 58 235 q 65 522 58 461 q 96 624 72 583 q 174 690 121 668 q 319 717 226 711 l 319 353 q 321 260 319 282 q 329 210 322 226 q 353 189 336 193 q 397 185 367 185 l 417 185 l 417 -11 l 397 -11 z "},"ö":{"ha":794,"x_min":58,"x_max":736,"o":"m 475 353 q 474 447 475 424 q 465 498 472 481 q 443 519 458 515 q 397 524 426 524 l 378 524 l 378 719 l 397 719 q 586 701 518 719 q 688 639 654 682 q 727 535 718 600 q 736 353 736 471 q 730 183 736 243 q 700 83 724 122 q 621 19 674 40 q 475 -8 568 -3 l 475 353 m 397 -11 q 208 7 276 -11 q 107 68 140 25 q 67 171 76 107 q 58 353 58 235 q 65 522 58 461 q 96 624 72 583 q 174 690 121 668 q 319 717 226 711 l 319 353 q 321 260 319 282 q 329 210 322 226 q 353 189 336 193 q 397 185 367 185 l 417 185 l 417 -11 l 397 -11 z "},"ȫ":{"ha":794,"x_min":58,"x_max":736,"o":"m 475 353 q 474 447 475 424 q 465 498 472 481 q 443 519 458 515 q 397 524 426 524 l 378 524 l 378 719 l 397 719 q 586 701 518 719 q 688 639 654 682 q 727 535 718 600 q 736 353 736 471 q 730 183 736 243 q 700 83 724 122 q 621 19 674 40 q 475 -8 568 -3 l 475 353 m 397 -11 q 208 7 276 -11 q 107 68 140 25 q 67 171 76 107 q 58 353 58 235 q 65 522 58 461 q 96 624 72 583 q 174 690 121 668 q 319 717 226 711 l 319 353 q 321 260 319 282 q 329 210 322 226 q 353 189 336 193 q 397 185 367 185 l 417 185 l 417 -11 l 397 -11 z "},"ȱ":{"ha":794,"x_min":58,"x_max":736,"o":"m 475 353 q 474 447 475 424 q 465 498 472 481 q 443 519 458 515 q 397 524 426 524 l 378 524 l 378 719 l 397 719 q 586 701 518 719 q 688 639 654 682 q 727 535 718 600 q 736 353 736 471 q 730 183 736 243 q 700 83 724 122 q 621 19 674 40 q 475 -8 568 -3 l 475 353 m 397 -11 q 208 7 276 -11 q 107 68 140 25 q 67 171 76 107 q 58 353 58 235 q 65 522 58 461 q 96 624 72 583 q 174 690 121 668 q 319 717 226 711 l 319 353 q 321 260 319 282 q 329 210 322 226 q 353 189 336 193 q 397 185 367 185 l 417 185 l 417 -11 l 397 -11 z "},"ọ":{"ha":794,"x_min":58,"x_max":736,"o":"m 475 353 q 474 447 475 424 q 465 498 472 481 q 443 519 458 515 q 397 524 426 524 l 378 524 l 378 719 l 397 719 q 586 701 518 719 q 688 639 654 682 q 727 535 718 600 q 736 353 736 471 q 730 183 736 243 q 700 83 724 122 q 621 19 674 40 q 475 -8 568 -3 l 475 353 m 397 -11 q 208 7 276 -11 q 107 68 140 25 q 67 171 76 107 q 58 353 58 235 q 65 522 58 461 q 96 624 72 583 q 174 690 121 668 q 319 717 226 711 l 319 353 q 321 260 319 282 q 329 210 322 226 q 353 189 336 193 q 397 185 367 185 l 417 185 l 417 -11 l 397 -11 z "},"ò":{"ha":794,"x_min":58,"x_max":736,"o":"m 475 353 q 474 447 475 424 q 465 498 472 481 q 443 519 458 515 q 397 524 426 524 l 378 524 l 378 719 l 397 719 q 586 701 518 719 q 688 639 654 682 q 727 535 718 600 q 736 353 736 471 q 730 183 736 243 q 700 83 724 122 q 621 19 674 40 q 475 -8 568 -3 l 475 353 m 397 -11 q 208 7 276 -11 q 107 68 140 25 q 67 171 76 107 q 58 353 58 235 q 65 522 58 461 q 96 624 72 583 q 174 690 121 668 q 319 717 226 711 l 319 353 q 321 260 319 282 q 329 210 322 226 q 353 189 336 193 q 397 185 367 185 l 417 185 l 417 -11 l 397 -11 z "},"ỏ":{"ha":794,"x_min":58,"x_max":736,"o":"m 475 353 q 474 447 475 424 q 465 498 472 481 q 443 519 458 515 q 397 524 426 524 l 378 524 l 378 719 l 397 719 q 586 701 518 719 q 688 639 654 682 q 727 535 718 600 q 736 353 736 471 q 730 183 736 243 q 700 83 724 122 q 621 19 674 40 q 475 -8 568 -3 l 475 353 m 397 -11 q 208 7 276 -11 q 107 68 140 25 q 67 171 76 107 q 58 353 58 235 q 65 522 58 461 q 96 624 72 583 q 174 690 121 668 q 319 717 226 711 l 319 353 q 321 260 319 282 q 329 210 322 226 q 353 189 336 193 q 397 185 367 185 l 417 185 l 417 -11 l 397 -11 z "},"ơ":{"ha":794,"x_min":58,"x_max":838,"o":"m 838 782 q 829 694 838 731 q 799 632 821 658 q 717 583 768 597 q 732 490 728 544 q 736 353 736 436 q 730 183 736 243 q 700 83 724 122 q 621 19 674 40 q 475 -8 568 -3 l 475 353 q 474 447 475 424 q 465 498 472 481 q 443 519 458 515 q 397 524 426 524 l 378 524 l 378 719 l 397 719 q 551 708 485 719 l 617 708 q 685 729 667 708 q 693 749 692 738 q 694 782 694 761 l 838 782 m 353 189 q 397 185 367 185 l 417 185 l 417 -11 l 397 -11 q 208 7 276 -11 q 107 68 140 25 q 67 171 76 107 q 58 353 58 235 q 65 522 58 461 q 96 624 72 583 q 174 690 121 668 q 319 717 226 711 l 319 353 q 321 260 319 282 q 329 210 322 226 q 353 189 336 193 z "},"ớ":{"ha":794,"x_min":58,"x_max":838,"o":"m 838 782 q 829 694 838 731 q 799 632 821 658 q 717 583 768 597 q 732 490 728 544 q 736 353 736 436 q 730 183 736 243 q 700 83 724 122 q 621 19 674 40 q 475 -8 568 -3 l 475 353 q 474 447 475 424 q 465 498 472 481 q 443 519 458 515 q 397 524 426 524 l 378 524 l 378 719 l 397 719 q 551 708 485 719 l 617 708 q 685 729 667 708 q 693 749 692 738 q 694 782 694 761 l 838 782 m 353 189 q 397 185 367 185 l 417 185 l 417 -11 l 397 -11 q 208 7 276 -11 q 107 68 140 25 q 67 171 76 107 q 58 353 58 235 q 65 522 58 461 q 96 624 72 583 q 174 690 121 668 q 319 717 226 711 l 319 353 q 321 260 319 282 q 329 210 322 226 q 353 189 336 193 z "},"ợ":{"ha":794,"x_min":58,"x_max":838,"o":"m 838 782 q 829 694 838 731 q 799 632 821 658 q 717 583 768 597 q 732 490 728 544 q 736 353 736 436 q 730 183 736 243 q 700 83 724 122 q 621 19 674 40 q 475 -8 568 -3 l 475 353 q 474 447 475 424 q 465 498 472 481 q 443 519 458 515 q 397 524 426 524 l 378 524 l 378 719 l 397 719 q 551 708 485 719 l 617 708 q 685 729 667 708 q 693 749 692 738 q 694 782 694 761 l 838 782 m 353 189 q 397 185 367 185 l 417 185 l 417 -11 l 397 -11 q 208 7 276 -11 q 107 68 140 25 q 67 171 76 107 q 58 353 58 235 q 65 522 58 461 q 96 624 72 583 q 174 690 121 668 q 319 717 226 711 l 319 353 q 321 260 319 282 q 329 210 322 226 q 353 189 336 193 z "},"ờ":{"ha":794,"x_min":58,"x_max":838,"o":"m 838 782 q 829 694 838 731 q 799 632 821 658 q 717 583 768 597 q 732 490 728 544 q 736 353 736 436 q 730 183 736 243 q 700 83 724 122 q 621 19 674 40 q 475 -8 568 -3 l 475 353 q 474 447 475 424 q 465 498 472 481 q 443 519 458 515 q 397 524 426 524 l 378 524 l 378 719 l 397 719 q 551 708 485 719 l 617 708 q 685 729 667 708 q 693 749 692 738 q 694 782 694 761 l 838 782 m 353 189 q 397 185 367 185 l 417 185 l 417 -11 l 397 -11 q 208 7 276 -11 q 107 68 140 25 q 67 171 76 107 q 58 353 58 235 q 65 522 58 461 q 96 624 72 583 q 174 690 121 668 q 319 717 226 711 l 319 353 q 321 260 319 282 q 329 210 322 226 q 353 189 336 193 z "},"ở":{"ha":794,"x_min":58,"x_max":838,"o":"m 838 782 q 829 694 838 731 q 799 632 821 658 q 717 583 768 597 q 732 490 728 544 q 736 353 736 436 q 730 183 736 243 q 700 83 724 122 q 621 19 674 40 q 475 -8 568 -3 l 475 353 q 474 447 475 424 q 465 498 472 481 q 443 519 458 515 q 397 524 426 524 l 378 524 l 378 719 l 397 719 q 551 708 485 719 l 617 708 q 685 729 667 708 q 693 749 692 738 q 694 782 694 761 l 838 782 m 353 189 q 397 185 367 185 l 417 185 l 417 -11 l 397 -11 q 208 7 276 -11 q 107 68 140 25 q 67 171 76 107 q 58 353 58 235 q 65 522 58 461 q 96 624 72 583 q 174 690 121 668 q 319 717 226 711 l 319 353 q 321 260 319 282 q 329 210 322 226 q 353 189 336 193 z "},"ỡ":{"ha":794,"x_min":58,"x_max":838,"o":"m 838 782 q 829 694 838 731 q 799 632 821 658 q 717 583 768 597 q 732 490 728 544 q 736 353 736 436 q 730 183 736 243 q 700 83 724 122 q 621 19 674 40 q 475 -8 568 -3 l 475 353 q 474 447 475 424 q 465 498 472 481 q 443 519 458 515 q 397 524 426 524 l 378 524 l 378 719 l 397 719 q 551 708 485 719 l 617 708 q 685 729 667 708 q 693 749 692 738 q 694 782 694 761 l 838 782 m 353 189 q 397 185 367 185 l 417 185 l 417 -11 l 397 -11 q 208 7 276 -11 q 107 68 140 25 q 67 171 76 107 q 58 353 58 235 q 65 522 58 461 q 96 624 72 583 q 174 690 121 668 q 319 717 226 711 l 319 353 q 321 260 319 282 q 329 210 322 226 q 353 189 336 193 z "},"ő":{"ha":794,"x_min":58,"x_max":765,"o":"m 475 353 q 474 447 475 424 q 465 498 472 481 q 443 519 458 515 q 397 524 426 524 l 378 524 l 378 719 l 397 719 q 586 701 518 719 q 688 639 654 682 q 727 535 718 600 q 736 353 736 471 q 730 183 736 243 q 700 83 724 122 q 621 19 674 40 q 475 -8 568 -3 l 475 353 m 397 -11 q 208 7 276 -11 q 107 68 140 25 q 67 171 76 107 q 58 353 58 235 q 65 522 58 461 q 96 624 72 583 q 174 690 121 668 q 319 717 226 711 l 319 353 q 321 260 319 282 q 329 210 322 226 q 353 189 336 193 q 397 185 367 185 l 417 185 l 417 -11 l 397 -11 z "},"ȏ":{"ha":794,"x_min":58,"x_max":736,"o":"m 475 353 q 474 447 475 424 q 465 498 472 481 q 443 519 458 515 q 397 524 426 524 l 378 524 l 378 719 l 397 719 q 586 701 518 719 q 688 639 654 682 q 727 535 718 600 q 736 353 736 471 q 730 183 736 243 q 700 83 724 122 q 621 19 674 40 q 475 -8 568 -3 l 475 353 m 397 -11 q 208 7 276 -11 q 107 68 140 25 q 67 171 76 107 q 58 353 58 235 q 65 522 58 461 q 96 624 72 583 q 174 690 121 668 q 319 717 226 711 l 319 353 q 321 260 319 282 q 329 210 322 226 q 353 189 336 193 q 397 185 367 185 l 417 185 l 417 -11 l 397 -11 z "},"ō":{"ha":794,"x_min":58,"x_max":736,"o":"m 475 353 q 474 447 475 424 q 465 498 472 481 q 443 519 458 515 q 397 524 426 524 l 378 524 l 378 719 l 397 719 q 586 701 518 719 q 688 639 654 682 q 727 535 718 600 q 736 353 736 471 q 730 183 736 243 q 700 83 724 122 q 621 19 674 40 q 475 -8 568 -3 l 475 353 m 397 -11 q 208 7 276 -11 q 107 68 140 25 q 67 171 76 107 q 58 353 58 235 q 65 522 58 461 q 96 624 72 583 q 174 690 121 668 q 319 717 226 711 l 319 353 q 321 260 319 282 q 329 210 322 226 q 353 189 336 193 q 397 185 367 185 l 417 185 l 417 -11 l 397 -11 z "},"ǫ":{"ha":794,"x_min":58,"x_max":736,"o":"m 319 -8 q 174 19 226 -3 q 94 83 121 40 q 65 183 71 122 q 58 353 58 243 q 67 535 58 471 q 107 639 76 600 q 208 701 140 682 q 397 719 276 719 l 417 719 l 417 524 l 397 524 q 351 519 368 524 q 329 498 336 515 q 321 447 322 481 q 319 353 319 424 l 319 -8 m 699 624 q 729 522 722 583 q 736 353 736 461 q 727 171 736 235 q 688 68 718 107 q 622 19 664 38 q 515 -97 515 -33 q 529 -132 515 -119 q 581 -144 543 -144 l 596 -144 q 604 -143 601 -144 l 604 -267 l 571 -269 q 500 -272 529 -272 q 354 -236 400 -272 q 315 -150 315 -206 q 333 -82 315 -119 q 378 -10 350 -44 l 378 185 l 397 185 q 442 189 428 185 q 465 210 458 193 q 474 260 472 226 q 475 353 475 282 l 475 717 q 621 690 568 711 q 699 624 674 668 z "},"ø":{"ha":794,"x_min":39,"x_max":739,"o":"m 663 664 q 688 639 678 654 q 727 535 718 600 q 736 353 736 471 q 730 183 736 243 q 700 83 724 122 q 621 19 674 40 q 475 -8 568 -3 l 475 353 q 474 447 475 424 q 465 498 472 481 q 443 519 458 515 q 397 524 426 524 l 378 524 l 378 719 l 397 719 q 469 718 447 719 l 515 801 l 739 801 l 663 664 m 353 189 q 397 185 367 185 l 417 185 l 417 -11 l 397 -11 q 304 -8 360 -11 l 261 -83 l 39 -83 l 117 57 l 107 68 q 67 171 76 107 q 58 353 58 235 q 65 522 58 461 q 96 624 72 583 q 174 690 121 668 q 319 717 226 711 l 319 353 q 321 260 319 282 q 329 210 322 226 q 353 189 336 193 z "},"ǿ":{"ha":794,"x_min":39,"x_max":739,"o":"m 663 664 q 688 639 678 654 q 727 535 718 600 q 736 353 736 471 q 730 183 736 243 q 700 83 724 122 q 621 19 674 40 q 475 -8 568 -3 l 475 353 q 474 447 475 424 q 465 498 472 481 q 443 519 458 515 q 397 524 426 524 l 378 524 l 378 719 l 397 719 q 469 718 447 719 l 515 801 l 739 801 l 663 664 m 353 189 q 397 185 367 185 l 417 185 l 417 -11 l 397 -11 q 304 -8 360 -11 l 261 -83 l 39 -83 l 117 57 l 107 68 q 67 171 76 107 q 58 353 58 235 q 65 522 58 461 q 96 624 72 583 q 174 690 121 668 q 319 717 226 711 l 319 353 q 321 260 319 282 q 329 210 322 226 q 353 189 336 193 z "},"õ":{"ha":794,"x_min":58,"x_max":736,"o":"m 475 353 q 474 447 475 424 q 465 498 472 481 q 443 519 458 515 q 397 524 426 524 l 378 524 l 378 719 l 397 719 q 586 701 518 719 q 688 639 654 682 q 727 535 718 600 q 736 353 736 471 q 730 183 736 243 q 700 83 724 122 q 621 19 674 40 q 475 -8 568 -3 l 475 353 m 397 -11 q 208 7 276 -11 q 107 68 140 25 q 67 171 76 107 q 58 353 58 235 q 65 522 58 461 q 96 624 72 583 q 174 690 121 668 q 319 717 226 711 l 319 353 q 321 260 319 282 q 329 210 322 226 q 353 189 336 193 q 397 185 367 185 l 417 185 l 417 -11 l 397 -11 z "},"ȭ":{"ha":794,"x_min":58,"x_max":736,"o":"m 475 353 q 474 447 475 424 q 465 498 472 481 q 443 519 458 515 q 397 524 426 524 l 378 524 l 378 719 l 397 719 q 586 701 518 719 q 688 639 654 682 q 727 535 718 600 q 736 353 736 471 q 730 183 736 243 q 700 83 724 122 q 621 19 674 40 q 475 -8 568 -3 l 475 353 m 397 -11 q 208 7 276 -11 q 107 68 140 25 q 67 171 76 107 q 58 353 58 235 q 65 522 58 461 q 96 624 72 583 q 174 690 121 668 q 319 717 226 711 l 319 353 q 321 260 319 282 q 329 210 322 226 q 353 189 336 193 q 397 185 367 185 l 417 185 l 417 -11 l 397 -11 z "},"œ":{"ha":1196,"x_min":58,"x_max":1133,"o":"m 842 -11 q 618 32 701 -11 q 475 -7 564 1 l 475 353 q 474 447 475 424 q 465 498 472 481 q 443 519 458 515 q 397 524 426 524 l 378 524 l 378 719 l 397 719 q 613 678 540 719 q 736 714 665 704 l 736 297 q 740 230 736 250 q 760 200 744 210 q 811 188 776 189 q 906 185 856 185 q 1035 189 994 185 l 1106 194 l 1106 15 q 953 -7 1050 -1 q 842 -11 904 -11 m 794 424 l 892 424 q 876 524 892 501 q 854 540 868 536 q 814 543 840 543 l 794 543 l 794 719 l 814 719 q 998 700 933 719 q 1093 636 1063 681 q 1127 536 1121 597 q 1133 353 1133 475 l 1133 297 l 794 297 l 794 424 m 397 -11 q 208 7 276 -11 q 107 68 140 25 q 67 171 76 107 q 58 353 58 235 q 65 522 58 461 q 96 624 72 583 q 174 690 121 668 q 319 717 226 711 l 319 353 q 321 260 319 282 q 329 210 322 226 q 353 189 336 193 q 397 185 367 185 l 417 185 l 417 -11 l 397 -11 z "},"p":{"ha":803,"x_min":79,"x_max":744,"o":"m 536 -10 q 454 -2 486 -10 q 394 28 422 6 l 394 204 l 410 204 q 453 208 440 204 q 474 224 467 211 q 482 268 481 239 q 483 354 483 289 q 482 440 483 419 q 474 485 481 471 q 453 501 468 499 q 410 504 433 504 l 394 504 l 394 681 q 456 710 422 701 q 536 718 490 718 q 631 700 592 718 q 696 642 671 682 q 744 357 744 561 q 696 71 744 154 q 536 -10 647 -10 m 79 708 l 336 708 l 336 -276 l 79 -276 l 79 708 z "},"þ":{"ha":803,"x_min":79,"x_max":744,"o":"m 79 1032 l 336 1032 l 336 -262 l 79 -262 l 79 1032 m 536 -10 q 454 -2 486 -10 q 394 28 422 6 l 394 204 l 410 204 q 453 208 440 204 q 474 224 467 211 q 482 268 481 239 q 483 354 483 289 q 482 440 483 419 q 474 485 481 471 q 453 501 468 499 q 410 504 433 504 l 394 504 l 394 676 q 454 709 421 700 q 536 718 488 718 q 631 700 592 718 q 696 642 671 682 q 744 357 744 561 q 696 71 744 154 q 536 -10 647 -10 z "},"q":{"ha":803,"x_min":58,"x_max":724,"o":"m 267 -10 q 108 71 156 -10 q 58 357 58 153 q 70 531 58 461 q 108 642 82 600 q 172 700 132 682 q 267 718 211 718 q 347 710 313 718 q 408 681 381 701 l 408 504 l 393 504 q 349 501 363 504 q 329 485 336 497 q 321 440 322 469 q 319 354 319 419 q 321 268 319 289 q 329 224 322 239 q 351 207 336 210 q 393 204 371 204 l 408 204 l 408 28 q 349 -2 381 6 q 267 -10 317 -10 m 467 708 l 724 708 l 724 -276 l 467 -276 l 467 708 z "},"r":{"ha":590,"x_min":79,"x_max":561,"o":"m 394 668 q 463 708 424 696 q 561 719 503 719 l 561 488 q 459 479 499 488 q 394 450 419 471 l 394 668 m 79 708 l 336 708 l 336 0 l 79 0 l 79 708 z "},"ŕ":{"ha":590,"x_min":79,"x_max":567,"o":"m 394 668 q 463 708 424 696 q 561 719 503 719 l 561 488 q 459 479 499 488 q 394 450 419 471 l 394 668 m 79 708 l 336 708 l 336 0 l 79 0 l 79 708 z "},"ř":{"ha":590,"x_min":51,"x_max":561,"o":"m 394 668 q 463 708 424 696 q 561 719 503 719 l 561 488 q 459 479 499 488 q 394 450 419 471 l 394 668 m 79 708 l 336 708 l 336 0 l 79 0 l 79 708 z "},"ŗ":{"ha":590,"x_min":79,"x_max":561,"o":"m 394 668 q 463 708 424 696 q 561 719 503 719 l 561 488 q 459 479 499 488 q 394 450 419 471 l 394 668 m 79 708 l 336 708 l 336 0 l 79 0 l 79 708 z "},"ȑ":{"ha":590,"x_min":-62,"x_max":561,"o":"m 394 668 q 463 708 424 696 q 561 719 503 719 l 561 488 q 459 479 499 488 q 394 450 419 471 l 394 668 m 79 708 l 336 708 l 336 0 l 79 0 l 79 708 z "},"ȓ":{"ha":590,"x_min":79,"x_max":561,"o":"m 394 668 q 463 708 424 696 q 561 719 503 719 l 561 488 q 459 479 499 488 q 394 450 419 471 l 394 668 m 79 708 l 336 708 l 336 0 l 79 0 l 79 708 z "},"s":{"ha":692,"x_min":49,"x_max":643,"o":"m 604 515 q 532 522 578 517 q 393 531 446 531 l 347 531 l 347 719 q 535 706 446 719 l 604 693 l 604 515 m 403 215 q 396 242 403 236 q 367 250 389 247 l 217 271 q 127 297 161 279 q 76 346 93 315 q 54 410 60 372 q 49 503 49 447 q 117 669 49 617 q 289 718 174 711 l 289 500 q 294 473 289 479 q 329 463 300 467 l 496 440 q 558 426 532 436 q 603 394 585 415 q 643 224 643 350 q 575 38 643 90 q 403 -10 515 -7 l 403 215 m 344 -11 q 150 3 233 -10 l 71 15 l 71 193 q 221 182 126 188 q 296 179 274 179 l 344 179 l 344 -11 z "},"ś":{"ha":692,"x_min":49,"x_max":643,"o":"m 604 515 q 532 522 578 517 q 393 531 446 531 l 347 531 l 347 719 q 535 706 446 719 l 604 693 l 604 515 m 403 215 q 396 242 403 236 q 367 250 389 247 l 217 271 q 127 297 161 279 q 76 346 93 315 q 54 410 60 372 q 49 503 49 447 q 117 669 49 617 q 289 718 174 711 l 289 500 q 294 473 289 479 q 329 463 300 467 l 496 440 q 558 426 532 436 q 603 394 585 415 q 643 224 643 350 q 575 38 643 90 q 403 -10 515 -7 l 403 215 m 344 -11 q 150 3 233 -10 l 71 15 l 71 193 q 221 182 126 188 q 296 179 274 179 l 344 179 l 344 -11 z "},"š":{"ha":692,"x_min":49,"x_max":643,"o":"m 604 515 q 532 522 578 517 q 393 531 446 531 l 347 531 l 347 719 q 535 706 446 719 l 604 693 l 604 515 m 403 215 q 396 242 403 236 q 367 250 389 247 l 217 271 q 127 297 161 279 q 76 346 93 315 q 54 410 60 372 q 49 503 49 447 q 117 669 49 617 q 289 718 174 711 l 289 500 q 294 473 289 479 q 329 463 300 467 l 496 440 q 558 426 532 436 q 603 394 585 415 q 643 224 643 350 q 575 38 643 90 q 403 -10 515 -7 l 403 215 m 344 -11 q 150 3 233 -10 l 71 15 l 71 193 q 221 182 126 188 q 296 179 274 179 l 344 179 l 344 -11 z "},"ş":{"ha":692,"x_min":49,"x_max":643,"o":"m 604 515 q 532 522 578 517 q 393 531 446 531 l 347 531 l 347 719 q 535 706 446 719 l 604 693 l 604 515 m 403 215 q 396 242 403 236 q 367 250 389 247 l 217 271 q 127 297 161 279 q 76 346 93 315 q 54 410 60 372 q 49 503 49 447 q 117 669 49 617 q 289 718 174 711 l 289 500 q 294 473 289 479 q 329 463 300 467 l 496 440 q 558 426 532 436 q 603 394 585 415 q 643 224 643 350 q 575 38 643 90 q 403 -10 515 -7 l 403 215 m 344 -11 q 150 3 233 -10 l 71 15 l 71 193 q 221 182 126 188 q 296 179 274 179 l 344 179 l 344 -11 z "},"ŝ":{"ha":692,"x_min":49,"x_max":643,"o":"m 604 515 q 532 522 578 517 q 393 531 446 531 l 347 531 l 347 719 q 535 706 446 719 l 604 693 l 604 515 m 403 215 q 396 242 403 236 q 367 250 389 247 l 217 271 q 127 297 161 279 q 76 346 93 315 q 54 410 60 372 q 49 503 49 447 q 117 669 49 617 q 289 718 174 711 l 289 500 q 294 473 289 479 q 329 463 300 467 l 496 440 q 558 426 532 436 q 603 394 585 415 q 643 224 643 350 q 575 38 643 90 q 403 -10 515 -7 l 403 215 m 344 -11 q 150 3 233 -10 l 71 15 l 71 193 q 221 182 126 188 q 296 179 274 179 l 344 179 l 344 -11 z "},"ș":{"ha":692,"x_min":49,"x_max":643,"o":"m 604 515 q 532 522 578 517 q 393 531 446 531 l 347 531 l 347 719 q 535 706 446 719 l 604 693 l 604 515 m 403 215 q 396 242 403 236 q 367 250 389 247 l 217 271 q 127 297 161 279 q 76 346 93 315 q 54 410 60 372 q 49 503 49 447 q 117 669 49 617 q 289 718 174 711 l 289 500 q 294 473 289 479 q 329 463 300 467 l 496 440 q 558 426 532 436 q 603 394 585 415 q 643 224 643 350 q 575 38 643 90 q 403 -10 515 -7 l 403 215 m 344 -11 q 150 3 233 -10 l 71 15 l 71 193 q 221 182 126 188 q 296 179 274 179 l 344 179 l 344 -11 z "},"ß":{"ha":826,"x_min":79,"x_max":768,"o":"m 397 196 l 414 196 q 466 199 450 196 q 490 213 482 201 q 504 253 500 224 q 507 329 507 289 q 503 407 507 381 q 489 446 499 433 q 460 461 479 458 q 411 463 447 463 l 397 463 l 397 658 l 411 658 q 459 662 443 658 q 483 675 475 665 q 492 700 490 685 q 493 753 493 715 q 478 832 493 815 q 456 844 469 840 q 418 847 442 847 q 396 846 400 847 l 396 1042 l 418 1042 q 689 969 608 1042 q 740 888 725 936 q 756 775 756 840 q 717 634 756 683 q 594 569 678 585 l 594 564 q 724 494 683 549 q 768 313 768 435 q 756 167 768 224 q 710 74 743 110 q 610 18 675 36 q 442 0 546 0 l 397 0 l 397 196 m 79 765 q 135 958 79 894 q 215 1011 165 992 q 338 1038 264 1031 l 338 0 l 79 0 l 79 765 z "},"ſ":{"ha":607,"x_min":25,"x_max":582,"o":"m 25 708 l 156 708 l 156 724 q 172 903 156 842 q 233 992 189 964 q 349 1025 275 1018 q 582 1032 422 1032 l 582 854 q 488 853 510 854 q 437 843 454 851 q 417 818 419 835 q 413 771 413 801 l 413 513 l 25 513 l 25 708 m 156 457 l 413 457 l 413 0 l 156 0 l 156 457 z "},"t":{"ha":593,"x_min":25,"x_max":568,"o":"m 25 708 l 156 708 l 156 914 l 413 914 l 413 708 l 568 708 l 568 513 l 25 513 l 25 708 m 156 457 l 413 457 l 413 0 l 156 0 l 156 457 z "},"ŧ":{"ha":593,"x_min":25,"x_max":568,"o":"m 568 708 l 568 513 l 25 513 l 25 708 l 156 708 l 156 914 l 413 914 l 413 708 l 568 708 m 413 367 l 536 367 l 536 160 l 413 160 l 413 0 l 156 0 l 156 160 l 35 160 l 35 367 l 156 367 l 156 457 l 413 457 l 413 367 z "},"ť":{"ha":593,"x_min":25,"x_max":738,"o":"m 25 708 l 156 708 l 156 914 l 413 914 l 413 708 l 568 708 l 568 513 l 25 513 l 25 708 m 156 457 l 413 457 l 413 0 l 156 0 l 156 457 m 494 818 q 540 822 524 818 q 567 836 557 826 q 578 860 575 846 q 581 901 581 874 l 581 919 l 494 919 l 494 1117 l 738 1117 l 738 968 q 730 849 738 892 q 699 781 722 806 q 625 741 672 753 q 494 729 578 729 l 494 818 z "},"ţ":{"ha":593,"x_min":25,"x_max":568,"o":"m 25 708 l 156 708 l 156 914 l 413 914 l 413 708 l 568 708 l 568 513 l 25 513 l 25 708 m 156 457 l 413 457 l 413 0 l 156 0 l 156 457 z "},"ț":{"ha":593,"x_min":25,"x_max":568,"o":"m 25 708 l 156 708 l 156 914 l 413 914 l 413 708 l 568 708 l 568 513 l 25 513 l 25 708 m 156 457 l 413 457 l 413 0 l 156 0 l 156 457 z "},"ṭ":{"ha":593,"x_min":25,"x_max":568,"o":"m 25 708 l 156 708 l 156 914 l 413 914 l 413 708 l 568 708 l 568 513 l 25 513 l 25 708 m 156 457 l 413 457 l 413 0 l 156 0 l 156 457 z "},"u":{"ha":814,"x_min":76,"x_max":735,"o":"m 278 -10 q 110 67 153 -10 q 83 148 90 100 q 76 265 76 196 l 76 708 l 333 708 l 333 374 q 335 276 333 300 q 343 226 338 242 q 361 208 349 211 q 406 204 374 204 l 419 204 l 419 31 q 278 -10 365 -10 m 478 708 l 735 708 l 735 0 l 478 0 l 478 708 z "},"ú":{"ha":814,"x_min":76,"x_max":735,"o":"m 278 -10 q 110 67 153 -10 q 83 148 90 100 q 76 265 76 196 l 76 708 l 333 708 l 333 374 q 335 276 333 300 q 343 226 338 242 q 361 208 349 211 q 406 204 374 204 l 419 204 l 419 31 q 278 -10 365 -10 m 478 708 l 735 708 l 735 0 l 478 0 l 478 708 z "},"ŭ":{"ha":814,"x_min":76,"x_max":735,"o":"m 278 -10 q 110 67 153 -10 q 83 148 90 100 q 76 265 76 196 l 76 708 l 333 708 l 333 374 q 335 276 333 300 q 343 226 338 242 q 361 208 349 211 q 406 204 374 204 l 419 204 l 419 31 q 278 -10 365 -10 m 478 708 l 735 708 l 735 0 l 478 0 l 478 708 z "},"ǔ":{"ha":814,"x_min":76,"x_max":735,"o":"m 278 -10 q 110 67 153 -10 q 83 148 90 100 q 76 265 76 196 l 76 708 l 333 708 l 333 374 q 335 276 333 300 q 343 226 338 242 q 361 208 349 211 q 406 204 374 204 l 419 204 l 419 31 q 278 -10 365 -10 m 478 708 l 735 708 l 735 0 l 478 0 l 478 708 z "},"û":{"ha":814,"x_min":76,"x_max":735,"o":"m 278 -10 q 110 67 153 -10 q 83 148 90 100 q 76 265 76 196 l 76 708 l 333 708 l 333 374 q 335 276 333 300 q 343 226 338 242 q 361 208 349 211 q 406 204 374 204 l 419 204 l 419 31 q 278 -10 365 -10 m 478 708 l 735 708 l 735 0 l 478 0 l 478 708 z "},"ȕ":{"ha":814,"x_min":46,"x_max":735,"o":"m 278 -10 q 110 67 153 -10 q 83 148 90 100 q 76 265 76 196 l 76 708 l 333 708 l 333 374 q 335 276 333 300 q 343 226 338 242 q 361 208 349 211 q 406 204 374 204 l 419 204 l 419 31 q 278 -10 365 -10 m 478 708 l 735 708 l 735 0 l 478 0 l 478 708 z "},"ü":{"ha":814,"x_min":76,"x_max":735,"o":"m 278 -10 q 110 67 153 -10 q 83 148 90 100 q 76 265 76 196 l 76 708 l 333 708 l 333 374 q 335 276 333 300 q 343 226 338 242 q 361 208 349 211 q 406 204 374 204 l 419 204 l 419 31 q 278 -10 365 -10 m 478 708 l 735 708 l 735 0 l 478 0 l 478 708 z "},"ǘ":{"ha":814,"x_min":76,"x_max":735,"o":"m 278 -10 q 110 67 153 -10 q 83 148 90 100 q 76 265 76 196 l 76 708 l 333 708 l 333 374 q 335 276 333 300 q 343 226 338 242 q 361 208 349 211 q 406 204 374 204 l 419 204 l 419 31 q 278 -10 365 -10 m 478 708 l 735 708 l 735 0 l 478 0 l 478 708 z "},"ǚ":{"ha":814,"x_min":76,"x_max":735,"o":"m 278 -10 q 110 67 153 -10 q 83 148 90 100 q 76 265 76 196 l 76 708 l 333 708 l 333 374 q 335 276 333 300 q 343 226 338 242 q 361 208 349 211 q 406 204 374 204 l 419 204 l 419 31 q 278 -10 365 -10 m 478 708 l 735 708 l 735 0 l 478 0 l 478 708 z "},"ǜ":{"ha":814,"x_min":76,"x_max":735,"o":"m 278 -10 q 110 67 153 -10 q 83 148 90 100 q 76 265 76 196 l 76 708 l 333 708 l 333 374 q 335 276 333 300 q 343 226 338 242 q 361 208 349 211 q 406 204 374 204 l 419 204 l 419 31 q 278 -10 365 -10 m 478 708 l 735 708 l 735 0 l 478 0 l 478 708 z "},"ǖ":{"ha":814,"x_min":76,"x_max":735,"o":"m 278 -10 q 110 67 153 -10 q 83 148 90 100 q 76 265 76 196 l 76 708 l 333 708 l 333 374 q 335 276 333 300 q 343 226 338 242 q 361 208 349 211 q 406 204 374 204 l 419 204 l 419 31 q 278 -10 365 -10 m 478 708 l 735 708 l 735 0 l 478 0 l 478 708 z "},"ụ":{"ha":814,"x_min":76,"x_max":735,"o":"m 278 -10 q 110 67 153 -10 q 83 148 90 100 q 76 265 76 196 l 76 708 l 333 708 l 333 374 q 335 276 333 300 q 343 226 338 242 q 361 208 349 211 q 406 204 374 204 l 419 204 l 419 31 q 278 -10 365 -10 m 478 708 l 735 708 l 735 0 l 478 0 l 478 708 z "},"ù":{"ha":814,"x_min":76,"x_max":735,"o":"m 278 -10 q 110 67 153 -10 q 83 148 90 100 q 76 265 76 196 l 76 708 l 333 708 l 333 374 q 335 276 333 300 q 343 226 338 242 q 361 208 349 211 q 406 204 374 204 l 419 204 l 419 31 q 278 -10 365 -10 m 478 708 l 735 708 l 735 0 l 478 0 l 478 708 z "},"ủ":{"ha":814,"x_min":76,"x_max":735,"o":"m 278 -10 q 110 67 153 -10 q 83 148 90 100 q 76 265 76 196 l 76 708 l 333 708 l 333 374 q 335 276 333 300 q 343 226 338 242 q 361 208 349 211 q 406 204 374 204 l 419 204 l 419 31 q 278 -10 365 -10 m 478 708 l 735 708 l 735 0 l 478 0 l 478 708 z "},"ư":{"ha":814,"x_min":76,"x_max":968,"o":"m 968 782 q 960 694 968 731 q 929 632 951 658 q 860 587 903 601 q 747 572 817 572 l 735 572 l 735 0 l 478 0 l 478 708 l 747 708 q 815 729 797 708 q 824 749 822 738 q 825 782 825 761 l 968 782 m 343 226 q 361 208 349 211 q 406 204 374 204 l 419 204 l 419 31 q 278 -10 365 -10 q 110 67 153 -10 q 83 148 90 100 q 76 265 76 196 l 76 708 l 333 708 l 333 374 q 335 276 333 300 q 343 226 338 242 z "},"ứ":{"ha":814,"x_min":76,"x_max":968,"o":"m 968 782 q 960 694 968 731 q 929 632 951 658 q 860 587 903 601 q 747 572 817 572 l 735 572 l 735 0 l 478 0 l 478 708 l 747 708 q 815 729 797 708 q 824 749 822 738 q 825 782 825 761 l 968 782 m 343 226 q 361 208 349 211 q 406 204 374 204 l 419 204 l 419 31 q 278 -10 365 -10 q 110 67 153 -10 q 83 148 90 100 q 76 265 76 196 l 76 708 l 333 708 l 333 374 q 335 276 333 300 q 343 226 338 242 z "},"ự":{"ha":814,"x_min":76,"x_max":968,"o":"m 968 782 q 960 694 968 731 q 929 632 951 658 q 860 587 903 601 q 747 572 817 572 l 735 572 l 735 0 l 478 0 l 478 708 l 747 708 q 815 729 797 708 q 824 749 822 738 q 825 782 825 761 l 968 782 m 343 226 q 361 208 349 211 q 406 204 374 204 l 419 204 l 419 31 q 278 -10 365 -10 q 110 67 153 -10 q 83 148 90 100 q 76 265 76 196 l 76 708 l 333 708 l 333 374 q 335 276 333 300 q 343 226 338 242 z "},"ừ":{"ha":814,"x_min":76,"x_max":968,"o":"m 968 782 q 960 694 968 731 q 929 632 951 658 q 860 587 903 601 q 747 572 817 572 l 735 572 l 735 0 l 478 0 l 478 708 l 747 708 q 815 729 797 708 q 824 749 822 738 q 825 782 825 761 l 968 782 m 343 226 q 361 208 349 211 q 406 204 374 204 l 419 204 l 419 31 q 278 -10 365 -10 q 110 67 153 -10 q 83 148 90 100 q 76 265 76 196 l 76 708 l 333 708 l 333 374 q 335 276 333 300 q 343 226 338 242 z "},"ử":{"ha":814,"x_min":76,"x_max":968,"o":"m 968 782 q 960 694 968 731 q 929 632 951 658 q 860 587 903 601 q 747 572 817 572 l 735 572 l 735 0 l 478 0 l 478 708 l 747 708 q 815 729 797 708 q 824 749 822 738 q 825 782 825 761 l 968 782 m 343 226 q 361 208 349 211 q 406 204 374 204 l 419 204 l 419 31 q 278 -10 365 -10 q 110 67 153 -10 q 83 148 90 100 q 76 265 76 196 l 76 708 l 333 708 l 333 374 q 335 276 333 300 q 343 226 338 242 z "},"ữ":{"ha":814,"x_min":76,"x_max":968,"o":"m 968 782 q 960 694 968 731 q 929 632 951 658 q 860 587 903 601 q 747 572 817 572 l 735 572 l 735 0 l 478 0 l 478 708 l 747 708 q 815 729 797 708 q 824 749 822 738 q 825 782 825 761 l 968 782 m 343 226 q 361 208 349 211 q 406 204 374 204 l 419 204 l 419 31 q 278 -10 365 -10 q 110 67 153 -10 q 83 148 90 100 q 76 265 76 196 l 76 708 l 333 708 l 333 374 q 335 276 333 300 q 343 226 338 242 z "},"ű":{"ha":814,"x_min":76,"x_max":771,"o":"m 278 -10 q 110 67 153 -10 q 83 148 90 100 q 76 265 76 196 l 76 708 l 333 708 l 333 374 q 335 276 333 300 q 343 226 338 242 q 361 208 349 211 q 406 204 374 204 l 419 204 l 419 31 q 278 -10 365 -10 m 478 708 l 735 708 l 735 0 l 478 0 l 478 708 z "},"ȗ":{"ha":814,"x_min":76,"x_max":735,"o":"m 278 -10 q 110 67 153 -10 q 83 148 90 100 q 76 265 76 196 l 76 708 l 333 708 l 333 374 q 335 276 333 300 q 343 226 338 242 q 361 208 349 211 q 406 204 374 204 l 419 204 l 419 31 q 278 -10 365 -10 m 478 708 l 735 708 l 735 0 l 478 0 l 478 708 z "},"ū":{"ha":814,"x_min":76,"x_max":735,"o":"m 278 -10 q 110 67 153 -10 q 83 148 90 100 q 76 265 76 196 l 76 708 l 333 708 l 333 374 q 335 276 333 300 q 343 226 338 242 q 361 208 349 211 q 406 204 374 204 l 419 204 l 419 31 q 278 -10 365 -10 m 478 708 l 735 708 l 735 0 l 478 0 l 478 708 z "},"ų":{"ha":814,"x_min":76,"x_max":736,"o":"m 343 226 q 361 208 349 211 q 406 204 374 204 l 419 204 l 419 31 q 278 -10 365 -10 q 110 67 153 -10 q 83 148 90 100 q 76 265 76 196 l 76 708 l 333 708 l 333 374 q 335 276 333 300 q 343 226 338 242 m 728 -150 q 736 -149 733 -150 l 736 -272 l 703 -275 q 632 -278 661 -278 q 486 -242 532 -278 q 447 -156 447 -211 q 469 -79 447 -122 q 524 0 490 -36 l 478 0 l 478 708 l 735 708 l 735 0 q 678 -44 703 -17 q 647 -103 647 -75 q 661 -137 647 -125 q 713 -150 675 -150 l 728 -150 z "},"ů":{"ha":814,"x_min":76,"x_max":735,"o":"m 278 -10 q 110 67 153 -10 q 83 148 90 100 q 76 265 76 196 l 76 708 l 333 708 l 333 374 q 335 276 333 300 q 343 226 338 242 q 361 208 349 211 q 406 204 374 204 l 419 204 l 419 31 q 278 -10 365 -10 m 478 708 l 735 708 l 735 0 l 478 0 l 478 708 z "},"ũ":{"ha":814,"x_min":76,"x_max":735,"o":"m 278 -10 q 110 67 153 -10 q 83 148 90 100 q 76 265 76 196 l 76 708 l 333 708 l 333 374 q 335 276 333 300 q 343 226 338 242 q 361 208 349 211 q 406 204 374 204 l 419 204 l 419 31 q 278 -10 365 -10 m 478 708 l 735 708 l 735 0 l 478 0 l 478 708 z "},"v":{"ha":765,"x_min":14,"x_max":751,"o":"m 14 708 l 276 708 l 467 0 l 221 0 l 14 708 m 426 375 l 499 708 l 751 708 l 544 0 l 528 0 l 426 375 z "},"w":{"ha":1175,"x_min":19,"x_max":1156,"o":"m 19 708 l 271 708 l 439 0 l 210 0 l 19 708 m 404 396 l 490 708 l 697 708 l 903 0 l 676 0 l 594 315 l 581 315 l 514 0 l 499 0 l 404 396 m 850 393 l 907 708 l 1156 708 l 979 0 l 964 0 l 850 393 z "},"ẃ":{"ha":1175,"x_min":19,"x_max":1156,"o":"m 19 708 l 271 708 l 439 0 l 210 0 l 19 708 m 404 396 l 490 708 l 697 708 l 903 0 l 676 0 l 594 315 l 581 315 l 514 0 l 499 0 l 404 396 m 850 393 l 907 708 l 1156 708 l 979 0 l 964 0 l 850 393 z "},"ŵ":{"ha":1175,"x_min":19,"x_max":1156,"o":"m 19 708 l 271 708 l 439 0 l 210 0 l 19 708 m 404 396 l 490 708 l 697 708 l 903 0 l 676 0 l 594 315 l 581 315 l 514 0 l 499 0 l 404 396 m 850 393 l 907 708 l 1156 708 l 979 0 l 964 0 l 850 393 z "},"ẅ":{"ha":1175,"x_min":19,"x_max":1156,"o":"m 19 708 l 271 708 l 439 0 l 210 0 l 19 708 m 404 396 l 490 708 l 697 708 l 903 0 l 676 0 l 594 315 l 581 315 l 514 0 l 499 0 l 404 396 m 850 393 l 907 708 l 1156 708 l 979 0 l 964 0 l 850 393 z "},"ẁ":{"ha":1175,"x_min":19,"x_max":1156,"o":"m 19 708 l 271 708 l 439 0 l 210 0 l 19 708 m 404 396 l 490 708 l 697 708 l 903 0 l 676 0 l 594 315 l 581 315 l 514 0 l 499 0 l 404 396 m 850 393 l 907 708 l 1156 708 l 979 0 l 964 0 l 850 393 z "},"x":{"ha":786,"x_min":10,"x_max":776,"o":"m 18 708 l 299 708 l 776 0 l 496 0 l 18 708 m 444 597 l 503 708 l 767 708 l 576 401 l 444 597 m 208 321 l 340 125 l 274 0 l 10 0 l 208 321 z "},"y":{"ha":817,"x_min":79,"x_max":738,"o":"m 281 4 q 113 81 156 4 q 86 162 93 114 q 79 279 79 210 l 79 708 l 336 708 l 336 388 q 338 290 336 314 q 346 240 340 254 q 364 222 351 225 q 408 218 376 218 l 422 218 l 422 46 q 281 4 367 4 m 376 -286 q 207 -278 304 -286 l 126 -269 l 126 -90 l 313 -90 q 410 -87 363 -90 q 459 -74 443 -85 q 478 -39 475 -64 q 481 32 481 -6 l 481 708 l 738 708 l 738 78 q 728 -94 738 -33 q 688 -196 719 -156 q 578 -264 651 -242 q 376 -286 504 -286 z "},"ý":{"ha":817,"x_min":79,"x_max":738,"o":"m 281 4 q 113 81 156 4 q 86 162 93 114 q 79 279 79 210 l 79 708 l 336 708 l 336 388 q 338 290 336 314 q 346 240 340 254 q 364 222 351 225 q 408 218 376 218 l 422 218 l 422 46 q 281 4 367 4 m 376 -286 q 207 -278 304 -286 l 126 -269 l 126 -90 l 313 -90 q 410 -87 363 -90 q 459 -74 443 -85 q 478 -39 475 -64 q 481 32 481 -6 l 481 708 l 738 708 l 738 78 q 728 -94 738 -33 q 688 -196 719 -156 q 578 -264 651 -242 q 376 -286 504 -286 z "},"ŷ":{"ha":817,"x_min":79,"x_max":738,"o":"m 281 4 q 113 81 156 4 q 86 162 93 114 q 79 279 79 210 l 79 708 l 336 708 l 336 388 q 338 290 336 314 q 346 240 340 254 q 364 222 351 225 q 408 218 376 218 l 422 218 l 422 46 q 281 4 367 4 m 376 -286 q 207 -278 304 -286 l 126 -269 l 126 -90 l 313 -90 q 410 -87 363 -90 q 459 -74 443 -85 q 478 -39 475 -64 q 481 32 481 -6 l 481 708 l 738 708 l 738 78 q 728 -94 738 -33 q 688 -196 719 -156 q 578 -264 651 -242 q 376 -286 504 -286 z "},"ÿ":{"ha":817,"x_min":79,"x_max":738,"o":"m 281 4 q 113 81 156 4 q 86 162 93 114 q 79 279 79 210 l 79 708 l 336 708 l 336 388 q 338 290 336 314 q 346 240 340 254 q 364 222 351 225 q 408 218 376 218 l 422 218 l 422 46 q 281 4 367 4 m 376 -286 q 207 -278 304 -286 l 126 -269 l 126 -90 l 313 -90 q 410 -87 363 -90 q 459 -74 443 -85 q 478 -39 475 -64 q 481 32 481 -6 l 481 708 l 738 708 l 738 78 q 728 -94 738 -33 q 688 -196 719 -156 q 578 -264 651 -242 q 376 -286 504 -286 z "},"ỵ":{"ha":817,"x_min":79,"x_max":738,"o":"m 281 4 q 113 81 156 4 q 86 162 93 114 q 79 279 79 210 l 79 708 l 336 708 l 336 388 q 338 290 336 314 q 346 240 340 254 q 364 222 351 225 q 408 218 376 218 l 422 218 l 422 46 q 281 4 367 4 m 376 -286 q 207 -278 304 -286 l 126 -269 l 126 -90 l 313 -90 q 410 -87 363 -90 q 459 -74 443 -85 q 478 -39 475 -64 q 481 32 481 -6 l 481 708 l 738 708 l 738 78 q 728 -94 738 -33 q 688 -196 719 -156 q 578 -264 651 -242 q 376 -286 504 -286 z "},"ỳ":{"ha":817,"x_min":79,"x_max":738,"o":"m 281 4 q 113 81 156 4 q 86 162 93 114 q 79 279 79 210 l 79 708 l 336 708 l 336 388 q 338 290 336 314 q 346 240 340 254 q 364 222 351 225 q 408 218 376 218 l 422 218 l 422 46 q 281 4 367 4 m 376 -286 q 207 -278 304 -286 l 126 -269 l 126 -90 l 313 -90 q 410 -87 363 -90 q 459 -74 443 -85 q 478 -39 475 -64 q 481 32 481 -6 l 481 708 l 738 708 l 738 78 q 728 -94 738 -33 q 688 -196 719 -156 q 578 -264 651 -242 q 376 -286 504 -286 z "},"ỷ":{"ha":817,"x_min":79,"x_max":738,"o":"m 281 4 q 113 81 156 4 q 86 162 93 114 q 79 279 79 210 l 79 708 l 336 708 l 336 388 q 338 290 336 314 q 346 240 340 254 q 364 222 351 225 q 408 218 376 218 l 422 218 l 422 46 q 281 4 367 4 m 376 -286 q 207 -278 304 -286 l 126 -269 l 126 -90 l 313 -90 q 410 -87 363 -90 q 459 -74 443 -85 q 478 -39 475 -64 q 481 32 481 -6 l 481 708 l 738 708 l 738 78 q 728 -94 738 -33 q 688 -196 719 -156 q 578 -264 651 -242 q 376 -286 504 -286 z "},"ȳ":{"ha":817,"x_min":79,"x_max":738,"o":"m 281 4 q 113 81 156 4 q 86 162 93 114 q 79 279 79 210 l 79 708 l 336 708 l 336 388 q 338 290 336 314 q 346 240 340 254 q 364 222 351 225 q 408 218 376 218 l 422 218 l 422 46 q 281 4 367 4 m 376 -286 q 207 -278 304 -286 l 126 -269 l 126 -90 l 313 -90 q 410 -87 363 -90 q 459 -74 443 -85 q 478 -39 475 -64 q 481 32 481 -6 l 481 708 l 738 708 l 738 78 q 728 -94 738 -33 q 688 -196 719 -156 q 578 -264 651 -242 q 376 -286 504 -286 z "},"ỹ":{"ha":817,"x_min":79,"x_max":738,"o":"m 281 4 q 113 81 156 4 q 86 162 93 114 q 79 279 79 210 l 79 708 l 336 708 l 336 388 q 338 290 336 314 q 346 240 340 254 q 364 222 351 225 q 408 218 376 218 l 422 218 l 422 46 q 281 4 367 4 m 376 -286 q 207 -278 304 -286 l 126 -269 l 126 -90 l 313 -90 q 410 -87 363 -90 q 459 -74 443 -85 q 478 -39 475 -64 q 481 32 481 -6 l 481 708 l 738 708 l 738 78 q 728 -94 738 -33 q 688 -196 719 -156 q 578 -264 651 -242 q 376 -286 504 -286 z "},"z":{"ha":742,"x_min":63,"x_max":679,"o":"m 63 185 l 357 513 l 79 513 l 79 708 l 676 708 l 676 524 l 207 0 l 63 0 l 63 185 m 460 196 l 679 196 l 679 0 l 285 0 l 460 196 z "},"ź":{"ha":742,"x_min":63,"x_max":679,"o":"m 63 185 l 357 513 l 79 513 l 79 708 l 676 708 l 676 524 l 207 0 l 63 0 l 63 185 m 460 196 l 679 196 l 679 0 l 285 0 l 460 196 z "},"ž":{"ha":742,"x_min":63,"x_max":679,"o":"m 63 185 l 357 513 l 79 513 l 79 708 l 676 708 l 676 524 l 207 0 l 63 0 l 63 185 m 460 196 l 679 196 l 679 0 l 285 0 l 460 196 z "},"ż":{"ha":742,"x_min":63,"x_max":679,"o":"m 63 185 l 357 513 l 79 513 l 79 708 l 676 708 l 676 524 l 207 0 l 63 0 l 63 185 m 460 196 l 679 196 l 679 0 l 285 0 l 460 196 z "},"ﬁ":{"ha":1022,"x_min":25,"x_max":943,"o":"m 25 708 l 156 708 l 156 724 q 172 903 156 842 q 233 992 189 964 q 349 1025 275 1018 q 582 1032 422 1032 l 582 854 q 488 853 510 854 q 437 843 454 851 q 417 818 419 835 q 413 771 413 801 l 413 708 l 582 708 l 582 513 l 25 513 l 25 708 m 686 1032 l 943 1032 l 943 832 l 686 832 l 686 1032 m 686 708 l 943 708 l 943 0 l 686 0 l 686 708 m 156 457 l 413 457 l 413 0 l 156 0 l 156 457 z "},"ﬂ":{"ha":1022,"x_min":25,"x_max":943,"o":"m 25 708 l 156 708 l 156 724 q 172 903 156 842 q 233 992 189 964 q 349 1025 275 1018 q 582 1032 422 1032 l 582 854 q 488 853 510 854 q 437 843 454 851 q 417 818 419 835 q 413 771 413 801 l 413 708 l 582 708 l 582 513 l 25 513 l 25 708 m 686 1032 l 943 1032 l 943 0 l 686 0 l 686 1032 m 156 457 l 413 457 l 413 0 l 156 0 l 156 457 z "},"ª":{"ha":586,"x_min":49,"x_max":524,"o":"m 336 761 q 334 799 336 788 q 322 815 332 810 q 288 822 315 819 q 221 824 272 824 q 165 821 207 824 l 131 819 l 76 817 l 76 949 q 283 967 167 967 q 415 953 365 967 q 489 914 464 940 q 517 852 511 890 q 524 749 524 814 l 524 440 l 336 440 l 336 761 m 186 433 q 82 472 115 433 q 49 590 49 510 q 56 672 49 640 q 81 719 64 703 q 128 743 97 736 q 208 750 158 750 q 285 747 232 750 l 285 658 q 254 657 261 658 q 232 639 232 654 q 231 613 231 632 q 233 582 231 590 q 247 569 236 574 q 285 565 258 565 l 285 457 q 240 438 263 443 q 186 433 218 433 z "},"º":{"ha":611,"x_min":58,"x_max":553,"o":"m 363 768 q 356 806 361 793 q 339 822 350 818 q 306 825 322 825 l 300 825 l 300 968 l 306 968 q 444 954 394 968 q 518 908 493 940 q 547 833 540 879 q 553 700 553 786 q 548 576 553 619 q 526 504 543 533 q 468 456 507 472 q 363 436 429 440 l 363 768 m 306 435 q 167 449 217 435 q 94 493 118 463 q 65 568 71 522 q 58 700 58 614 q 64 822 58 778 q 86 896 69 867 q 143 944 106 928 q 249 965 181 961 l 249 700 q 250 633 249 649 q 256 596 250 608 q 274 581 261 583 q 306 578 288 578 l 311 578 l 311 435 l 306 435 z "},"ⁿ":{"ha":668,"x_min":69,"x_max":613,"o":"m 394 610 q 393 685 394 667 q 392 703 393 690 q 388 724 390 717 q 372 738 382 735 q 339 740 361 740 l 328 740 l 328 888 q 389 910 351 901 q 458 918 426 918 q 588 860 553 918 q 608 798 603 833 q 613 707 613 763 l 613 367 l 394 367 l 394 610 m 69 911 l 288 911 l 288 367 l 69 367 l 69 911 z "},"Δ":{"ha":954,"x_min":3,"x_max":951,"o":"m 307 956 l 331 956 l 440 575 l 281 0 l 3 0 l 307 956 m 399 214 l 606 214 l 393 956 l 647 956 l 951 0 l 340 0 l 399 214 z "},"Ω":{"ha":969,"x_min":65,"x_max":904,"o":"m 546 206 q 582 225 568 211 q 604 268 596 239 q 621 506 621 331 q 618 647 621 604 q 604 713 615 689 q 565 745 592 736 q 485 754 538 754 q 407 746 429 754 l 407 964 q 485 967 454 967 q 712 942 628 967 q 839 864 796 918 q 892 738 879 815 q 904 533 904 661 q 853 303 904 393 q 714 172 803 213 l 714 163 l 882 214 l 904 214 l 904 0 l 546 0 l 546 206 m 65 214 l 88 214 l 256 163 l 256 172 q 115 302 165 213 q 65 533 65 392 q 74 715 65 644 q 111 835 83 786 q 197 918 140 888 q 349 960 254 949 l 349 506 q 365 268 349 331 q 388 225 374 239 q 424 206 401 211 l 424 0 l 65 0 l 65 214 z "},"μ":{"ha":814,"x_min":76,"x_max":735,"o":"m 76 708 l 333 708 l 333 374 q 335 276 333 300 q 343 226 338 242 q 361 208 349 211 q 406 204 374 204 l 419 204 l 419 29 q 333 -4 386 3 l 333 -262 l 76 -262 l 76 708 m 478 708 l 735 708 l 735 0 l 478 0 l 478 708 z "},"π":{"ha":819,"x_min":79,"x_max":740,"o":"m 79 708 l 740 708 l 740 513 l 79 513 l 79 708 m 79 457 l 336 457 l 336 0 l 79 0 l 79 457 m 483 457 l 740 457 l 740 0 l 483 0 l 483 457 z "},"ₙ":{"ha":668,"x_min":69,"x_max":613,"o":"m 394 14 q 393 89 394 71 q 392 108 393 94 q 388 128 390 121 q 372 142 382 139 q 339 144 361 144 l 328 144 l 328 292 q 389 314 351 306 q 458 322 426 322 q 588 264 553 322 q 608 202 603 238 q 613 111 613 167 l 613 -229 l 394 -229 l 394 14 m 69 315 l 288 315 l 288 -229 l 69 -229 l 69 315 z "},"₀":{"ha":522,"x_min":42,"x_max":482,"o":"m 318 -1 q 315 106 318 78 q 302 140 313 133 q 261 147 292 147 l 257 147 l 257 268 l 261 268 q 410 250 367 268 q 468 179 454 232 q 482 -1 482 126 q 472 -171 482 -118 q 427 -246 461 -224 q 318 -271 393 -268 l 318 -1 m 261 -272 q 112 -254 156 -272 q 55 -183 68 -236 q 42 -1 42 -131 q 52 167 42 115 q 96 241 63 219 q 206 267 129 263 l 206 -1 q 208 -111 206 -83 q 222 -146 211 -139 q 261 -153 232 -153 l 267 -153 l 267 -272 l 261 -272 z "},"₁":{"ha":367,"x_min":42,"x_max":304,"o":"m 135 86 l 42 51 l 42 189 l 194 261 l 304 261 l 304 -258 l 135 -258 l 135 86 z "},"₂":{"ha":510,"x_min":53,"x_max":457,"o":"m 53 -174 q 56 -95 53 -126 q 69 -42 60 -64 q 100 1 81 -17 q 156 31 119 18 l 242 64 q 280 83 272 75 q 288 111 288 90 l 288 272 q 408 244 371 269 q 457 118 457 211 q 433 8 457 44 q 354 -46 408 -29 l 250 -78 q 224 -92 229 -85 q 218 -118 218 -99 l 218 -258 l 53 -258 l 53 -174 m 63 254 q 169 268 106 261 l 236 272 l 236 138 l 210 138 q 113 131 161 138 q 63 124 79 125 l 63 254 m 269 -118 l 457 -118 l 457 -258 l 269 -258 l 269 -118 z "},"₃":{"ha":529,"x_min":63,"x_max":467,"o":"m 65 254 q 174 268 132 265 l 238 272 l 238 138 l 219 138 q 115 132 154 138 l 65 126 l 65 254 m 293 -94 q 285 -60 293 -67 q 243 -53 276 -53 l 150 -53 l 150 60 l 243 60 q 281 66 274 60 q 289 99 289 72 l 289 271 q 422 229 382 264 q 461 129 461 194 q 443 53 461 81 q 385 8 425 25 l 385 3 q 446 -37 425 -10 q 467 -117 467 -65 q 432 -221 467 -186 q 293 -268 393 -260 l 293 -94 m 242 -269 q 118 -261 185 -269 q 63 -251 83 -256 l 63 -124 l 121 -129 q 228 -135 165 -135 l 242 -135 l 242 -269 z "},"₄":{"ha":514,"x_min":26,"x_max":493,"o":"m 26 -61 l 193 261 l 367 261 l 125 -167 l 26 -167 l 26 -61 m 274 -167 l 183 -167 l 251 -47 l 279 -47 l 329 58 l 432 58 l 432 -47 l 493 -47 l 493 -167 l 432 -167 l 432 -267 l 274 -267 l 274 -167 z "},"₅":{"ha":499,"x_min":57,"x_max":458,"o":"m 296 -99 q 290 -64 296 -75 q 267 -49 283 -53 q 214 -46 250 -46 q 63 -53 139 -46 l 63 261 l 201 261 l 201 67 q 294 71 243 71 q 423 31 388 71 q 458 -90 458 -8 q 424 -219 458 -178 q 296 -269 390 -261 l 296 -99 m 253 261 l 419 261 l 419 140 l 253 140 l 253 261 m 236 -272 q 57 -256 150 -272 l 57 -144 q 214 -153 157 -153 q 257 -151 246 -153 l 257 -272 l 236 -272 z "},"₆":{"ha":525,"x_min":42,"x_max":489,"o":"m 456 138 q 308 147 349 147 q 256 144 283 147 l 256 268 l 279 268 q 364 264 314 268 q 456 251 414 260 l 456 138 m 274 -272 q 130 -255 176 -272 q 60 -181 83 -237 q 42 -3 42 -136 q 61 164 42 110 q 111 233 76 208 q 204 264 146 257 l 204 -97 q 210 -137 204 -125 q 228 -153 217 -150 q 268 -156 240 -156 l 283 -156 l 283 -272 l 274 -272 m 335 -101 q 323 -56 335 -65 q 268 -46 311 -46 l 256 -46 l 256 64 q 318 71 281 71 q 448 39 407 71 q 489 -87 489 7 q 456 -218 489 -176 q 335 -269 424 -260 l 335 -101 z "},"₇":{"ha":456,"x_min":26,"x_max":428,"o":"m 26 261 l 428 261 l 428 140 l 26 140 l 26 261 m 236 89 l 401 89 l 249 -267 l 71 -267 l 236 89 z "},"₈":{"ha":539,"x_min":40,"x_max":499,"o":"m 269 -272 q 89 -236 138 -272 q 40 -125 40 -200 q 64 -37 40 -65 q 138 1 88 -10 l 138 6 q 67 44 90 15 q 44 129 44 74 q 81 225 44 192 q 207 265 118 258 l 207 101 q 211 67 207 78 q 228 53 215 57 q 269 50 240 50 q 322 58 311 50 q 332 101 332 67 q 322 145 332 136 q 269 154 311 154 l 258 154 l 258 268 l 269 268 q 444 235 394 268 q 493 129 493 201 q 471 44 493 74 q 401 6 449 15 l 401 1 q 475 -37 451 -10 q 499 -125 499 -65 q 463 -226 499 -190 q 336 -269 428 -261 l 336 -106 q 324 -60 336 -69 q 269 -50 313 -50 q 215 -60 226 -50 q 203 -106 203 -69 q 215 -149 203 -140 q 269 -158 228 -158 l 286 -158 l 286 -272 l 269 -272 z "},"₉":{"ha":525,"x_min":36,"x_max":483,"o":"m 321 93 q 315 133 321 121 q 297 149 308 146 q 257 151 285 151 l 242 151 l 242 268 l 251 268 q 395 251 349 268 q 465 176 442 233 q 483 -1 483 132 q 464 -168 483 -114 q 414 -237 449 -212 q 321 -268 379 -261 l 321 93 m 207 -75 q 77 -43 118 -75 q 36 83 36 -11 q 69 214 36 172 q 190 265 101 256 l 190 97 q 202 51 190 61 q 257 42 214 42 l 269 42 l 269 -68 q 207 -75 244 -75 m 246 -272 q 161 -268 211 -272 q 69 -256 111 -264 l 69 -142 q 217 -151 176 -151 q 269 -149 242 -151 l 269 -272 l 246 -272 z "},"⁰":{"ha":522,"x_min":42,"x_max":482,"o":"m 318 832 q 315 939 318 911 q 302 974 313 967 q 261 981 292 981 l 257 981 l 257 1101 l 261 1101 q 410 1083 367 1101 q 468 1013 454 1065 q 482 832 482 960 q 472 663 482 715 q 427 588 461 610 q 318 563 393 565 l 318 832 m 261 561 q 112 579 156 561 q 55 650 68 597 q 42 832 42 703 q 52 1001 42 949 q 96 1074 63 1053 q 206 1100 129 1096 l 206 832 q 208 722 206 750 q 222 688 211 694 q 261 681 232 681 l 267 681 l 267 561 l 261 561 z "},"¹":{"ha":367,"x_min":42,"x_max":304,"o":"m 135 919 l 42 885 l 42 1022 l 194 1094 l 304 1094 l 304 575 l 135 575 l 135 919 z "},"²":{"ha":510,"x_min":53,"x_max":457,"o":"m 53 660 q 56 738 53 707 q 69 792 60 769 q 100 834 81 817 q 156 864 119 851 l 242 897 q 280 916 272 908 q 288 944 288 924 l 288 1106 q 408 1078 371 1103 q 457 951 457 1044 q 433 841 457 878 q 354 788 408 804 l 250 756 q 224 742 229 749 q 218 715 218 735 l 218 575 l 53 575 l 53 660 m 63 1088 q 169 1101 106 1094 l 236 1106 l 236 971 l 210 971 q 113 964 161 971 q 63 957 79 958 l 63 1088 m 269 715 l 457 715 l 457 575 l 269 575 l 269 715 z "},"³":{"ha":529,"x_min":63,"x_max":467,"o":"m 65 1088 q 174 1101 132 1099 l 238 1106 l 238 971 l 219 971 q 115 965 154 971 l 65 960 l 65 1088 m 293 739 q 285 774 293 767 q 243 781 276 781 l 150 781 l 150 893 l 243 893 q 281 899 274 893 q 289 932 289 906 l 289 1104 q 422 1063 382 1097 q 461 963 461 1028 q 443 886 461 914 q 385 842 425 858 l 385 836 q 446 796 425 824 q 467 717 467 768 q 432 613 467 647 q 293 565 393 574 l 293 739 m 242 564 q 118 572 185 564 q 63 582 83 578 l 63 710 l 121 704 q 228 699 165 699 l 242 699 l 242 564 z "},"⁴":{"ha":514,"x_min":26,"x_max":493,"o":"m 26 772 l 193 1094 l 367 1094 l 125 667 l 26 667 l 26 772 m 274 667 l 183 667 l 251 786 l 279 786 l 329 892 l 432 892 l 432 786 l 493 786 l 493 667 l 432 667 l 432 567 l 274 567 l 274 667 z "},"⁵":{"ha":499,"x_min":57,"x_max":458,"o":"m 296 735 q 290 769 296 758 q 267 784 283 781 q 214 788 250 788 q 63 781 139 788 l 63 1094 l 201 1094 l 201 900 q 294 904 243 904 q 423 865 388 904 q 458 743 458 825 q 424 614 458 656 q 296 564 390 572 l 296 735 m 253 1094 l 419 1094 l 419 974 l 253 974 l 253 1094 m 236 561 q 57 578 150 561 l 57 689 q 214 681 157 681 q 257 682 246 681 l 257 561 l 236 561 z "},"⁶":{"ha":525,"x_min":42,"x_max":489,"o":"m 456 971 q 308 981 349 981 q 256 978 283 981 l 256 1101 l 279 1101 q 364 1097 314 1101 q 456 1085 414 1093 l 456 971 m 274 561 q 130 578 176 561 q 60 653 83 596 q 42 831 42 697 q 61 997 42 943 q 111 1066 76 1042 q 204 1097 146 1090 l 204 736 q 210 696 204 708 q 228 681 217 683 q 268 678 240 678 l 283 678 l 283 561 l 274 561 m 335 732 q 323 778 335 768 q 268 788 311 788 l 256 788 l 256 897 q 318 904 281 904 q 448 872 407 904 q 489 746 489 840 q 456 615 489 657 q 335 564 424 574 l 335 732 z "},"⁷":{"ha":456,"x_min":26,"x_max":428,"o":"m 26 1094 l 428 1094 l 428 974 l 26 974 l 26 1094 m 236 922 l 401 922 l 249 567 l 71 567 l 236 922 z "},"⁸":{"ha":539,"x_min":40,"x_max":499,"o":"m 269 561 q 89 597 138 561 q 40 708 40 633 q 64 796 40 768 q 138 835 88 824 l 138 839 q 67 878 90 849 q 44 963 44 907 q 81 1058 44 1025 q 207 1099 118 1092 l 207 935 q 211 901 207 911 q 228 887 215 890 q 269 883 240 883 q 322 892 311 883 q 332 935 332 900 q 322 978 332 969 q 269 988 311 988 l 258 988 l 258 1101 l 269 1101 q 444 1068 394 1101 q 493 963 493 1035 q 471 878 493 907 q 401 839 449 849 l 401 835 q 475 796 451 824 q 499 708 499 768 q 463 608 499 643 q 336 564 428 572 l 336 728 q 324 774 336 764 q 269 783 313 783 q 215 774 226 783 q 203 728 203 764 q 215 684 203 693 q 269 675 228 675 l 286 675 l 286 561 l 269 561 z "},"⁹":{"ha":525,"x_min":36,"x_max":483,"o":"m 321 926 q 315 967 321 954 q 297 982 308 979 q 257 985 285 985 l 242 985 l 242 1101 l 251 1101 q 395 1084 349 1101 q 465 1010 442 1067 q 483 832 483 965 q 464 665 483 719 q 414 597 449 621 q 321 565 379 572 l 321 926 m 207 758 q 77 790 118 758 q 36 917 36 822 q 69 1047 36 1006 q 190 1099 101 1089 l 190 931 q 202 885 190 894 q 257 875 214 875 l 269 875 l 269 765 q 207 758 244 758 m 246 561 q 161 565 211 561 q 69 578 111 569 l 69 692 q 217 682 176 682 q 269 685 242 682 l 269 561 l 246 561 z "},"⁄":{"ha":619,"x_min":-83,"x_max":703,"o":"m 540 956 l 703 956 l 79 0 l -83 0 l 540 956 z "},"½":{"ha":1126,"x_min":42,"x_max":1064,"o":"m 135 781 l 42 746 l 42 883 l 194 956 l 304 956 l 304 436 l 135 436 l 135 781 m 728 956 l 890 956 l 267 0 l 104 0 l 728 956 m 660 85 q 663 163 660 132 q 676 217 667 194 q 707 259 688 242 q 763 289 726 276 l 849 322 q 888 342 881 335 q 894 369 894 349 l 894 531 q 1015 503 978 528 q 1064 376 1064 468 q 1040 266 1064 303 q 961 213 1015 229 l 857 181 q 831 167 836 174 q 825 140 825 160 l 825 0 l 660 0 l 660 85 m 669 513 q 776 526 713 519 l 843 531 l 843 396 l 817 396 q 719 389 768 396 q 669 382 686 383 l 669 513 m 876 140 l 1064 140 l 1064 0 l 876 0 l 876 140 z "},"¼":{"ha":1074,"x_min":42,"x_max":1011,"o":"m 135 781 l 42 746 l 42 883 l 194 956 l 304 956 l 304 436 l 135 436 l 135 781 m 728 956 l 890 956 l 267 0 l 104 0 l 728 956 m 546 207 l 717 525 l 903 525 l 640 93 l 546 93 l 546 207 m 782 93 l 697 93 l 779 228 l 801 228 l 868 329 l 949 329 l 949 228 l 1011 228 l 1011 93 l 949 93 l 949 0 l 782 0 l 782 93 z "},"¾":{"ha":1181,"x_min":63,"x_max":1118,"o":"m 65 949 q 174 963 111 957 l 238 967 l 238 832 l 219 832 q 115 826 154 832 l 65 821 l 65 949 m 293 600 q 285 635 293 628 q 243 642 276 642 l 150 642 l 150 754 l 243 754 q 281 760 274 754 q 289 793 289 767 l 289 965 q 422 924 382 958 q 461 824 461 889 q 443 747 461 775 q 385 703 425 719 l 385 697 q 446 657 425 685 q 467 578 467 629 q 432 474 467 508 q 293 426 393 435 l 293 600 m 835 956 l 997 956 l 374 0 l 211 0 l 835 956 m 242 425 q 118 433 185 425 q 63 443 83 439 l 63 571 l 121 565 q 228 560 165 560 l 242 560 l 242 425 m 653 207 l 824 525 l 1010 525 l 747 93 l 653 93 l 653 207 m 889 93 l 804 93 l 886 228 l 908 228 l 975 329 l 1056 329 l 1056 228 l 1118 228 l 1118 93 l 1056 93 l 1056 0 l 889 0 l 889 93 z "},".":{"ha":458,"x_min":89,"x_max":369,"o":"m 89 226 l 369 226 l 369 0 l 89 0 l 89 226 z "},",":{"ha":458,"x_min":89,"x_max":369,"o":"m 89 -117 q 142 -112 122 -117 q 172 -96 163 -107 q 185 -68 182 -85 q 189 -21 189 -51 l 189 0 l 89 0 l 89 226 l 369 226 l 369 56 q 360 -81 369 -32 q 324 -160 351 -131 q 240 -204 294 -190 q 89 -218 185 -218 l 89 -117 z "},":":{"ha":458,"x_min":89,"x_max":369,"o":"m 89 708 l 369 708 l 369 482 l 89 482 l 89 708 m 89 226 l 369 226 l 369 0 l 89 0 l 89 226 z "},";":{"ha":458,"x_min":89,"x_max":369,"o":"m 89 708 l 369 708 l 369 482 l 89 482 l 89 708 m 89 -117 q 142 -112 122 -117 q 172 -96 163 -107 q 185 -68 182 -85 q 189 -21 189 -51 l 189 0 l 89 0 l 89 226 l 369 226 l 369 56 q 360 -81 369 -32 q 324 -160 351 -131 q 240 -204 294 -190 q 89 -218 185 -218 l 89 -117 z "},"…":{"ha":1375,"x_min":89,"x_max":1286,"o":"m 89 226 l 369 226 l 369 0 l 89 0 l 89 226 m 547 226 l 828 226 l 828 0 l 547 0 l 547 226 m 1006 226 l 1286 226 l 1286 0 l 1006 0 l 1006 226 z "},"!":{"ha":504,"x_min":111,"x_max":421,"o":"m 139 621 q 129 728 135 654 l 119 822 l 114 896 l 111 935 l 111 956 l 421 956 l 421 935 l 419 896 l 413 822 l 404 728 l 393 621 l 365 342 l 167 342 l 139 621 m 125 226 l 406 226 l 406 0 l 125 0 l 125 226 z "},"¡":{"ha":476,"x_min":83,"x_max":393,"o":"m 97 708 l 378 708 l 378 482 l 97 482 l 97 708 m 83 -226 l 86 -187 l 92 -114 l 101 -18 q 111 88 107 51 l 139 367 l 338 367 l 365 88 l 376 -18 l 385 -114 l 392 -187 l 393 -226 l 393 -247 l 83 -247 l 83 -226 z "},"?":{"ha":724,"x_min":49,"x_max":654,"o":"m 182 432 q 218 560 182 521 q 252 583 233 575 q 304 603 271 592 q 342 617 326 610 q 365 632 358 624 q 374 651 372 640 q 376 682 376 663 l 376 967 q 488 955 439 965 q 572 918 536 944 q 654 708 654 857 q 618 544 654 596 q 581 509 603 522 q 526 485 558 496 l 457 461 q 433 451 440 456 q 424 439 426 447 q 419 414 419 429 q 418 368 418 403 l 418 342 l 182 342 l 182 432 m 49 938 q 211 960 115 951 l 318 965 l 318 753 q 296 754 311 754 l 268 754 q 122 746 208 754 l 49 738 l 49 938 m 161 226 l 442 226 l 442 0 l 161 0 l 161 226 z "},"¿":{"ha":647,"x_min":69,"x_max":675,"o":"m 282 708 l 563 708 l 563 482 l 282 482 l 282 708 m 347 -258 q 235 -247 283 -257 q 153 -210 188 -236 q 69 0 69 -149 q 106 164 69 113 q 143 199 121 186 q 197 224 165 213 l 267 247 q 290 258 283 254 q 301 271 297 263 l 306 296 l 306 367 l 542 367 l 542 276 q 506 150 542 186 q 472 126 490 135 q 419 106 453 117 q 381 92 397 99 q 358 76 365 85 q 349 57 351 68 q 347 26 347 46 l 347 -258 m 406 -44 q 429 -46 413 -46 l 456 -46 q 600 -40 543 -46 l 675 -35 l 675 -235 l 596 -244 q 406 -258 488 -257 l 406 -44 z "},"·":{"ha":458,"x_min":89,"x_max":369,"o":"m 89 529 l 369 529 l 369 303 l 89 303 l 89 529 z "},"•":{"ha":560,"x_min":104,"x_max":456,"o":"m 278 301 q 180 308 214 301 q 129 332 146 315 q 108 379 113 349 q 104 475 104 410 q 108 574 104 542 q 129 622 113 606 q 179 647 146 640 q 278 653 213 653 q 380 647 344 653 q 432 622 415 640 q 451 574 447 606 q 456 475 456 542 q 451 379 456 410 q 432 332 447 349 q 379 308 415 315 q 278 301 343 301 z "},"*":{"ha":631,"x_min":58,"x_max":572,"o":"m 267 615 l 124 514 l 58 628 l 217 699 l 58 772 l 124 886 l 267 785 l 250 956 l 381 956 l 364 786 l 507 886 l 572 772 l 413 699 l 572 628 l 507 514 l 364 615 l 381 444 l 250 444 l 267 615 z "},"#":{"ha":972,"x_min":65,"x_max":907,"o":"m 257 561 l 117 561 l 117 719 l 294 719 l 349 956 l 522 956 l 468 719 l 618 719 l 672 956 l 846 956 l 792 719 l 907 719 l 907 561 l 754 561 l 742 506 l 568 506 l 581 561 l 431 561 l 418 506 l 244 506 l 257 561 m 182 236 l 65 236 l 65 394 l 219 394 l 232 450 l 406 450 l 393 394 l 543 394 l 556 450 l 729 450 l 717 394 l 856 394 l 856 236 l 679 236 l 625 0 l 451 0 l 506 236 l 356 236 l 301 0 l 128 0 l 182 236 z "},"/":{"ha":596,"x_min":-15,"x_max":611,"o":"m 388 1032 l 611 1032 l 207 -76 l -15 -76 l 388 1032 z "},"\\":{"ha":596,"x_min":-15,"x_max":611,"o":"m -15 1032 l 208 1032 l 611 -76 l 389 -76 l -15 1032 z "},"(":{"ha":519,"x_min":81,"x_max":490,"o":"m 81 440 q 95 652 82 568 q 136 800 108 736 q 204 910 163 858 q 319 1032 246 961 l 490 1032 q 441 965 465 999 q 401 904 417 932 q 347 736 361 829 q 326 440 326 615 l 81 440 m 299 -186 q 233 -113 264 -149 q 181 -49 201 -78 q 106 121 126 31 q 81 385 81 221 l 326 385 q 347 88 328 196 q 401 -79 361 -7 q 441 -142 417 -108 q 490 -208 465 -175 l 319 -208 l 299 -186 z "},")":{"ha":519,"x_min":29,"x_max":439,"o":"m 193 440 q 181 674 192 582 q 149 831 169 767 q 105 925 131 885 q 29 1032 79 965 l 200 1032 q 315 908 274 958 q 383 800 357 857 q 424 652 411 736 q 439 440 438 568 l 193 440 m 29 -208 q 105 -101 79 -142 q 149 -7 131 -61 q 181 149 171 57 q 193 385 192 242 l 439 385 q 414 121 439 221 q 338 -49 392 29 q 277 -124 314 -82 q 200 -208 240 -165 l 29 -208 z "},"{":{"ha":529,"x_min":31,"x_max":501,"o":"m 31 465 q 122 515 96 474 q 142 610 142 549 l 142 761 q 236 965 142 879 q 331 1032 276 1004 l 501 1032 q 397 882 435 971 q 378 789 378 836 l 378 618 q 274 438 378 488 l 31 438 l 31 465 m 331 -208 q 238 -144 276 -181 q 171 -58 200 -108 q 142 63 142 -8 l 142 208 q 122 304 142 269 q 31 356 94 347 l 31 382 l 275 382 q 378 206 378 332 l 378 35 q 439 -136 378 -51 q 501 -208 465 -174 l 331 -208 z "},"}":{"ha":529,"x_min":28,"x_max":499,"o":"m 256 438 q 151 618 151 488 l 151 789 q 89 960 151 872 q 28 1032 61 1001 l 199 1032 q 291 968 253 1004 q 358 882 329 932 q 388 761 388 831 l 388 610 q 408 515 388 549 q 499 465 433 472 l 499 438 l 256 438 m 28 -208 q 132 -58 93 -146 q 151 35 151 -12 l 151 206 q 254 382 151 332 l 499 382 l 499 356 q 408 304 433 349 q 388 208 388 269 l 388 63 q 293 -142 388 -56 q 199 -208 253 -181 l 28 -208 z "},"[":{"ha":554,"x_min":90,"x_max":492,"o":"m 90 1032 l 492 1032 l 492 875 l 326 869 l 326 438 l 90 438 l 90 1032 m 90 382 l 326 382 l 326 -46 l 492 -51 l 492 -208 l 90 -208 l 90 382 z "},"]":{"ha":554,"x_min":63,"x_max":464,"o":"m 228 869 l 63 875 l 63 1032 l 464 1032 l 464 438 l 228 438 l 228 869 m 63 -51 l 228 -46 l 228 382 l 464 382 l 464 -208 l 63 -208 l 63 -51 z "},"-":{"ha":526,"x_min":65,"x_max":461,"o":"m 65 499 l 461 499 l 461 292 l 65 292 l 65 499 z "},"­":{"ha":526,"x_min":65,"x_max":461,"o":"m 65 499 l 461 499 l 461 292 l 65 292 l 65 499 z "},"–":{"ha":667,"x_min":56,"x_max":611,"o":"m 56 515 l 611 515 l 611 331 l 56 331 l 56 515 z "},"—":{"ha":1222,"x_min":56,"x_max":1167,"o":"m 56 515 l 1167 515 l 1167 331 l 56 331 l 56 515 z "},"‐":{"ha":833,"x_min":65,"x_max":461,"o":"m 65 499 l 461 499 l 461 292 l 65 292 l 65 499 z "},"‑":{"ha":526,"x_min":65,"x_max":461,"o":"m 65 499 l 461 499 l 461 292 l 65 292 l 65 499 z "},"_":{"ha":556,"x_min":0,"x_max":556,"o":"m 0 -79 l 556 -79 l 556 -264 l 0 -264 l 0 -79 z "},"‚":{"ha":444,"x_min":90,"x_max":354,"o":"m 90 -110 q 174 -89 153 -110 q 187 -62 183 -79 q 190 -18 190 -46 l 190 0 l 90 0 l 90 213 l 354 213 l 354 51 q 346 -78 354 -32 q 313 -151 338 -124 q 233 -193 286 -181 q 90 -206 181 -206 l 90 -110 z "},"„":{"ha":785,"x_min":90,"x_max":694,"o":"m 90 -110 q 174 -89 153 -110 q 187 -62 183 -79 q 190 -18 190 -46 l 190 0 l 90 0 l 90 213 l 354 213 l 354 51 q 346 -78 354 -32 q 313 -151 338 -124 q 233 -193 286 -181 q 90 -206 181 -206 l 90 -110 m 431 -110 q 514 -89 493 -110 q 527 -62 524 -79 q 531 -18 531 -46 l 531 0 l 431 0 l 431 213 l 694 213 l 694 51 q 686 -78 694 -32 q 653 -151 678 -124 q 574 -193 626 -181 q 431 -206 521 -206 l 431 -110 z "},"“":{"ha":785,"x_min":90,"x_max":694,"o":"m 90 699 q 99 827 90 781 q 133 901 108 874 q 213 943 160 931 q 354 956 265 956 l 354 860 q 271 840 290 860 q 258 813 261 831 q 254 768 254 796 l 254 750 l 354 750 l 354 538 l 90 538 l 90 699 m 431 699 q 440 827 431 781 q 474 901 449 874 q 553 943 500 931 q 694 956 606 956 l 694 860 q 611 840 631 860 q 598 813 601 831 q 594 768 594 796 l 594 750 l 694 750 l 694 538 l 431 538 l 431 699 z "},"”":{"ha":785,"x_min":90,"x_max":694,"o":"m 90 633 q 174 654 153 633 q 187 681 183 664 q 190 725 190 697 l 190 743 l 90 743 l 90 956 l 354 956 l 354 794 q 346 665 354 711 q 313 592 338 619 q 233 550 286 563 q 90 538 181 538 l 90 633 m 431 633 q 514 654 493 633 q 527 681 524 664 q 531 725 531 697 l 531 743 l 431 743 l 431 956 l 694 956 l 694 794 q 686 665 694 711 q 653 592 678 619 q 574 550 626 563 q 431 538 521 538 l 431 633 z "},"‘":{"ha":444,"x_min":90,"x_max":354,"o":"m 90 699 q 99 827 90 781 q 133 901 108 874 q 213 943 160 931 q 354 956 265 956 l 354 860 q 271 840 290 860 q 258 813 261 831 q 254 768 254 796 l 254 750 l 354 750 l 354 538 l 90 538 l 90 699 z "},"’":{"ha":444,"x_min":90,"x_max":354,"o":"m 90 633 q 174 654 153 633 q 187 681 183 664 q 190 725 190 697 l 190 743 l 90 743 l 90 956 l 354 956 l 354 794 q 346 665 354 711 q 313 592 338 619 q 233 550 286 563 q 90 538 181 538 l 90 633 z "},"«":{"ha":715,"x_min":19,"x_max":653,"o":"m 19 422 l 203 708 l 371 708 l 231 422 l 371 138 l 203 138 l 19 422 m 301 422 l 485 708 l 653 708 l 513 422 l 653 138 l 485 138 l 301 422 z "},"»":{"ha":715,"x_min":63,"x_max":696,"o":"m 203 422 l 63 708 l 231 708 l 414 422 l 231 138 l 63 138 l 203 422 m 485 422 l 344 708 l 513 708 l 696 422 l 513 138 l 344 138 l 485 422 z "},"‹":{"ha":433,"x_min":19,"x_max":371,"o":"m 19 422 l 203 708 l 371 708 l 231 422 l 371 138 l 203 138 l 19 422 z "},"›":{"ha":433,"x_min":63,"x_max":414,"o":"m 203 422 l 63 708 l 231 708 l 414 422 l 231 138 l 63 138 l 203 422 z "},"\"":{"ha":729,"x_min":90,"x_max":639,"o":"m 90 888 l 90 956 l 326 956 l 326 888 l 299 589 l 118 589 l 90 888 m 403 888 l 403 956 l 639 956 l 639 888 l 611 589 l 431 589 l 403 888 z "}}}
